<svg width="379" height="129" viewBox="0 0 379 129" fill="none" xmlns="http://www.w3.org/2000/svg">
    <path d="M9.31979 128.052C8.55718 128.05 7.79293 127.919 7.11926 127.561C2.17401 124.938 -0.663213 118.699 0.791204 113.253C2.34533 107.433 8.60942 103.294 14.5722 104.118C17.6329 104.546 20.424 106.085 23.1199 107.607C24.1987 108.211 25.3716 106.809 24.7768 105.725C22.375 101.347 21.5553 95.9042 22.5966 90.9715C23.9445 84.5964 28.3215 78.5068 34.6173 76.8416C39.7554 75.4778 45.2107 77.2064 49.9524 79.6327C64.5898 87.1496 74.8502 100.962 83.5565 114.918C80.8288 111.159 83.8578 105.387 88.2664 103.896C92.6592 102.405 97.5119 103.96 101.667 106.037C107.848 109.138 113.345 114.112 117.901 119.722C120.845 123.348 118.022 128.41 113.352 128.394L9.31979 128.052Z" fill="white"/>
    <path d="M386.615 94.8962C387.637 94.8928 388.663 94.7197 389.555 94.2239C395.103 91.1428 398.262 84.051 396.614 77.8502C394.833 71.147 387.652 66.38 380.818 67.3297C377.309 67.8229 374.11 69.5946 371.02 71.348C369.78 72.046 368.432 70.4408 369.114 69.1921C371.872 64.1484 372.814 57.8739 371.62 52.1884C370.075 44.846 365.058 37.8324 357.841 35.9146C351.952 34.3438 345.699 36.3347 340.264 39.1292C323.486 47.7866 311.725 63.6951 301.745 79.768C304.872 75.4392 301.4 68.7909 296.347 67.074C291.311 65.3572 285.749 67.1471 280.987 69.5398C274.445 72.8374 268.573 77.973 263.6 83.8268C259.573 88.5671 263.327 95.3033 269.547 95.2828L386.615 94.8962Z" fill="white"/>
    <path d="M82.9259 28.8099C78.7913 28.7954 73.8462 28.1907 72.6928 24.2201C72.3562 23.0616 72.3074 21.8245 72.6161 20.6525C73.4731 17.4509 76.9013 15.1779 80.1775 15.6353C81.864 15.8709 83.3846 16.7164 84.8637 17.5479C85.4601 17.8821 86.0996 17.122 85.7715 16.5222C84.4536 14.1128 84.0042 11.1151 84.5734 8.40062C85.3199 4.89415 87.7113 1.54013 91.1672 0.625402C93.9872 -0.123014 96.9869 0.819437 99.5719 2.16381C107.603 6.29396 113.23 13.9029 118.012 21.5811C116.52 19.516 118.178 16.3421 120.597 15.5106C123.017 14.6929 125.671 15.5521 127.952 16.6886C134.863 20.1534 130.334 28.9754 122.603 28.9484L82.9259 28.8099Z" fill="white"/>
    <path d="M251.79 26.2063C250.068 26.2003 248.009 25.9485 247.529 24.2952C247.389 23.8128 247.368 23.2977 247.497 22.8097C247.854 21.4767 249.281 20.5303 250.645 20.7207C251.347 20.8188 251.981 21.1708 252.596 21.5171C252.845 21.6562 253.111 21.3397 252.974 21.09C252.426 20.0868 252.239 18.8386 252.476 17.7084C252.786 16.2484 253.782 14.8519 255.221 14.471C256.395 14.1594 257.644 14.5518 258.721 15.1116C262.065 16.8312 264.407 19.9994 266.399 23.1964C265.777 22.3365 266.468 21.015 267.475 20.6688C268.482 20.3283 269.587 20.6861 270.537 21.1593C273.415 22.6019 271.529 26.2752 268.31 26.2639L251.79 26.2063Z" fill="white"/>
</svg>
