<svg width="228" height="170" viewBox="0 0 228 170" fill="none" xmlns="http://www.w3.org/2000/svg">
    <g clip-path="url(#clip0_335_5297)">
        <g opacity="0.64">
            <mask id="mask0_335_5297" style="mask-type:luminance" maskUnits="userSpaceOnUse" x="16" y="-15" width="231" height="234">
                <path d="M169.324 182.155C208.014 180.814 248.258 155.252 246.024 126.816C244.615 108.756 225.746 94.6176 227.932 77.096C229.35 65.7436 231.893 63.0545 235.469 52.4637C238.534 43.3961 240.856 34.8998 238.949 24.5908C236.309 10.2773 226.894 -2.69208 214.672 -9.80093C204.151 -15.9213 192.054 -15.398 181.114 -14.2902C165.57 -12.7087 150.561 -7.37268 137.539 0.712234C119.556 11.8674 105.178 29.1391 85.3115 36.5544C75.6696 40.1539 65.1477 41.2432 55.2465 44.1603C36.166 49.7943 16.8912 64.5438 16.6691 88.119C16.5782 98.0433 19.9989 107.82 25.8649 116.147C32.3338 125.327 40.4082 133.989 44.0882 144.834C48.1726 156.881 45.9877 169.725 48.8593 182.031C53.7641 203.071 75.1184 219.762 94.7391 217.892C102.45 217.162 109.547 213.974 116.232 210.321C134.103 200.574 148.507 182.875 169.324 182.155Z" fill="white"/>
            </mask>
            <g mask="url(#mask0_335_5297)">
                <path d="M73.0011 267.413L317.889 131.656L214.418 -54.9918L-30.47 80.7656L73.0011 267.413Z" fill="#FF0000"/>
            </g>
            <mask id="mask1_335_5297" style="mask-type:luminance" maskUnits="userSpaceOnUse" x="16" y="-15" width="231" height="234">
                <path d="M169.324 182.155C208.014 180.814 248.258 155.252 246.024 126.816C244.615 108.756 225.746 94.6176 227.932 77.096C229.35 65.7436 231.893 63.0545 235.469 52.4637C238.534 43.3961 240.856 34.8998 238.949 24.5908C236.309 10.2773 226.894 -2.69208 214.672 -9.80093C204.151 -15.9213 192.054 -15.398 181.114 -14.2902C165.57 -12.7087 150.561 -7.37268 137.539 0.712234C119.556 11.8674 105.178 29.1391 85.3115 36.5544C75.6696 40.1539 65.1477 41.2432 55.2465 44.1603C36.166 49.7943 16.8912 64.5438 16.6691 88.119C16.5782 98.0433 19.9989 107.82 25.8649 116.147C32.3338 125.327 40.4082 133.989 44.0882 144.834C48.1726 156.881 45.9877 169.725 48.8593 182.031C53.7641 203.071 75.1184 219.762 94.7391 217.892C102.45 217.162 109.547 213.974 116.232 210.321C134.103 200.574 148.507 182.875 169.324 182.155Z" fill="white"/>
            </mask>
            <g mask="url(#mask1_335_5297)">
                <path d="M169.044 23.3947C166.487 8.15626 160.909 -9.35246 156.892 -23.1023L6.05547 56.8255C10.1687 73.0671 19.9326 93.8781 30.4543 107.127C33.6008 111.085 37.3211 114.62 40.9388 117.904C48.611 95.2757 64.9841 73.1671 83.6974 58.9288C108.439 40.0029 137.533 25.1933 169.044 23.3947Z" fill="#FF0000"/>
            </g>
            <mask id="mask2_335_5297" style="mask-type:luminance" maskUnits="userSpaceOnUse" x="44" y="-12" width="208" height="217">
                <path d="M184.851 173.852C219.386 174.164 254.321 151.651 251.163 124.688C249.166 107.563 231.72 93.4319 232.959 76.963C233.763 66.2926 235.927 63.8553 238.692 53.9929C241.062 45.5489 242.791 37.6146 240.665 27.7946C237.721 14.1605 228.774 1.51993 217.557 -5.69699C207.902 -11.9103 197.108 -11.9096 187.373 -11.3093C173.541 -10.4492 160.34 -6.01936 149.029 1.0894C133.407 10.8971 121.258 26.6321 103.801 32.8286C95.3276 35.8367 85.9654 36.4365 77.2328 38.7891C60.4046 43.3344 43.775 56.486 44.5388 78.7557C44.8627 88.1306 48.3199 97.5091 53.904 105.618C60.062 114.557 67.6342 123.072 71.3668 133.472C75.5101 145.023 74.0811 157.071 77.1506 168.818C82.3945 188.901 102.167 205.546 119.631 204.58C126.495 204.205 132.71 201.482 138.537 198.303C154.116 189.821 166.27 173.683 184.851 173.852Z" fill="white"/>
            </mask>
            <g mask="url(#mask2_335_5297)">
                <path d="M94.3259 71.3815C89.0876 59.5415 85.1105 47.2706 82.4859 34.8633C82.353 34.2343 81.5313 34.3831 81.6643 35.0121C84.3087 47.5107 88.3237 59.85 93.6108 71.778C93.87 72.3753 94.593 71.9745 94.3259 71.3815Z" fill="#FF0000"/>
            </g>
        </g>
        <path d="M57.7909 64.7078C56.8376 64.127 55.9061 63.5024 55.0294 62.8011C54.3938 62.297 53.013 61.4312 52.6952 60.6751C52.0377 59.119 54.5582 59.8751 55.4568 60.0176C56.5417 60.1929 57.6266 60.3902 58.7115 60.5984C59.0512 60.6641 59.2813 60.3463 59.1388 60.0505C57.8348 57.2341 56.98 54.2973 56.5198 51.2289C56.3335 51.3713 56.1472 51.5138 55.9718 51.6563C58.1745 53.2781 60.3552 54.9329 62.5031 56.6205C62.788 56.8396 63.2373 56.6533 63.1277 56.2588C62.5469 54.0233 62.5031 51.8316 63.0181 49.5851C62.8099 49.6399 62.6017 49.6947 62.3935 49.7495C64.0373 51.5028 65.6811 53.2452 67.3248 54.9986C67.6536 55.3493 68.1905 54.8233 67.8618 54.4616C66.218 52.7083 64.5742 50.9659 62.9305 49.2125C62.7442 49.0153 62.3606 49.1029 62.3058 49.3769C61.7579 51.7549 61.7908 54.1 62.4154 56.4561C62.6236 56.3355 62.8318 56.215 63.0401 56.0945C60.8374 54.363 58.6128 52.6754 56.3554 51.0097C56.0595 50.7905 55.7636 51.1522 55.8075 51.4371C56.2677 54.5712 57.1663 57.5629 58.4923 60.434C58.6347 60.2477 58.7772 60.0614 58.9197 59.8861C57.1115 59.5354 55.3034 59.2067 53.4843 58.9765C52.7281 58.8779 51.709 58.6916 51.4569 59.6231C51.183 60.6532 52.5857 61.6504 53.1993 62.2203C54.4924 63.4147 55.917 64.4448 57.4184 65.3653C57.8238 65.6064 58.2074 64.9599 57.7909 64.7078Z" fill="#F7CE45"/>
        <path d="M190.181 49.8153C190.959 47.24 192.219 44.9278 193.951 42.8785C193.731 42.7909 193.523 42.7032 193.304 42.6155C193.501 45.0702 193.698 47.5249 193.896 49.9796C193.918 50.3194 194.279 50.4618 194.542 50.2426C197.6 47.7331 200.898 45.5524 204.405 43.7114C204.219 43.5689 204.032 43.4265 203.857 43.284C203.484 46.0236 202.761 48.6537 201.654 51.196C201.512 51.5138 201.819 51.9302 202.169 51.7111C204.449 50.2755 206.893 49.3112 209.523 48.7852C209.369 48.6317 209.216 48.4783 209.062 48.3249C208.175 50.8125 206.991 53.1247 205.523 55.3164C205.249 55.7219 205.906 56.0945 206.169 55.7C207.682 53.4535 208.876 51.0755 209.786 48.5222C209.895 48.2263 209.577 48.0071 209.325 48.0619C206.619 48.5989 204.12 49.5961 201.786 51.0645C201.961 51.2399 202.126 51.4042 202.301 51.5796C203.43 48.9824 204.197 46.2976 204.58 43.4922C204.624 43.1744 204.339 42.9005 204.032 43.0648C200.471 44.9387 197.128 47.1523 194.027 49.7057C194.246 49.7933 194.455 49.881 194.674 49.9687C194.477 47.514 194.279 45.0593 194.082 42.6046C194.06 42.3087 193.666 42.0676 193.435 42.3416C191.616 44.4894 190.29 46.9113 189.469 49.607C189.315 50.0783 190.038 50.2755 190.181 49.8153Z" fill="#F7CE45"/>
        <path d="M125.569 21.7285C125.229 19.4382 125.207 17.1808 125.47 14.8795C125.251 14.9671 125.043 15.0548 124.824 15.1425C126.566 17.0493 128.297 18.967 130.04 20.8738C130.248 21.1039 130.566 20.9505 130.664 20.7094C131.716 18.1889 133.207 15.9644 135.125 14.0247C134.916 13.9699 134.708 13.9151 134.5 13.8603C134.818 15.8548 135.136 17.8602 135.453 19.8546C135.508 20.2163 135.968 20.1724 136.144 19.9423C137.7 17.8273 139.596 16.074 141.831 14.6822C141.645 14.5726 141.459 14.4631 141.261 14.3535C141.13 16.5013 140.801 18.5944 140.286 20.6765C140.165 21.1477 140.889 21.345 141.009 20.8738C141.546 18.7259 141.875 16.5561 142.017 14.3425C142.039 14.0576 141.689 13.8713 141.448 14.0138C139.102 15.4712 137.13 17.3232 135.497 19.5368C135.727 19.5697 135.957 19.5916 136.188 19.6245C135.87 17.6301 135.552 15.6247 135.234 13.6302C135.19 13.3453 134.785 13.2795 134.61 13.4658C132.593 15.5041 131.059 17.8383 129.952 20.4793C130.16 20.4245 130.369 20.3697 130.577 20.3149C128.834 18.4081 127.103 16.4904 125.361 14.5836C125.119 14.3206 124.747 14.5507 124.714 14.8466C124.451 17.2136 124.495 19.5368 124.845 21.8929C124.911 22.397 125.635 22.1998 125.569 21.7285Z" fill="#F7CE45"/>
        <path d="M121.033 174.874C121.745 177.657 122.458 180.451 123.17 183.235C123.247 183.531 123.718 183.618 123.86 183.323C124.989 181.01 126.129 178.698 127.257 176.386C127.06 176.408 126.863 176.441 126.666 176.463C128.781 178.567 131.224 180.177 133.986 181.306C134.249 181.416 134.534 181.098 134.446 180.846C133.646 178.588 133.328 176.287 133.482 173.898C133.328 174.019 133.164 174.139 133.011 174.26C135.06 174.786 137.098 175.312 139.147 175.849C139.476 175.937 139.728 175.586 139.575 175.301C138.216 172.726 136.846 170.15 135.487 167.575C135.257 167.148 134.611 167.531 134.841 167.959C136.2 170.534 137.569 173.109 138.928 175.684C139.071 175.498 139.213 175.312 139.356 175.137C137.306 174.611 135.268 174.085 133.219 173.548C132.967 173.482 132.759 173.668 132.748 173.909C132.594 176.375 132.923 178.731 133.734 181.065C133.887 180.912 134.041 180.758 134.194 180.605C131.553 179.52 129.23 177.964 127.203 175.958C127.038 175.794 126.72 175.816 126.611 176.035C125.482 178.347 124.342 180.66 123.214 182.972C123.444 183.005 123.674 183.027 123.904 183.06C123.192 180.276 122.48 177.482 121.767 174.698C121.636 174.205 120.912 174.402 121.033 174.874Z" fill="#F7CE45"/>
        <path d="M222.595 147.203C219.122 151.258 208.185 147.609 198.169 139.039C188.153 130.47 182.838 120.235 186.312 116.18C189.786 112.125 200.722 115.774 210.738 124.344C220.754 132.914 226.069 143.149 222.595 147.203Z" fill="black"/>
        <path d="M151.484 150.82C148.01 154.874 137.074 151.225 127.058 142.656C117.042 134.086 111.727 123.851 115.2 119.796C118.674 115.741 129.611 119.391 139.627 127.96C149.643 136.519 154.958 146.754 151.484 150.82Z" fill="black"/>
        <path d="M183.583 75.3483C188.12 69.6718 197.358 63.1734 204.317 61.1023C211.286 59.0311 219.396 60.0722 224.875 64.8391C231.034 70.2088 232.853 78.9975 233.105 87.1616C233.675 104.783 228.546 127.566 223.659 144.507C221.357 137.373 214.026 126.809 207.834 122.579C201.643 118.338 193.314 116.925 186.454 119.971C181.578 122.141 177.808 126.338 175.386 131.094C172.965 135.839 173.512 109.769 172.778 115.04C170.356 114.404 167.715 121.626 165.294 120.99C165.294 120.99 155.069 141.899 152.165 149.23C148.856 141.56 140.21 133.33 132.407 130.305C124.616 127.281 116.189 126.382 107.871 125.505C111.937 118.207 116.024 110.898 119.323 103.227C121.12 99.0625 122.687 94.7887 124.824 90.7888C132.659 76.1154 148.944 65.8692 165.557 66.8226C173.392 67.2719 181.633 70.5923 185.446 77.4523L183.583 75.3483Z" fill="#F7CE45"/>
        <path d="M146.357 144.255C142.631 157.296 131.355 167.882 118.106 170.764C111.136 172.287 103.685 171.268 99.082 165.329C88.4633 151.652 95.2685 129.812 99.4656 115.062C104.594 97.0352 111.564 74.9648 122.467 59.7215C122.467 59.7215 119.75 56.171 117.01 49.5301C115.728 46.407 115.564 42.8564 116.769 39.7113C117.974 36.5662 121.788 34.2869 124.845 35.6896C123.728 34.0567 125.098 31.6787 126.949 31.0212C128.812 30.3637 130.862 30.8897 132.757 31.4267C131.519 30.3418 132.144 28.1172 133.557 27.2734C134.971 26.4296 136.757 26.605 138.357 26.9776C142.741 28.0077 146.784 30.3966 149.875 33.6622C151.617 35.5033 149.864 38.4949 147.42 37.8374C144.198 36.9717 141.283 35.9087 138.96 34.791C139.968 35.4594 142.96 37.6073 145.645 39.8538C147.782 41.6291 145.897 45.0371 143.245 44.1824C141.152 43.5139 139.245 42.703 138.423 42.1551C142.357 46.2426 146.357 50.4506 148.658 55.634C153.195 65.8254 150.412 77.6167 147.672 88.4218C143.847 103.545 140.615 122.053 137.24 137.286C137.25 137.286 143.398 140.266 146.357 144.255Z" fill="#FFE1C9"/>
        <path d="M145.863 66.2969C147.55 60.456 149.15 53.9028 145.961 48.6427C143.627 44.7963 139.003 42.4512 134.301 41.98C129.6 41.5088 124.844 42.7032 120.592 44.6319C117.217 46.1661 114.061 48.1606 111.42 50.6591C104.1 57.5739 101.36 67.5681 95.8809 75.8417C93.3276 79.6991 88.977 83.5894 84.2978 82.4059C82.2266 81.8798 80.5828 80.4333 78.6761 79.5019C74.5009 77.4526 69.2627 78.0334 65.0656 80.0607C60.8685 82.0881 57.5481 85.3756 54.5236 88.7837C48.9018 95.1287 43.9048 102.405 42.8637 110.591C41.8227 118.777 45.691 127.96 53.7345 131.325C56.3865 132.442 59.3124 132.87 62.1835 133.286C68.3641 134.196 75.3228 135.62 78.5555 140.65C80.0678 142.995 80.5719 145.921 82.6211 147.883C83.8923 149.088 85.6238 149.79 87.3881 150.184C93.5577 151.543 100.045 149.406 105.459 146.327C108.932 144.354 112.231 141.9 114.225 138.579C116.899 134.141 116.91 128.793 117.644 123.741C118.192 120.037 119.157 116.377 120.538 112.859C121.162 111.271 121.896 109.671 123.168 108.487C124.439 107.293 126.378 106.58 128.088 107.117C129.107 107.435 129.94 108.147 130.937 108.542C133.151 109.419 135.77 108.531 137.611 107.095C142.86 103.008 143.243 95.7095 142.97 89.3207C142.696 82.9319 142.444 75.7979 146.991 71.0419L145.863 66.2969Z" fill="black"/>
        <path d="M123.661 45.2456C112.987 42.4403 102.884 50.8893 97.8538 59.5355C95.2566 64.0175 93.2622 69.1132 89.3391 72.6638C84.7584 76.8061 78.3477 77.354 72.5068 76.291C69.6028 75.765 66.907 74.6363 64.0578 73.935C61.4387 73.2884 58.995 73.6391 56.5622 74.7678C51.609 77.0691 46.8311 80.3238 43.949 85.0469C40.9683 89.9344 38.3054 95.9615 37.5931 101.66C36.9356 106.942 38.0643 112.432 40.7601 117.024C43.5983 121.845 48.1571 125.593 53.3952 127.511C59.9374 129.911 67.0057 129.023 73.7451 128.125C74.2163 128.059 74.2273 127.314 73.7451 127.369C67.8275 128.158 61.6689 128.979 55.7951 127.467C50.6885 126.152 46.053 123.051 42.8751 118.843C39.5108 114.383 37.8561 108.717 38.1958 103.15C38.5574 97.3204 41.1875 91.4028 44.0367 86.3728C46.864 81.3539 51.5213 77.9786 56.6718 75.5349C59.9703 73.9678 62.8524 74.2418 66.2276 75.3705C68.7371 76.2034 71.2685 76.9047 73.8986 77.2554C78.3915 77.8471 83.1694 77.4855 87.1583 75.1733C91.0596 72.9049 93.5143 69.0475 95.6183 65.1901C98.4127 60.0615 101.076 55.1302 105.601 51.2728C110.467 47.1195 117.02 44.2703 123.453 45.9579C123.924 46.1004 124.132 45.3771 123.661 45.2456Z" fill="black"/>
        <path d="M58.3167 128.563C62.3056 129.439 65.8671 131.62 68.4972 134.743C71.4888 138.305 72.1792 142.25 73.0559 146.666C73.7682 150.283 75.401 153.263 78.6776 155.115C81.746 156.858 85.4719 157.603 88.9567 157.844C95.455 158.282 102.249 156.419 107.279 152.189C113.646 146.82 114.994 138.754 115.093 130.831C115.158 125.549 114.895 120.289 115.41 115.018C115.926 109.736 117.898 103.61 123.673 102.12C124.144 101.999 123.947 101.276 123.476 101.397C115.049 103.566 114.457 113.955 114.326 121.056C114.15 129.812 115.586 139.839 110.457 147.543C106.337 153.734 98.896 156.934 91.6196 157.153C87.8389 157.263 83.8171 156.671 80.3542 155.137C78.5242 154.326 76.8146 153.165 75.664 151.51C74.2832 149.537 73.8887 147.126 73.4833 144.803C72.771 140.683 71.5327 137.045 68.7163 133.867C66.0315 130.842 62.459 128.727 58.514 127.85C58.0428 127.73 57.8455 128.464 58.3167 128.563Z" fill="black"/>
        <path d="M115.531 106.503C118.983 105.221 121.317 108.739 122.785 111.281C123.958 113.298 125.196 115.292 127.399 116.278C131.695 118.207 135.76 115.72 138.007 112.038C142.949 103.939 143.081 92.356 137.218 84.7289C136.922 84.3454 136.275 84.7289 136.571 85.1125C142.346 92.6191 142.237 104.224 137.097 112.081C135.607 114.361 133.36 116.224 130.511 116.213C127.476 116.202 125.459 114.284 123.98 111.829C122.183 108.849 119.608 104.202 115.345 105.791C114.884 105.945 115.082 106.668 115.531 106.503Z" fill="black"/>
        <path d="M121.887 46.5386C115.235 40.632 105.668 42.1552 98.5669 46.3414C94.4026 48.7961 90.6548 52.0288 87.2248 55.415C83.5318 59.0751 79.9703 65.0146 74.3596 65.6721C71.3898 66.0228 67.8612 64.2147 68.0256 60.8285C68.1023 59.4039 69.0009 57.8478 70.4803 57.53C72.1679 57.1684 74.0308 58.3848 74.1404 60.1271C74.1733 60.6093 74.9185 60.6093 74.8965 60.1271C74.6664 56.478 69.6584 55.5794 67.905 58.6697C65.6585 62.6147 69.494 66.4064 73.3843 66.505C79.3676 66.6584 83.225 60.5764 86.918 56.8177C91.2685 52.3685 96.2108 48.0619 101.92 45.4537C108.145 42.6155 115.98 42.2977 121.371 47.0865C121.722 47.3934 122.259 46.8674 121.887 46.5386Z" fill="black"/>
        <path d="M136.999 43.7221C140.505 43.229 143.826 45.3111 147.245 45.7932C149.842 46.1549 152.494 46.0343 155.058 45.4754C160.307 44.3467 165.009 41.366 168.537 37.3442C171.419 34.0567 175.375 29.0267 172.921 24.5776C170.882 20.8955 165.951 16.5669 161.414 17.0601C159.529 17.2573 157.995 18.7915 158.455 20.786C158.927 22.8242 161.173 23.4818 162.894 22.5722C163.321 22.3421 162.938 21.6955 162.51 21.9256C159.628 23.4379 157.71 19.0984 160.68 17.9806C161.864 17.5313 163.244 17.871 164.395 18.2874C166.948 19.2189 169.25 20.9503 170.959 23.0434C172.011 24.3365 173.129 25.9912 173.074 27.7336C173.03 29.1911 172.208 30.5938 171.518 31.8321C170.28 34.0677 168.746 36.1388 166.959 37.9579C163.091 41.903 157.973 44.5988 152.439 45.1467C149.612 45.4316 146.807 45.1467 144.1 44.3138C141.656 43.5687 139.41 42.6482 136.812 43.0098C136.319 43.0646 136.528 43.7878 136.999 43.7221Z" fill="black"/>
        <path d="M132.46 73.935C133.304 75.6445 134.411 77.2773 135.869 78.7567L140.723 72.4227L147.506 86.3838C149.906 91.3261 156.284 92.8055 160.569 89.3645C160.635 89.3097 160.711 89.2549 160.777 89.1892C164.843 85.8907 164.974 79.721 161.106 76.1924L132.362 50.0126C132.362 50.0126 127.551 62.9436 132.165 73.2884L132.46 73.935Z" fill="#FFE1C9"/>
        <path d="M132.164 73.2885C133.337 69.4749 135.397 64.182 138.805 66.4723C139.21 66.6477 138.728 68.8503 137.972 69.4859C135.945 70.79 133.885 72.1926 132.46 73.935L132.164 73.2885Z" fill="#FFE1C9"/>
        <path d="M132.142 74.1211C133.063 75.9292 134.203 77.5511 135.605 79.0195C135.792 79.2168 136.055 79.1291 136.197 78.9428C137.819 76.8278 139.43 74.7238 141.052 72.6088C140.832 72.6088 140.613 72.6088 140.405 72.6088C142.476 76.8717 144.547 81.1345 146.618 85.3864C147.725 87.6548 149.051 89.6273 151.429 90.7451C154.662 92.2574 158.311 91.6656 161.062 89.452C161.434 89.1452 160.908 88.6192 160.525 88.915C157.281 91.5341 152.569 91.4684 149.533 88.5315C148.131 87.1726 147.397 85.2659 146.553 83.5344C144.723 79.7647 142.882 75.995 141.052 72.2253C140.909 71.9403 140.558 72.028 140.405 72.2253C138.783 74.3402 137.172 76.4443 135.55 78.5593C135.748 78.5373 135.945 78.5045 136.142 78.4825C134.783 77.0579 133.687 75.4909 132.8 73.7375C132.57 73.3101 131.923 73.6937 132.142 74.1211Z" fill="black"/>
        <path d="M132 49.9139C129.293 57.2451 128.723 66.2311 131.846 73.4746C132.033 73.913 132.69 73.5404 132.493 73.0911C129.457 66.0338 130.104 57.2342 132.723 50.1111C132.887 49.6618 132.164 49.4646 132 49.9139Z" fill="black"/>
        <path d="M132.164 73.2883C132.263 73.5075 132.361 73.7157 132.46 73.9348C132.811 73.5075 133.194 73.091 133.622 72.7075C134.509 70.0008 136.208 67.6775 138.947 66.8666C138.936 66.6694 138.893 66.5269 138.805 66.4831C135.397 64.1818 133.337 69.4747 132.164 73.2883Z" fill="black"/>
        <path d="M133.621 72.7077C134.903 71.5132 136.448 70.4721 137.972 69.4859C138.563 68.9927 138.98 67.5572 138.947 66.8558C136.207 67.6777 134.509 69.99 133.621 72.7077Z" fill="#ED7E1C"/>
        <path d="M148.856 56.741C148.746 59.0094 146.828 60.7627 144.56 60.6641C142.292 60.5545 140.538 58.6368 140.637 56.3684C140.746 54.1 142.664 52.3466 144.933 52.4452C147.212 52.5439 148.965 54.4616 148.856 56.741Z" fill="#FFE1C9"/>
        <path d="M144.328 58.3958C144.886 56.9931 145.445 55.5904 146.026 54.1987C146.212 53.7494 145.489 53.5631 145.303 54.0014C144.722 55.3932 144.163 56.7958 143.604 58.1985C143.418 58.6478 144.152 58.8451 144.328 58.3958Z" fill="black"/>
        <path d="M140.723 72.4226L147.254 85.8138L143.977 67.5022L140.723 72.4226Z" fill="black"/>
        <path d="M135.026 60.456C134.533 61.6067 134.05 62.7573 133.557 63.9079C133.426 64.2148 133.722 64.6641 134.072 64.423C134.664 64.0066 135.3 63.7216 136.001 63.5573C136.472 63.4477 136.275 62.7244 135.804 62.834C135.037 63.0093 134.335 63.3271 133.689 63.7764C133.864 63.9518 134.028 64.1162 134.204 64.2915C134.697 63.1408 135.179 61.9902 135.672 60.8396C135.859 60.4012 135.212 60.0177 135.026 60.456Z" fill="black"/>
        <path d="M131.067 62.012C130.771 64.4558 130.475 66.8885 130.179 69.3323C130.157 69.5295 130.366 69.7268 130.552 69.7049C131.209 69.6501 131.922 69.2337 132.524 68.9926C132.963 68.8172 132.776 68.083 132.327 68.2693C131.801 68.4775 131.111 68.9159 130.552 68.9597C130.672 69.0803 130.804 69.2117 130.925 69.3323C131.22 66.8885 131.516 64.4558 131.812 62.012C131.878 61.5298 131.122 61.5298 131.067 62.012Z" fill="black"/>
        <path d="M132.889 56.9054C133.7 57.6616 134.774 58.0342 135.881 57.8917C136.352 57.8259 136.363 57.0808 135.881 57.1356C134.96 57.2561 134.105 57.0041 133.426 56.3685C133.064 56.0507 132.538 56.5767 132.889 56.9054Z" fill="black"/>
        <path d="M218.301 141.253C213.501 151.696 204.471 160.134 193.71 164.2C185.064 167.466 174.16 167.477 167.793 160.803C163.574 156.387 162.215 150.009 161.503 143.938C160.944 139.138 160.67 134.316 160.703 129.484C160.725 125.615 160.933 121.736 160.823 117.868C160.549 108.202 159.76 98.1642 157.492 88.7618C154.709 77.2115 150.084 65.5955 141.657 57.2123C141.504 57.0589 141.35 56.9274 141.208 56.7959C139.882 55.6452 140.934 53.4754 142.665 53.7603C143.695 53.9357 144.747 54.2644 145.492 54.9C149.054 57.9136 149.153 56.8068 154.248 61.4532C150.577 58.5602 147.279 55.2069 144.451 51.4919C143.673 50.4618 144.561 48.9824 145.832 49.2454C149.284 49.9687 156.034 54.8672 159.936 57.3547C159.936 57.3547 149.766 48.7633 149.766 47.6346C149.766 45.7607 152.736 46.4949 154.928 47.5469C159.256 49.64 165.448 53.4973 170.5 56.9821C171.563 57.7164 172.746 56.226 171.782 55.3603C169.207 53.048 165.875 51.1741 163.673 51.1632C163.256 51.1632 162.851 51.1084 162.478 50.9331C160.462 49.9687 161.547 48.0948 162.884 47.788C163.837 47.5688 167.848 47.8866 168.757 48.2482C176.954 51.5029 179.562 54.9 186.116 64.5106C190.006 70.22 192.581 76.7074 194.685 83.2825C199.441 98.1422 204.131 112.355 204.603 127.949C210.783 130.24 216.262 136.124 218.301 141.253Z" fill="#FFE1C9"/>
        <path d="M161.304 137.669C160.844 130.042 161.392 122.404 161.074 114.777C160.778 107.446 160.153 100.115 158.762 92.9038C156.329 80.2906 151.715 67.1842 142.685 57.738C141.962 56.9819 140.461 55.9627 141.184 54.7902C141.94 53.5628 143.979 54.3518 144.899 54.9436C145.885 55.5792 146.74 56.423 147.737 57.0586C149.962 58.4942 152.011 59.9407 153.984 61.7269C154.159 61.5516 154.334 61.3762 154.521 61.1899C152.23 59.3708 150.082 57.3983 148.099 55.2504C147.573 54.6806 147.058 54.0998 146.554 53.4971C146.225 53.1135 144.778 51.7108 144.789 51.2944C145.206 50.7575 145.611 50.2095 146.028 49.6726C146.225 49.7274 146.433 49.7822 146.63 49.8479C147.178 49.9684 147.726 50.2753 148.23 50.5164C152.318 52.456 155.978 55.2395 159.77 57.6723C160.12 57.9024 160.559 57.3654 160.23 57.0805C157.468 54.7464 154.729 52.3793 152.154 49.8479C151.649 49.3548 150.696 48.6425 150.4 47.974C149.633 46.1987 152.734 47.0535 153.567 47.3494C157.074 48.6096 160.383 50.8561 163.518 52.8177C165.183 53.8587 166.827 54.9217 168.449 56.0175C169.315 56.5983 170.575 57.9682 171.725 57.3983C174.432 56.0614 169.917 53.3327 168.931 52.719C167.693 51.9519 166.345 51.2396 164.909 50.9328C164.285 50.8013 163.583 50.878 162.981 50.7027C160.734 50.0561 162.115 48.237 163.55 48.0836C166.301 47.7987 168.931 48.5986 171.364 49.7712C177.917 52.9601 181.807 58.8229 185.796 64.6747C186.07 65.0692 186.717 64.6967 186.443 64.2912C182.739 58.8558 179.046 53.1026 173.139 49.8369C170.564 48.4123 168.197 47.5247 165.26 47.3494C163.737 47.2617 160.329 47.3822 161.063 49.9246C161.337 50.889 162.378 51.3602 163.276 51.4917C165.622 51.8204 167.495 52.5766 169.457 53.9464C169.961 54.2971 170.443 54.6696 170.914 55.0532C171.232 55.3162 172.777 56.4449 170.706 56.6203C170.136 56.675 168.372 55.0313 167.857 54.6916C165.906 53.3985 163.923 52.1382 161.918 50.9218C158.948 49.1356 155.463 46.5932 151.945 46.122C150.367 45.9138 148.691 46.8562 149.852 48.4562C151.332 50.4835 153.512 52.1711 155.375 53.8258C156.8 55.097 158.246 56.3463 159.704 57.5846C159.857 57.3873 160.011 57.1901 160.164 56.9928C157.545 55.3052 154.992 53.519 152.329 51.8971C151.069 51.13 149.787 50.3739 148.45 49.7493C147.595 49.3548 146.444 48.7192 145.469 48.8068C144.68 48.8726 144.011 49.4753 143.858 50.2534C143.639 51.3821 144.669 52.3026 145.305 53.0916C147.88 56.2696 150.817 59.1298 154.017 61.6721C154.389 61.968 154.915 61.4749 154.553 61.1352C152.734 59.4914 150.882 58.0229 148.789 56.7408C146.828 55.5354 145.118 53.508 142.696 53.3217C140.976 53.2012 139.683 54.8998 140.559 56.4888C141.239 57.7161 142.74 58.7572 143.672 59.8201C144.965 61.3105 146.148 62.8885 147.244 64.5213C155.923 77.5291 159.035 93.7586 160.077 109.09C160.723 118.601 160.022 128.102 160.603 137.604C160.581 138.151 161.337 138.151 161.304 137.669Z" fill="black"/>
        <path d="M217.97 141.067C213.28 151.116 204.842 159.291 194.541 163.466C184.942 167.356 171.737 167.466 165.764 157.515C162.246 151.663 161.742 144.31 161.304 137.659C161.271 137.176 160.515 137.176 160.548 137.659C160.953 143.828 161.457 150.403 164.142 156.069C166.455 160.967 170.608 164.452 175.835 165.877C186.629 168.824 198.355 163.926 206.595 157.055C211.691 152.803 215.812 147.455 218.617 141.439C218.825 141.012 218.179 140.628 217.97 141.067Z" fill="black"/>
        <path d="M140.899 56.2368C142.104 56.3792 143.244 55.5902 143.605 54.4396C143.748 53.9793 143.025 53.7821 142.882 54.2423C142.619 55.0971 141.775 55.5902 140.899 55.4916C140.417 55.4258 140.417 56.182 140.899 56.2368Z" fill="black"/>
        <path d="M144.35 51.4591C145.731 52.0947 147.298 51.6892 148.208 50.4728C148.503 50.0893 147.846 49.7057 147.561 50.0893C146.914 50.955 145.709 51.2509 144.723 50.8016C144.295 50.6153 143.912 51.2618 144.35 51.4591Z" fill="black"/>
        <path d="M150.532 48.5329C151.694 48.7411 152.801 48.2918 153.502 47.3384C153.787 46.9549 153.141 46.5713 152.856 46.9549C152.373 47.6124 151.53 47.9412 150.73 47.7987C150.258 47.722 150.05 48.4452 150.532 48.5329Z" fill="black"/>
        <path d="M161.819 49.2344C163.046 49.6509 164.339 49.3769 165.314 48.544C165.687 48.2263 165.15 47.7002 164.777 48.0071C163.999 48.6646 162.969 48.829 162.016 48.5002C161.556 48.3578 161.358 49.081 161.819 49.2344Z" fill="black"/>
        <path d="M123.739 36.3802C130.314 36.8186 136.341 40.3801 139.902 45.9141C140.165 46.3196 140.812 45.947 140.549 45.5306C136.834 39.7554 130.588 36.0843 123.739 35.6241C123.256 35.5912 123.256 36.3473 123.739 36.3802Z" fill="black"/>
        <path d="M132.11 32.1061C134.598 32.8294 136.954 33.8485 139.19 35.1635C139.606 35.4156 139.99 34.7581 139.573 34.517C137.283 33.1691 134.872 32.1171 132.308 31.3829C131.847 31.2404 131.639 31.9637 132.11 32.1061Z" fill="black"/>
        <path d="M144 39.1634C143.628 40.7853 144.866 42.4181 146.521 42.5057C147.003 42.5277 147.003 41.7825 146.521 41.7496C145.359 41.6839 144.46 40.4894 144.723 39.3607C144.833 38.8894 144.11 38.6922 144 39.1634Z" fill="black"/>
        <path d="M148.297 32.5008C147.705 34.024 148.691 35.8322 150.28 36.1719C150.751 36.2705 150.948 35.5473 150.477 35.4486C149.261 35.1856 148.571 33.8487 149.02 32.6981C149.195 32.2488 148.472 32.0625 148.297 32.5008Z" fill="black"/>
        <path d="M137.908 135.105C136.987 138.678 136.428 142.294 136.231 145.976C136.209 146.458 136.954 146.458 136.987 145.976C137.173 142.36 137.732 138.809 138.631 135.302C138.751 134.842 138.028 134.645 137.908 135.105Z" fill="black"/>
        <path d="M204.864 123.193C204.743 129.253 204.623 135.313 204.502 141.362C204.491 141.845 205.247 141.845 205.258 141.362C205.379 135.302 205.499 129.242 205.62 123.193C205.62 122.711 204.875 122.711 204.864 123.193Z" fill="black"/>
        <path d="M155.189 69.2883C156.033 68.7623 156.877 68.2363 157.731 67.7212C158.148 67.4692 157.764 66.8117 157.348 67.0747C156.504 67.6007 155.66 68.1157 154.805 68.6417C154.4 68.8938 154.783 69.5403 155.189 69.2883Z" fill="#F7CE45"/>
        <path d="M160.909 65.3982C161.577 64.8722 162.246 64.3352 162.914 63.8092C163.298 63.5133 162.761 62.9764 162.377 63.2723C161.709 63.7983 161.041 64.3352 160.372 64.8612C159.999 65.1681 160.536 65.6941 160.909 65.3982Z" fill="#F7CE45"/>
        <path d="M165.917 62.3298C166.684 61.9024 167.451 61.475 168.218 61.0476C168.645 60.8066 168.262 60.16 167.835 60.4011C167.067 60.8285 166.3 61.2559 165.533 61.6832C165.117 61.9134 165.489 62.5599 165.917 62.3298Z" fill="#F7CE45"/>
        <path d="M175.451 57.2671C176.054 57.2671 176.646 57.2671 177.249 57.2671C177.731 57.2671 177.731 56.511 177.249 56.511C176.646 56.511 176.054 56.511 175.451 56.511C174.969 56.511 174.969 57.2671 175.451 57.2671Z" fill="#F7CE45"/>
        <path d="M118.895 40.0074C119.388 39.5581 119.892 39.1197 120.386 38.6704C120.747 38.3417 120.21 37.8157 119.849 38.1335C119.356 38.5828 118.851 39.0211 118.358 39.4704C117.997 39.7992 118.534 40.3252 118.895 40.0074Z" fill="#F7CE45"/>
        <path d="M126.565 33.8593C127.113 33.2238 127.771 32.7306 128.538 32.38C128.976 32.1717 128.593 31.5252 128.154 31.7334C127.343 32.1169 126.62 32.6539 126.028 33.3333C125.721 33.684 126.247 34.221 126.565 33.8593Z" fill="#F7CE45"/>
        <path d="M135.738 29.1038C136.647 28.5449 137.557 27.986 138.466 27.4381C138.883 27.186 138.499 26.5395 138.083 26.7915C137.173 27.3504 136.264 27.9093 135.354 28.4572C134.949 28.7093 135.332 29.3558 135.738 29.1038Z" fill="#F7CE45"/>
        <path d="M137.35 63.4255C138.051 65.146 139.256 66.6692 140.769 67.7541C141.875 68.5431 143.771 68.8938 144.286 67.6445C144.801 66.3952 143.256 65.3213 141.996 64.8391C140.506 64.2693 139.004 63.6995 137.514 63.1187L137.35 63.4255Z" fill="white"/>
        <path d="M129.196 96.2134C127.684 97.7804 126.413 99.5776 125.416 101.517C125.164 102.021 124.912 102.591 125.076 103.128C125.35 104.071 126.731 104.257 127.52 103.676C128.309 103.095 128.605 102.065 128.769 101.101C129.01 99.5557 129.426 97.7585 129.196 96.2134Z" fill="white"/>
        <path d="M124.44 80.9045C122.851 82.4935 121.492 84.3126 120.429 86.2961C120.155 86.8112 119.892 87.392 120.045 87.9508C120.308 88.9262 121.722 89.1563 122.555 88.5755C123.377 87.9947 123.716 86.9427 123.892 85.9454C124.177 84.3565 124.648 82.5045 124.44 80.9045Z" fill="white"/>
        <path d="M106.315 112.585C104.726 114.174 103.367 115.994 102.304 117.977C102.03 118.492 101.767 119.073 101.92 119.632C102.183 120.607 103.597 120.837 104.43 120.256C105.252 119.676 105.591 118.624 105.767 117.626C106.052 116.037 106.523 114.185 106.315 112.585Z" fill="white"/>
    </g>
    <defs>
        <clipPath id="clip0_335_5297">
            <rect x="0.410156" y="-6.63916" width="280" height="198.742" rx="99.3712" fill="white"/>
        </clipPath>
    </defs>
</svg>
