<svg width="393" height="852" viewBox="0 0 393 852" fill="none" xmlns="http://www.w3.org/2000/svg">
<g clip-path="url(#clip0_818_4637)">
<rect width="393" height="852" fill="#FDFBFF"/>
<path d="M127.916 39.5502C121.487 37.1727 117.649 30.0723 119.441 23.9357C121.232 17.7991 128.428 13.3975 135.272 14.2971C138.791 14.7469 141.989 16.3855 145.091 17.9919C149.025 20.016 152.959 22.0401 156.893 24.0963C147.074 20.9156 142.309 9.7991 144.484 0.449675C146.019 -6.26521 151.072 -12.7231 158.301 -14.4901C164.218 -15.9359 170.486 -14.1046 175.924 -11.5343C192.747 -3.59853 204.549 11.02 214.56 25.7349C211.425 21.7509 214.912 15.6786 219.965 14.0722C225.018 12.4979 230.584 14.1365 235.349 16.3533C246 21.269 254.891 30.6184 261 40L127.916 39.5502Z" fill="#EAE2F6"/>
<rect x="127" y="839" width="140" height="5" rx="2.5" fill="black"/>
<path d="M-17.7751 133.567C-23.7055 131.128 -27.2316 123.922 -25.6021 117.664C-23.9459 111.406 -17.3209 106.963 -10.9899 107.857C-7.73081 108.318 -4.79233 109.97 -1.93399 111.596C1.69904 113.654 5.33207 115.741 8.96511 117.799C-0.0907589 114.576 -4.47176 103.251 -2.49497 93.7153C-1.05244 86.8612 3.56899 80.3052 10.2474 78.5171C15.6969 77.0542 21.4937 78.8964 26.4891 81.5243C42.0097 89.5975 52.882 104.471 62.1249 119.479C59.2398 115.442 62.4455 109.239 67.1203 107.613C71.7952 106.015 76.9242 107.694 81.3319 109.916C91.1624 114.901 99.3367 124.437 105 134L-17.7751 133.567Z" fill="#EAE2F6"/>
<path d="M382.452 158.45C390.057 155.359 394.58 146.223 392.49 138.288C390.366 130.354 381.87 124.721 373.75 125.854C369.571 126.438 365.802 128.533 362.137 130.594C357.478 133.205 352.818 135.85 348.159 138.46C359.773 134.373 365.391 120.015 362.856 107.925C361.006 99.2348 355.079 90.9226 346.515 88.6557C339.526 86.8009 332.092 89.1365 325.686 92.4683C305.781 102.704 291.838 121.561 279.985 140.59C283.685 135.472 279.574 127.606 273.579 125.545C267.583 123.519 261.006 125.648 255.353 128.465C242.746 134.785 232.263 146.875 225 159L382.452 158.45Z" fill="#EAE2F6"/>
<path d="M-34.0657 375.211C-41.2164 372.326 -45.5027 363.713 -43.5119 356.258C-41.5211 348.802 -33.4969 343.5 -25.8587 344.557C-21.9381 345.105 -18.3627 347.076 -14.9093 349.026C-10.5214 351.484 -6.1335 353.942 -1.74561 356.4C-12.6747 352.54 -17.9768 339.072 -15.5797 327.716C-13.853 319.55 -8.2462 311.749 -0.181405 309.616C6.40044 307.869 13.3886 310.083 19.4626 313.191C38.2127 322.82 51.3561 340.514 62.5086 358.391C59.0146 353.576 62.8946 346.182 68.542 344.272C74.1691 342.363 80.3853 344.353 85.7076 347.015C97.5712 352.967 107.464 364.302 114.29 375.698L-34.0657 375.211Z" fill="#EAE2F6"/>
<path d="M462.436 322.232C473.639 317.691 480.354 304.132 477.235 292.395C474.116 280.659 461.544 272.312 449.577 273.975C443.435 274.838 437.833 277.94 432.422 281.01C425.548 284.88 418.673 288.75 411.798 292.619C428.921 286.543 437.228 265.34 433.473 247.464C430.767 234.608 421.983 222.327 409.347 218.97C399.035 216.219 388.087 219.705 378.57 224.598C349.194 239.756 328.601 267.611 311.128 295.753C316.602 288.174 310.523 276.533 301.675 273.527C292.859 270.521 283.12 273.655 274.781 277.844C256.194 287.215 240.694 305.059 230 323L462.436 322.232Z" fill="#EAE2F6"/>
<path d="M216.639 167.489C218.694 174.787 227.04 178.246 233.65 174.533C242.124 169.759 252.356 176.803 250.979 186.435C249.898 193.945 256.105 200.501 263.647 199.78C273.328 198.867 279.811 209.475 274.642 217.707C270.596 224.136 273.625 232.643 280.806 235.062C290 238.181 291.653 250.507 283.56 255.917C277.269 260.139 276.57 269.135 282.141 274.29C289.28 280.888 285.764 292.812 276.188 294.467C268.731 295.761 264.431 303.696 267.418 310.676C271.273 319.608 263.202 329.07 253.796 326.694C246.445 324.827 239.306 330.343 239.2 337.917C239.094 347.655 227.888 353.023 220.24 346.997C214.287 342.309 205.517 344.43 202.36 351.326C198.314 360.173 185.879 360.512 181.346 351.898C177.808 345.194 168.931 343.539 163.254 348.567C155.967 354.996 144.485 350.244 143.828 340.527C143.319 332.953 135.884 327.839 128.66 330.11C119.381 333.016 110.823 323.978 114.191 314.855C116.818 307.727 112.094 300.025 104.552 299.155C94.9131 298.031 90.7397 286.299 97.5188 279.318C102.794 273.887 101.607 264.913 95.1037 261.052C86.7571 256.087 87.7104 243.676 96.7349 240.069C103.768 237.247 106.331 228.591 101.946 222.396C96.3324 214.461 102.243 203.514 111.945 203.896C119.508 204.193 125.376 197.319 123.872 189.872C121.966 180.325 131.816 172.751 140.523 177.036C147.323 180.388 155.458 176.485 157.132 169.08C159.271 159.597 171.346 156.669 177.554 164.137C182.405 169.971 191.429 169.717 195.942 163.628C201.767 155.863 213.991 158.133 216.639 167.489Z" fill="#1F150E"/>
<path d="M336.119 396.452C328.175 368.617 303.707 348.759 274.875 346.722C208.885 342.033 96.2052 340.336 72.288 365.923C80.4228 359.091 64.471 374.282 72.288 365.923C35.7025 396.622 30.0039 471.09 30.0039 471.09L115.462 470.496L353.469 471.175C354.782 464.386 344.932 427.385 336.119 396.452Z" fill="#8464C1"/>
<path d="M224.816 315.81L218.927 297.055C223.863 298.222 229.286 296.991 233.29 293.279C239.709 287.338 240.111 277.324 234.179 270.896C228.248 264.467 218.249 264.064 211.83 270.005C211.449 270.365 211.088 270.726 210.75 271.108L203.801 249.001C202.932 246.264 200.221 244.567 197.382 244.991C183.316 247.091 144.04 256.957 141.18 301.51C140.968 304.884 143.616 307.769 147.006 307.769L164.334 307.748L162.957 319.799C183.845 323.808 204.648 321.623 224.816 315.81Z" fill="#ECE5F9"/>
<path d="M224.816 315.81C204.67 321.644 183.845 323.808 162.979 319.799L158.869 355.802C156.793 373.942 167.343 391.466 184.608 397.343C185.413 397.619 186.239 397.873 187.065 398.128C216.978 406.827 244.369 378.037 235.006 348.271L224.816 315.81Z" fill="#8464C1"/>
<path d="M171.155 258.739C162.596 263.173 154.017 267.586 145.458 272.02C144.335 272.593 144.23 274.227 145.056 275.075C147.598 277.664 150.119 280.231 152.661 282.819C154.419 284.601 157.152 281.864 155.394 280.082C152.852 277.494 150.331 274.927 147.789 272.338C147.661 273.357 147.534 274.375 147.386 275.394C155.945 270.959 164.524 266.547 173.083 262.112C175.328 260.945 173.358 257.593 171.155 258.739Z" fill="#1F150E"/>
<path d="M168.719 288.781C168.952 290.775 166.622 292.6 164.8 291.476C162.661 290.181 160.712 293.534 162.851 294.828C166.982 297.352 173.168 293.746 172.617 288.781C172.49 287.742 171.812 286.85 170.668 286.85C169.715 286.829 168.613 287.72 168.719 288.781Z" fill="#1F150E"/>
<path d="M225.536 277.897C222.21 279.022 218.884 280.146 215.559 281.271C213.207 282.077 214.224 285.811 216.597 285.005C219.923 283.88 223.248 282.756 226.574 281.631C228.926 280.846 227.909 277.091 225.536 277.897Z" fill="#1F150E"/>
<path d="M178.718 270.344C182.425 278.725 193.992 280.867 200.792 275.054C202.699 273.421 199.945 270.684 198.059 272.317C192.975 276.667 184.713 274.333 182.086 268.392C181.07 266.101 177.722 268.074 178.718 270.344Z" fill="#1F150E"/>
<path d="M181.897 271.893C180.478 273.336 179.037 274.757 177.618 276.2C175.86 277.961 178.592 280.719 180.351 278.937C181.77 277.494 183.211 276.073 184.63 274.63C186.409 272.869 183.677 270.132 181.897 271.893Z" fill="#1F150E"/>
<path d="M188.018 277.494C188.039 278.937 188.06 280.358 188.081 281.801C188.103 284.305 192.001 284.305 191.958 281.801C191.937 280.358 191.916 278.937 191.895 277.494C191.852 275.012 187.976 274.991 188.018 277.494Z" fill="#1F150E"/>
<path d="M195.646 277.452C196.112 278.725 196.557 280.019 197.023 281.292C197.383 282.268 198.336 282.947 199.417 282.65C200.37 282.395 201.133 281.249 200.773 280.252C200.307 278.979 199.862 277.685 199.396 276.412C199.035 275.415 198.082 274.757 197.002 275.054C196.048 275.33 195.307 276.476 195.646 277.452Z" fill="#1F150E"/>
<path d="M208.991 419.981C208.991 423.694 205.983 426.728 202.254 426.728C198.547 426.728 195.518 423.715 195.518 419.981C195.518 416.268 198.526 413.234 202.254 413.234C205.983 413.234 208.991 416.247 208.991 419.981Z" fill="#1F150E"/>
<path d="M111.501 398.68C89.9136 409.776 68.3267 420.872 46.7185 431.968C41.7614 434.514 36.8042 437.06 31.8471 439.606C23.7122 443.806 17.1027 449.344 13.5225 458.042C10.3449 465.744 9.96355 476.373 13.5649 484.053C17.2934 492.009 23.458 499.307 31.953 502.405C40.0243 505.333 49.9809 506.436 57.9251 502.363C71.4619 495.404 85.02 488.445 98.5568 481.465C118.025 471.451 137.494 461.458 156.962 451.444C145.819 431.841 134.761 412.173 124.317 392.103C120.038 394.309 115.759 396.495 111.501 398.68Z" fill="#8464C1"/>
<path d="M178.19 440.539C186.325 436.36 192.934 430.822 196.515 422.124C199.692 414.422 200.074 403.793 196.472 396.113C192.744 388.157 186.579 380.859 178.084 377.761C170.013 374.833 177.067 363.186 169.123 367.28C159.844 372.054 133.576 387.351 124.297 392.103C134.741 412.195 145.778 431.862 156.942 451.444C159.061 450.362 161.2 449.259 163.319 448.177C168.276 445.631 173.233 443.085 178.19 440.539Z" fill="#ECE5F9"/>
<path d="M181.833 393.1C184.397 375.894 186.96 358.667 189.523 341.461C190.265 336.454 186.663 330.938 181.452 330.365C176.262 329.792 171.178 333.08 170.373 338.448C167.809 355.654 165.246 372.882 162.683 390.088C161.941 395.095 165.543 400.611 170.754 401.184C175.944 401.778 181.028 398.468 181.833 393.1Z" fill="#ECE5F9"/>
<path d="M182.766 393.355C184.694 380.35 186.643 367.323 188.57 354.318C189.714 346.595 193.824 334.417 184.27 330.153C180.902 328.646 176.749 329.262 173.762 331.341C170.055 333.908 169.483 337.769 168.869 341.97C166.941 354.997 164.992 368.002 163.064 381.029C162.874 382.259 164.759 382.768 164.929 381.538C166.496 371.036 168.043 360.534 169.61 350.032C169.992 347.507 170.352 344.983 170.733 342.479C171.072 340.209 171.157 337.727 172.322 335.669C174.716 331.468 180.732 329.877 184.757 332.635C189.566 335.945 188.592 341.227 187.85 346.213C187.109 351.241 186.346 356.291 185.605 361.319C184.037 371.821 182.49 382.302 180.923 392.803C180.711 394.076 182.575 394.586 182.766 393.355Z" fill="#1F150E"/>
<path d="M186.472 425.752C190.857 397.683 195.242 369.593 199.627 341.524C200.411 336.517 196.852 330.98 191.62 330.365C186.429 329.749 181.324 333.017 180.477 338.384C176.091 366.453 171.706 394.543 167.321 422.612C166.537 427.619 170.096 433.156 175.329 433.771C180.519 434.387 185.624 431.119 186.472 425.752Z" fill="#ECE5F9"/>
<path d="M192.32 398.023C193.93 387.16 195.561 376.297 197.171 365.456C197.976 360.025 198.781 354.593 199.586 349.162C200.158 345.258 201.535 340.867 200.37 336.942C198.548 330.789 192.087 327.734 186.198 330.089C183.232 331.277 180.88 333.738 179.969 336.814C178.508 341.758 178.296 347.401 177.533 352.514C175.69 364.841 173.868 377.146 172.025 389.472C171.835 390.703 173.72 391.212 173.889 389.982C175.627 378.292 177.364 366.602 179.101 354.912C179.906 349.502 180.435 343.985 181.516 338.618C182.554 333.462 187.829 329.792 193.083 331.574C199.374 333.717 198.951 340.209 198.146 345.492C197.298 351.135 196.472 356.779 195.625 362.401C193.888 374.091 192.15 385.781 190.413 397.492C190.265 398.723 192.129 399.253 192.32 398.023Z" fill="#1F150E"/>
<path d="M187.552 348.547C184.438 369.466 181.324 390.385 178.21 411.304C177.469 416.311 181.07 421.827 186.281 422.4C191.471 422.972 196.556 419.684 197.361 414.316C200.475 393.397 203.589 372.478 206.703 351.559C207.445 346.552 203.843 341.036 198.632 340.463C193.442 339.891 188.357 343.179 187.552 348.547Z" fill="#ECE5F9"/>
<path d="M196.662 425.582C200.115 402.435 203.547 379.289 207 356.142C207.656 351.793 208.44 347.719 205.75 343.858C203.292 340.336 199.161 338.787 194.967 339.7C185.18 341.821 185.794 353.808 184.629 361.658C182.892 373.391 181.133 385.123 179.396 396.877C179.206 398.107 181.091 398.616 181.261 397.386C182.553 388.645 183.866 379.904 185.158 371.163C185.858 366.389 186.578 361.616 187.277 356.863C187.849 353.002 187.743 347.634 190.391 344.558C194.374 339.954 201.767 340.485 204.712 345.916C207.021 350.202 205.029 356.121 204.352 360.661C202.805 371.057 201.259 381.474 199.712 391.87C198.06 402.923 196.429 413.998 194.776 425.052C194.607 426.282 196.471 426.813 196.662 425.582Z" fill="#1F150E"/>
<path d="M281.145 399.677C302.732 410.773 324.319 421.869 345.927 432.965C350.885 435.511 355.842 438.057 360.799 440.603C368.934 444.782 375.543 450.32 379.123 459.018C382.301 466.72 382.682 477.349 379.081 485.029C375.353 492.985 369.188 500.305 360.693 503.381C352.622 506.309 342.665 507.412 334.721 503.339C321.184 496.38 307.626 489.421 294.089 482.441C274.621 472.427 255.152 462.434 235.684 452.42C246.827 432.817 257.885 413.149 268.329 393.079C272.608 395.286 276.887 397.492 281.145 399.677Z" fill="#8464C1"/>
<path d="M214.456 441.515C206.322 437.336 199.712 431.798 196.132 423.1C192.954 415.398 192.573 404.769 196.174 397.089C199.903 389.133 206.067 381.813 214.562 378.737C222.634 375.809 215.579 364.162 223.523 368.256C232.802 373.03 259.071 388.327 268.35 393.1C257.906 413.192 246.869 432.859 235.704 452.442C233.586 451.36 231.446 450.256 229.328 449.174C224.371 446.628 219.414 444.082 214.456 441.515Z" fill="#ECE5F9"/>
<path d="M210.814 394.098C208.251 376.891 205.687 359.664 203.124 342.458C202.383 337.451 205.984 331.935 211.195 331.362C216.386 330.789 221.47 334.077 222.275 339.445C224.838 356.651 227.401 373.879 229.965 391.085C230.706 396.092 227.105 401.608 221.893 402.181C216.703 402.754 211.619 399.465 210.814 394.098Z" fill="#ECE5F9"/>
<path d="M211.746 393.843C210.178 383.341 208.632 372.86 207.064 362.358C206.323 357.33 205.56 352.28 204.819 347.252C204.077 342.266 203.081 336.984 207.911 333.674C211.937 330.895 217.932 332.507 220.347 336.708C221.512 338.723 221.597 341.248 221.936 343.518C222.317 346.043 222.677 348.568 223.058 351.071C224.626 361.573 226.172 372.075 227.74 382.577C227.931 383.807 229.795 383.277 229.604 382.068C227.677 369.041 225.728 356.036 223.8 343.009C223.164 338.808 222.613 334.947 218.906 332.38C215.919 330.301 211.767 329.685 208.399 331.192C198.823 335.456 202.954 347.613 204.098 355.357C206.026 368.362 207.975 381.389 209.903 394.394C210.051 395.582 211.937 395.052 211.746 393.843Z" fill="#1F150E"/>
<path d="M206.174 426.749C201.789 398.68 197.403 370.59 193.018 342.521C192.234 337.514 195.793 331.977 201.026 331.362C206.216 330.746 211.322 334.014 212.169 339.381C216.554 367.45 220.939 395.54 225.325 423.609C226.108 428.616 222.549 434.153 217.317 434.768C212.127 435.384 207.021 432.116 206.174 426.749Z" fill="#ECE5F9"/>
<path d="M202.193 398.489C200.455 386.799 198.718 375.109 196.981 363.398C196.176 357.967 195.371 352.535 194.566 347.104C193.761 341.673 192.977 334.799 199.544 332.571C204.48 330.895 209.925 334.184 211.026 339.169C212.213 344.643 212.721 350.35 213.526 355.888C215.263 367.578 217 379.268 218.738 390.958C218.928 392.188 220.792 391.658 220.602 390.448C218.992 379.586 217.361 368.723 215.751 357.882C214.946 352.451 214.141 347.019 213.336 341.588C212.806 338.087 212.128 335.053 209.268 332.72C204.269 328.625 196.685 329.728 193.359 335.35C191.367 338.724 191.833 342.034 192.384 345.725C193.189 351.156 193.994 356.588 194.799 362.019C196.642 374.345 198.464 386.651 200.307 398.977C200.498 400.25 202.383 399.72 202.193 398.489Z" fill="#1F150E"/>
<path d="M205.093 349.544C208.207 370.463 211.321 391.382 214.435 412.301C215.177 417.308 211.576 422.824 206.364 423.397C201.174 423.969 196.09 420.681 195.285 415.313C192.171 394.394 189.057 373.475 185.942 352.556C185.201 347.549 188.802 342.033 194.014 341.46C199.204 340.888 204.288 344.176 205.093 349.544Z" fill="#ECE5F9"/>
<path d="M197.849 426.049C194.84 405.872 191.832 385.675 188.845 365.498C188.167 360.894 186.833 355.93 186.833 351.284C186.812 345.067 192.828 340.782 198.654 343.009C203.78 344.982 204.183 349.82 204.882 354.551C205.56 359.134 206.238 363.716 206.937 368.299C208.42 378.313 209.924 388.327 211.407 398.362C211.597 399.592 213.462 399.062 213.271 397.853C211.724 387.521 210.199 377.188 208.653 366.835C207.911 361.807 207.149 356.779 206.407 351.75C205.75 347.401 204.479 343.646 200.285 341.588C191.705 337.387 183.931 344.961 185.138 353.639C186.727 364.968 188.506 376.255 190.18 387.563C192.108 400.568 194.057 413.553 195.984 426.558C196.154 427.81 198.039 427.279 197.849 426.049Z" fill="#1F150E"/>
<path d="M37.7794 437.675C62.6499 424.394 87.5416 411.112 112.412 397.831C115.929 395.943 119.445 394.076 122.962 392.188C124.064 391.594 123.089 389.918 121.987 390.512C97.117 403.793 72.2253 417.074 47.3548 430.355C43.8381 432.244 40.3215 434.111 36.8049 435.999C35.6821 436.593 36.6778 438.269 37.7794 437.675Z" fill="#1F150E"/>
<path d="M342.115 429.931C320.697 418.793 299.301 407.633 277.884 396.495C274.897 394.946 271.91 393.376 268.901 391.828C267.8 391.255 266.804 392.931 267.927 393.504C289.344 404.642 310.741 415.802 332.158 426.94C335.145 428.489 338.132 430.059 341.14 431.608C342.242 432.18 343.216 430.504 342.115 429.931Z" fill="#1F150E"/>
<path d="M52.3115 418.623C56.8874 419.875 61.4632 421.105 66.0602 422.357C67.2677 422.675 67.7762 420.808 66.5687 420.49C61.9928 419.238 57.417 418.008 52.82 416.756C51.6125 416.416 51.104 418.283 52.3115 418.623Z" fill="#1F150E"/>
<path d="M322.647 420.66C326.311 419.514 329.892 418.135 333.387 416.523C334.51 416.014 333.535 414.337 332.413 414.847C329.065 416.374 325.634 417.69 322.138 418.793C320.952 419.153 321.46 421.042 322.647 420.66Z" fill="#1F150E"/>
<path d="M280.913 240.197C284.472 247.941 294.259 247.516 300.212 243.018C306.589 238.181 313.007 227.807 310.211 219.554C308.135 213.422 298.771 209.709 295.234 216.795C293.708 219.829 294.916 223.457 297.267 225.727C300.276 228.613 304.873 229.101 308.834 229.228C318.219 229.546 329.192 225.324 330.633 214.822C330.972 212.383 327.243 211.322 326.904 213.783C325.845 221.399 318.642 225.006 311.588 225.324C308.241 225.473 304.089 225.494 301.102 223.733C299.471 222.778 298.115 221.017 298.581 219.087C299.047 217.092 301.356 216.435 303.135 217.008C306.779 218.196 307.309 222.778 306.694 225.961C305.953 229.78 303.813 233.556 301.356 236.526C297.352 241.342 287.925 246.18 284.281 238.202C283.201 235.975 279.875 237.948 280.913 240.197Z" fill="#1F150E"/>
<path d="M71.9703 188.472C71.2712 197.637 78.8976 205.572 88.134 204.66C97.1586 203.747 103.302 194.858 100.993 186.053C100.146 182.85 97.4552 179.073 93.7691 181.152C90.083 183.232 89.2992 188.769 89.8076 192.524C91.227 202.92 100.887 208.245 110.039 210.961C112.433 211.682 113.449 207.927 111.077 207.227C105.357 205.53 99.2347 203.026 95.8452 197.828C94.1504 195.219 93.1336 191.888 93.642 188.748C93.7479 188.132 93.8962 187.496 94.1292 186.923C94.3834 186.223 95.4638 184.547 96.4807 185.035C97.4128 185.48 97.6035 189.087 97.6035 189.766C97.6458 196.046 92.5616 201.032 86.291 200.862C79.745 200.692 75.381 194.752 75.8471 188.472C76.0377 185.99 72.161 185.99 71.9703 188.472Z" fill="#1F150E"/>
<path d="M75.3394 336.178C80.2754 340.845 88.1136 341.715 93.897 338.023C97.0534 336.008 98.96 332.826 100.273 329.41C101.587 325.909 103.197 321.199 101.1 317.656C99.6379 315.174 96.2061 313.561 93.5368 315.089C90.8252 316.638 90.4439 320.138 91.2913 322.854C93.3673 329.579 101.163 332.932 107.709 332.592C117.009 332.104 124.042 325.06 129.063 317.847C130.482 315.789 127.135 313.858 125.716 315.895C122.051 321.157 117.306 326.333 110.95 328.158C105.781 329.643 99.0024 328.349 95.9095 323.575C95.3375 322.684 94.4266 321.072 94.7443 319.947C95.6764 316.616 97.6254 319.417 97.9856 320.584C98.3245 321.687 98.155 322.705 97.922 323.809C97.2865 326.991 96.0154 330.661 93.7699 333.08C89.6813 337.472 82.3303 337.451 78.0722 333.398C76.2715 331.701 73.5175 334.459 75.3394 336.178Z" fill="#1F150E"/>
<path d="M237.082 184.101C233.565 178.5 234.052 170.714 239.115 166.153C243.479 162.228 253.923 160.403 257.44 166.534C258.626 168.614 257.758 171.435 254.919 170.82C252.716 170.332 251.72 168.062 251.551 166.004C251.275 162.779 252.504 159.427 254.135 156.711C257.44 151.238 263.266 147.483 269.621 146.867C272.078 146.634 272.099 142.751 269.621 142.985C261.846 143.706 254.834 148.013 250.788 154.738C247.398 160.361 245.089 171.414 253.161 174.321C255.999 175.339 259.41 174.681 261.062 171.987C263.138 168.635 261.571 164.54 258.774 162.164C252.822 157.157 243.352 157.963 237.442 162.525C230.303 168.041 229.031 178.564 233.734 186.053C235.069 188.175 238.416 186.223 237.082 184.101Z" fill="#1F150E"/>
<g filter="url(#filter0_d_818_4637)">
<rect x="-295.165" y="461" width="984.329" height="971" rx="485.5" fill="white"/>
<path d="M102.859 515.757H107.433V542H102.859V530.228H91.9868V542H87.413V515.757H91.9868V525.654H102.859V515.757ZM119.897 542.487C118.173 542.487 116.598 542.044 115.174 541.156C113.762 540.269 112.631 539.076 111.781 537.576C110.944 536.077 110.525 534.421 110.525 532.609C110.525 531.247 110.769 529.972 111.256 528.785C111.743 527.585 112.412 526.535 113.262 525.636C114.124 524.723 115.124 524.011 116.261 523.499C117.398 522.986 118.61 522.73 119.897 522.73C121.36 522.73 122.697 523.043 123.909 523.667C125.134 524.28 126.171 525.123 127.021 526.198C127.87 527.273 128.489 528.497 128.876 529.872C129.264 531.247 129.351 532.684 129.139 534.183H115.436C115.611 534.883 115.899 535.514 116.298 536.077C116.698 536.626 117.204 537.07 117.817 537.407C118.429 537.732 119.123 537.901 119.897 537.914C120.697 537.926 121.422 537.739 122.072 537.351C122.734 536.951 123.284 536.414 123.721 535.739L128.389 536.826C127.627 538.488 126.489 539.851 124.977 540.913C123.465 541.963 121.772 542.487 119.897 542.487ZM115.286 530.753H124.509C124.371 530.003 124.078 529.328 123.628 528.729C123.19 528.116 122.647 527.629 121.997 527.266C121.347 526.904 120.647 526.723 119.897 526.723C119.148 526.723 118.454 526.904 117.817 527.266C117.179 527.616 116.636 528.097 116.186 528.71C115.749 529.31 115.449 529.991 115.286 530.753ZM132.207 542L132.189 523.255H136.762L136.781 524.923C137.418 524.249 138.181 523.717 139.068 523.33C139.955 522.93 140.911 522.73 141.936 522.73C142.623 522.73 143.311 522.83 143.998 523.03L142.198 527.641C141.724 527.454 141.249 527.36 140.774 527.36C140.037 527.36 139.362 527.541 138.749 527.904C138.15 528.254 137.668 528.735 137.306 529.347C136.956 529.947 136.781 530.616 136.781 531.353V542H132.207ZM153.47 542.487C151.745 542.487 150.171 542.044 148.746 541.156C147.334 540.269 146.203 539.076 145.353 537.576C144.516 536.077 144.098 534.421 144.098 532.609C144.098 531.247 144.341 529.972 144.829 528.785C145.316 527.585 145.985 526.535 146.834 525.636C147.697 524.723 148.696 524.011 149.833 523.499C150.971 522.986 152.183 522.73 153.47 522.73C154.932 522.73 156.269 523.043 157.481 523.667C158.706 524.28 159.743 525.123 160.593 526.198C161.443 527.273 162.061 528.497 162.449 529.872C162.836 531.247 162.924 532.684 162.711 534.183H149.009C149.184 534.883 149.471 535.514 149.871 536.077C150.271 536.626 150.777 537.07 151.389 537.407C152.002 537.732 152.695 537.901 153.47 537.914C154.27 537.926 154.995 537.739 155.644 537.351C156.307 536.951 156.857 536.414 157.294 535.739L161.961 536.826C161.199 538.488 160.062 539.851 158.55 540.913C157.038 541.963 155.345 542.487 153.47 542.487ZM148.859 530.753H158.081C157.944 530.003 157.65 529.328 157.2 528.729C156.763 528.116 156.219 527.629 155.569 527.266C154.92 526.904 154.22 526.723 153.47 526.723C152.72 526.723 152.027 526.904 151.389 527.266C150.752 527.616 150.208 528.097 149.759 528.71C149.321 529.31 149.021 529.991 148.859 530.753ZM175.207 542V515.757H190.709V520.331H179.781V525.654H188.909V530.228H179.781V542H175.207ZM200.186 542.487C198.461 542.487 196.887 542.044 195.462 541.156C194.05 540.269 192.919 539.082 192.069 537.595C191.232 536.095 190.814 534.44 190.814 532.628C190.814 531.253 191.057 529.972 191.545 528.785C192.032 527.585 192.7 526.535 193.55 525.636C194.413 524.723 195.412 524.011 196.549 523.499C197.687 522.986 198.899 522.73 200.186 522.73C201.911 522.73 203.479 523.174 204.891 524.061C206.316 524.948 207.447 526.142 208.284 527.641C209.134 529.141 209.558 530.803 209.558 532.628C209.558 533.99 209.315 535.264 208.827 536.451C208.34 537.639 207.665 538.688 206.803 539.601C205.953 540.5 204.96 541.206 203.823 541.719C202.698 542.231 201.486 542.487 200.186 542.487ZM200.186 537.914C201.098 537.914 201.917 537.67 202.642 537.183C203.366 536.695 203.935 536.052 204.347 535.252C204.772 534.452 204.985 533.577 204.985 532.628C204.985 531.653 204.766 530.766 204.329 529.966C203.904 529.153 203.323 528.51 202.585 528.035C201.861 527.548 201.061 527.304 200.186 527.304C199.286 527.304 198.474 527.548 197.749 528.035C197.024 528.522 196.449 529.172 196.025 529.984C195.6 530.797 195.387 531.678 195.387 532.628C195.387 533.615 195.606 534.508 196.043 535.308C196.481 536.108 197.062 536.745 197.787 537.22C198.524 537.682 199.324 537.914 200.186 537.914ZM212.496 542L212.477 523.255H217.051L217.07 524.923C217.707 524.249 218.469 523.717 219.357 523.33C220.244 522.93 221.2 522.73 222.225 522.73C222.912 522.73 223.599 522.83 224.286 523.03L222.487 527.641C222.012 527.454 221.537 527.36 221.062 527.36C220.325 527.36 219.65 527.541 219.038 527.904C218.438 528.254 217.957 528.735 217.594 529.347C217.245 529.947 217.07 530.616 217.07 531.353V542H212.496ZM251.992 515.757H257.39L248.374 530.172V542H243.8V530.172L234.784 515.757H240.182L246.087 525.186L251.992 515.757ZM265.025 542.487C263.3 542.487 261.725 542.044 260.301 541.156C258.889 540.269 257.758 539.082 256.908 537.595C256.071 536.095 255.652 534.44 255.652 532.628C255.652 531.253 255.896 529.972 256.383 528.785C256.87 527.585 257.539 526.535 258.389 525.636C259.251 524.723 260.251 524.011 261.388 523.499C262.525 522.986 263.737 522.73 265.025 522.73C266.749 522.73 268.317 523.174 269.73 524.061C271.154 524.948 272.285 526.142 273.122 527.641C273.972 529.141 274.397 530.803 274.397 532.628C274.397 533.99 274.153 535.264 273.666 536.451C273.179 537.639 272.504 538.688 271.642 539.601C270.792 540.5 269.798 541.206 268.661 541.719C267.536 542.231 266.324 542.487 265.025 542.487ZM265.025 537.914C265.937 537.914 266.755 537.67 267.48 537.183C268.205 536.695 268.774 536.052 269.186 535.252C269.611 534.452 269.823 533.577 269.823 532.628C269.823 531.653 269.605 530.766 269.167 529.966C268.742 529.153 268.161 528.51 267.424 528.035C266.699 527.548 265.899 527.304 265.025 527.304C264.125 527.304 263.313 527.548 262.588 528.035C261.863 528.522 261.288 529.172 260.863 529.984C260.438 530.797 260.226 531.678 260.226 532.628C260.226 533.615 260.445 534.508 260.882 535.308C261.319 536.108 261.9 536.745 262.625 537.22C263.362 537.682 264.162 537.914 265.025 537.914ZM276.163 535.064V523.255H280.737V533.865C280.737 534.602 280.918 535.277 281.281 535.889C281.643 536.489 282.124 536.97 282.724 537.333C283.336 537.682 284.005 537.857 284.73 537.857C285.479 537.857 286.154 537.682 286.754 537.333C287.354 536.97 287.835 536.489 288.197 535.889C288.56 535.277 288.741 534.602 288.741 533.865V523.255H293.315L293.334 542H288.76L288.741 540.294C288.091 540.969 287.323 541.506 286.435 541.906C285.548 542.294 284.598 542.487 283.586 542.487C282.224 542.487 280.981 542.156 279.856 541.494C278.731 540.819 277.831 539.926 277.157 538.813C276.494 537.689 276.163 536.439 276.163 535.064Z" fill="black"/>
<path d="M103.648 574.72L105.101 571.019H106.08L105.123 574.72H103.648ZM105.917 574.691L107.37 570.99H108.349L107.391 574.691H105.917ZM116.991 571.019L116.786 572.493H113.624L112.44 580.945H110.965L112.149 572.493H108.994L109.199 571.019H116.991ZM124.037 576.499L123.413 580.945H121.939L122.513 576.861C122.56 576.544 122.522 576.256 122.4 575.996C122.281 575.736 122.104 575.53 121.868 575.379C121.631 575.223 121.355 575.145 121.038 575.145C120.722 575.145 120.421 575.223 120.138 575.379C119.859 575.53 119.625 575.736 119.436 575.996C119.247 576.256 119.129 576.544 119.081 576.861L118.507 580.945H117.032L118.521 570.31H119.996L119.4 574.606C119.684 574.313 120.017 574.082 120.4 573.911C120.783 573.741 121.182 573.656 121.598 573.656C122.123 573.656 122.581 573.784 122.974 574.039C123.366 574.294 123.659 574.637 123.853 575.067C124.052 575.497 124.113 575.975 124.037 576.499ZM127.788 581.129C127.136 581.129 126.564 580.961 126.072 580.626C125.586 580.29 125.222 579.841 124.981 579.279C124.744 578.711 124.673 578.085 124.768 577.4C124.839 576.88 124.997 576.395 125.243 575.946C125.493 575.493 125.805 575.095 126.179 574.755C126.552 574.41 126.966 574.141 127.42 573.947C127.878 573.753 128.351 573.656 128.838 573.656C129.381 573.656 129.863 573.77 130.284 573.997C130.709 574.219 131.054 574.528 131.319 574.925C131.584 575.318 131.756 575.771 131.837 576.287C131.917 576.797 131.884 577.341 131.737 577.917H126.278C126.287 578.243 126.363 578.539 126.505 578.804C126.651 579.064 126.85 579.269 127.1 579.42C127.351 579.572 127.649 579.65 127.994 579.654C128.353 579.654 128.693 579.565 129.015 579.385C129.336 579.205 129.613 578.957 129.844 578.641L131.291 578.988C130.917 579.617 130.416 580.132 129.788 580.534C129.164 580.931 128.497 581.129 127.788 581.129ZM126.384 576.79H130.412C130.412 576.45 130.336 576.142 130.185 575.868C130.033 575.589 129.825 575.37 129.561 575.209C129.301 575.043 129.001 574.961 128.66 574.961C128.32 574.961 127.996 575.041 127.689 575.202C127.386 575.363 127.119 575.582 126.888 575.861C126.661 576.135 126.493 576.445 126.384 576.79ZM140.555 575.329H139.066L138.272 580.945H136.797L137.591 575.329H136.464L136.67 573.855H137.797L138.102 571.628H139.577L139.272 573.855H140.761L140.555 575.329ZM148.05 576.499L147.426 580.945H145.951L146.525 576.861C146.572 576.544 146.535 576.256 146.412 575.996C146.294 575.736 146.116 575.53 145.88 575.379C145.644 575.223 145.367 575.145 145.05 575.145C144.734 575.145 144.434 575.223 144.15 575.379C143.871 575.53 143.637 575.736 143.448 575.996C143.259 576.256 143.141 576.544 143.094 576.861L142.519 580.945H141.045L142.533 570.31H144.008L143.413 574.606C143.696 574.313 144.029 574.082 144.412 573.911C144.795 573.741 145.195 573.656 145.611 573.656C146.135 573.656 146.594 573.784 146.986 574.039C147.378 574.294 147.671 574.637 147.865 575.067C148.064 575.497 148.125 575.975 148.05 576.499ZM151.8 581.129C151.148 581.129 150.576 580.961 150.085 580.626C149.598 580.29 149.234 579.841 148.993 579.279C148.756 578.711 148.686 578.085 148.78 577.4C148.851 576.88 149.009 576.395 149.255 575.946C149.506 575.493 149.818 575.095 150.191 574.755C150.564 574.41 150.978 574.141 151.432 573.947C151.89 573.753 152.363 573.656 152.85 573.656C153.502 573.656 154.072 573.824 154.558 574.16C155.05 574.495 155.416 574.947 155.657 575.514C155.899 576.081 155.969 576.71 155.87 577.4C155.799 577.915 155.639 578.397 155.388 578.846C155.142 579.295 154.833 579.692 154.459 580.037C154.086 580.378 153.672 580.645 153.218 580.838C152.765 581.032 152.292 581.129 151.8 581.129ZM152.006 579.654C152.398 579.654 152.765 579.55 153.105 579.342C153.445 579.134 153.731 578.86 153.963 578.52C154.199 578.175 154.343 577.802 154.395 577.4C154.452 576.989 154.412 576.61 154.275 576.265C154.138 575.92 153.927 575.646 153.644 575.443C153.36 575.235 153.027 575.131 152.644 575.131C152.257 575.131 151.89 575.235 151.545 575.443C151.205 575.651 150.919 575.927 150.687 576.272C150.456 576.617 150.312 576.993 150.255 577.4C150.198 577.82 150.238 578.201 150.375 578.541C150.517 578.882 150.73 579.153 151.013 579.357C151.297 579.555 151.628 579.654 152.006 579.654ZM156.473 578.286L157.09 573.855H158.565L157.99 577.924C157.948 578.241 157.986 578.529 158.104 578.789C158.222 579.049 158.399 579.257 158.636 579.413C158.877 579.565 159.153 579.64 159.465 579.64C159.782 579.64 160.082 579.565 160.366 579.413C160.649 579.257 160.885 579.049 161.075 578.789C161.264 578.529 161.379 578.241 161.422 577.924L161.989 573.855H163.464L162.478 580.945H161.004L161.103 580.179C160.819 580.472 160.486 580.704 160.103 580.874C159.72 581.044 159.323 581.129 158.912 581.129C158.387 581.129 157.927 581.002 157.529 580.746C157.137 580.491 156.844 580.148 156.65 579.718C156.456 579.288 156.397 578.811 156.473 578.286ZM170.192 573.855H171.666L170.645 581.129C170.579 581.616 170.414 582.065 170.149 582.476C169.884 582.888 169.556 583.242 169.163 583.54C168.771 583.842 168.336 584.076 167.859 584.242C167.386 584.407 166.904 584.49 166.412 584.49C165.916 584.49 165.453 584.384 165.023 584.171C164.597 583.963 164.236 583.679 163.938 583.32C163.645 582.961 163.444 582.554 163.335 582.101L164.775 581.491C164.827 581.784 164.942 582.044 165.122 582.271C165.302 582.498 165.521 582.677 165.781 582.81C166.046 582.942 166.327 583.008 166.625 583.008C166.918 583.008 167.207 582.961 167.49 582.866C167.774 582.776 168.034 582.649 168.27 582.483C168.511 582.318 168.712 582.119 168.873 581.888C169.033 581.656 169.133 581.403 169.171 581.129L169.341 579.931C169.057 580.29 168.717 580.581 168.32 580.803C167.927 581.02 167.49 581.129 167.008 581.129C166.507 581.129 166.049 581.032 165.633 580.838C165.217 580.645 164.864 580.378 164.576 580.037C164.288 579.692 164.08 579.295 163.952 578.846C163.829 578.397 163.803 577.915 163.874 577.4C163.945 576.885 164.106 576.402 164.356 575.953C164.612 575.5 164.931 575.103 165.314 574.762C165.701 574.417 166.129 574.148 166.597 573.954C167.069 573.76 167.556 573.663 168.057 573.663C168.54 573.663 168.946 573.774 169.277 573.997C169.612 574.214 169.87 574.505 170.05 574.869L170.192 573.855ZM167.221 579.704C167.627 579.704 167.998 579.6 168.334 579.392C168.674 579.179 168.955 578.898 169.178 578.548C169.405 578.199 169.544 577.816 169.596 577.4C169.657 576.974 169.624 576.589 169.497 576.244C169.374 575.894 169.173 575.615 168.894 575.407C168.615 575.195 168.275 575.088 167.873 575.088C167.471 575.088 167.091 575.192 166.732 575.4C166.377 575.608 166.079 575.887 165.838 576.237C165.597 576.587 165.446 576.974 165.384 577.4C165.328 577.825 165.37 578.213 165.512 578.563C165.659 578.912 165.881 579.191 166.179 579.399C166.481 579.602 166.828 579.704 167.221 579.704ZM179.387 576.499L178.763 580.945H177.289L177.863 576.861C177.91 576.544 177.872 576.256 177.749 575.996C177.631 575.736 177.454 575.53 177.218 575.379C176.981 575.223 176.705 575.145 176.388 575.145C176.071 575.145 175.771 575.223 175.488 575.379C175.209 575.53 174.975 575.736 174.786 575.996C174.597 576.256 174.479 576.544 174.431 576.861L173.857 580.945H172.382L173.871 570.31H175.346L174.75 574.606C175.034 574.313 175.367 574.082 175.75 573.911C176.133 573.741 176.532 573.656 176.948 573.656C177.473 573.656 177.931 573.784 178.324 574.039C178.716 574.294 179.009 574.637 179.203 575.067C179.401 575.497 179.463 575.975 179.387 576.499ZM184.716 575.329H183.227L182.433 580.945H180.958L181.752 575.329H180.625L180.831 573.855H181.958L182.263 571.628H183.738L183.433 573.855H184.922L184.716 575.329ZM187.207 581.08C186.834 581.056 186.479 580.98 186.144 580.853C185.813 580.725 185.527 580.553 185.286 580.335C185.049 580.113 184.886 579.853 184.796 579.555L186.129 579.016C186.172 579.144 186.262 579.269 186.399 579.392C186.536 579.515 186.701 579.617 186.895 579.697C187.094 579.773 187.306 579.81 187.533 579.81C187.755 579.81 187.966 579.78 188.164 579.718C188.368 579.652 188.54 579.553 188.682 579.42C188.824 579.288 188.909 579.13 188.937 578.945C188.965 578.737 188.916 578.577 188.788 578.463C188.665 578.345 188.505 578.255 188.306 578.194C188.108 578.132 187.909 578.073 187.711 578.017C187.257 577.913 186.85 577.771 186.491 577.591C186.137 577.407 185.865 577.173 185.676 576.889C185.487 576.601 185.42 576.249 185.477 575.833C185.543 575.379 185.723 574.987 186.016 574.656C186.309 574.32 186.668 574.063 187.094 573.883C187.519 573.703 187.959 573.614 188.412 573.614C188.98 573.614 189.483 573.734 189.923 573.975C190.362 574.216 190.679 574.547 190.873 574.968L189.596 575.663C189.544 575.521 189.455 575.393 189.327 575.28C189.204 575.166 189.058 575.077 188.887 575.01C188.722 574.939 188.542 574.899 188.349 574.89C188.108 574.88 187.878 574.909 187.661 574.975C187.448 575.036 187.271 575.136 187.129 575.273C186.992 575.41 186.907 575.585 186.874 575.797C186.846 576.005 186.895 576.161 187.023 576.265C187.155 576.365 187.33 576.445 187.547 576.506C187.765 576.568 187.985 576.636 188.207 576.712C188.609 576.844 188.98 577.007 189.32 577.201C189.665 577.39 189.932 577.624 190.121 577.903C190.31 578.182 190.372 578.522 190.305 578.924C190.239 579.368 190.05 579.758 189.738 580.094C189.426 580.43 189.043 580.685 188.59 580.86C188.141 581.035 187.68 581.108 187.207 581.08ZM195.635 573.855H197.11L196.117 580.945H194.643L195.635 573.855ZM196.529 572.827C196.306 572.827 196.129 572.753 195.997 572.607C195.864 572.46 195.815 572.276 195.848 572.054C195.881 571.836 195.983 571.654 196.153 571.508C196.328 571.357 196.524 571.281 196.741 571.281C196.959 571.281 197.134 571.357 197.266 571.508C197.398 571.654 197.448 571.836 197.415 572.054C197.382 572.276 197.28 572.46 197.11 572.607C196.944 572.753 196.751 572.827 196.529 572.827ZM204.763 576.499L204.139 580.945H202.665L203.239 576.861C203.286 576.544 203.248 576.256 203.126 575.996C203.007 575.736 202.83 575.53 202.594 575.379C202.357 575.223 202.081 575.145 201.764 575.145C201.448 575.145 201.147 575.223 200.864 575.379C200.585 575.53 200.351 575.736 200.162 575.996C199.973 576.256 199.855 576.544 199.807 576.861L199.233 580.945H197.758L198.751 573.855H200.226L200.126 574.606C200.41 574.313 200.743 574.082 201.126 573.911C201.509 573.741 201.908 573.656 202.324 573.656C202.849 573.656 203.308 573.784 203.7 574.039C204.092 574.294 204.385 574.637 204.579 575.067C204.778 575.497 204.839 575.975 204.763 576.499ZM214.811 573.855H216.385L211.003 584.49H209.436L211.223 580.945L209.67 573.855H211.28L212.244 578.924L214.811 573.855ZM219.295 581.129C218.643 581.129 218.071 580.961 217.579 580.626C217.092 580.29 216.728 579.841 216.487 579.279C216.251 578.711 216.18 578.085 216.275 577.4C216.345 576.88 216.504 576.395 216.75 575.946C217 575.493 217.312 575.095 217.686 574.755C218.059 574.41 218.473 574.141 218.926 573.947C219.385 573.753 219.857 573.656 220.344 573.656C220.997 573.656 221.566 573.824 222.053 574.16C222.545 574.495 222.911 574.947 223.152 575.514C223.393 576.081 223.464 576.71 223.365 577.4C223.294 577.915 223.133 578.397 222.883 578.846C222.637 579.295 222.327 579.692 221.954 580.037C221.58 580.378 221.167 580.645 220.713 580.838C220.259 581.032 219.787 581.129 219.295 581.129ZM219.501 579.654C219.893 579.654 220.259 579.55 220.6 579.342C220.94 579.134 221.226 578.86 221.457 578.52C221.694 578.175 221.838 577.802 221.89 577.4C221.947 576.989 221.906 576.61 221.769 576.265C221.632 575.92 221.422 575.646 221.138 575.443C220.855 575.235 220.522 575.131 220.139 575.131C219.751 575.131 219.385 575.235 219.04 575.443C218.699 575.651 218.413 575.927 218.182 576.272C217.95 576.617 217.806 576.993 217.749 577.4C217.693 577.82 217.733 578.201 217.87 578.541C218.012 578.882 218.224 579.153 218.508 579.357C218.792 579.555 219.122 579.654 219.501 579.654ZM223.968 578.286L224.584 573.855H226.059L225.485 577.924C225.442 578.241 225.48 578.529 225.598 578.789C225.716 579.049 225.894 579.257 226.13 579.413C226.371 579.565 226.648 579.64 226.96 579.64C227.276 579.64 227.576 579.565 227.86 579.413C228.144 579.257 228.38 579.049 228.569 578.789C228.758 578.529 228.874 578.241 228.916 577.924L229.484 573.855H230.958L229.973 580.945H228.498L228.597 580.179C228.314 580.472 227.981 580.704 227.598 580.874C227.215 581.044 226.818 581.129 226.407 581.129C225.882 581.129 225.421 581.002 225.024 580.746C224.632 580.491 224.339 580.148 224.145 579.718C223.951 579.288 223.892 578.811 223.968 578.286ZM231.395 580.945L232.387 573.855H233.862L233.763 574.606C234.046 574.313 234.38 574.082 234.763 573.911C235.145 573.741 235.545 573.656 235.961 573.656C236.226 573.656 236.483 573.692 236.734 573.763L235.932 575.251C235.762 575.181 235.585 575.145 235.401 575.145C235.084 575.145 234.784 575.223 234.5 575.379C234.221 575.53 233.987 575.736 233.798 575.996C233.609 576.256 233.491 576.544 233.444 576.861L232.87 580.945H231.395ZM247.145 576.499L246.521 580.945H245.046L245.621 576.861C245.668 576.544 245.63 576.256 245.507 575.996C245.389 575.736 245.212 575.53 244.975 575.379C244.739 575.223 244.462 575.145 244.146 575.145C243.829 575.145 243.529 575.223 243.245 575.379C242.966 575.53 242.732 575.736 242.543 575.996C242.354 576.256 242.236 576.544 242.189 576.861L241.615 580.945H240.14L241.629 570.31H243.104L242.508 574.606C242.792 574.313 243.125 574.082 243.508 573.911C243.891 573.741 244.29 573.656 244.706 573.656C245.231 573.656 245.689 573.784 246.081 574.039C246.474 574.294 246.767 574.637 246.961 575.067C247.159 575.497 247.221 575.975 247.145 576.499ZM250.896 581.129C250.244 581.129 249.672 580.961 249.18 580.626C248.693 580.29 248.329 579.841 248.088 579.279C247.852 578.711 247.781 578.085 247.875 577.4C247.946 576.88 248.105 576.395 248.35 575.946C248.601 575.493 248.913 575.095 249.286 574.755C249.66 574.41 250.073 574.141 250.527 573.947C250.986 573.753 251.458 573.656 251.945 573.656C252.489 573.656 252.971 573.77 253.392 573.997C253.817 574.219 254.162 574.528 254.427 574.925C254.691 575.318 254.864 575.771 254.944 576.287C255.025 576.797 254.992 577.341 254.845 577.917H249.386C249.395 578.243 249.471 578.539 249.612 578.804C249.759 579.064 249.958 579.269 250.208 579.42C250.459 579.572 250.756 579.65 251.101 579.654C251.461 579.654 251.801 579.565 252.122 579.385C252.444 579.205 252.72 578.957 252.952 578.641L254.398 578.988C254.025 579.617 253.524 580.132 252.895 580.534C252.271 580.931 251.605 581.129 250.896 581.129ZM249.492 576.79H253.519C253.519 576.45 253.444 576.142 253.292 575.868C253.141 575.589 252.933 575.37 252.668 575.209C252.408 575.043 252.108 574.961 251.768 574.961C251.428 574.961 251.104 575.041 250.797 575.202C250.494 575.363 250.227 575.582 249.995 575.861C249.768 576.135 249.601 576.445 249.492 576.79ZM262.096 573.855H263.57L262.578 580.945H261.096L261.181 579.917C260.921 580.281 260.597 580.574 260.21 580.796C259.827 581.018 259.394 581.129 258.912 581.129C258.392 581.129 257.917 581.032 257.487 580.838C257.057 580.64 256.693 580.366 256.395 580.016C256.098 579.666 255.882 579.264 255.75 578.811C255.618 578.352 255.589 577.861 255.665 577.336C255.736 576.83 255.897 576.355 256.147 575.911C256.402 575.462 256.719 575.069 257.097 574.734C257.48 574.398 257.905 574.136 258.373 573.947C258.846 573.753 259.335 573.656 259.841 573.656C260.356 573.656 260.794 573.774 261.153 574.011C261.517 574.242 261.803 574.54 262.011 574.904L262.096 573.855ZM259.075 579.704C259.491 579.704 259.869 579.602 260.21 579.399C260.55 579.191 260.831 578.912 261.053 578.563C261.28 578.213 261.422 577.825 261.479 577.4C261.54 576.97 261.507 576.58 261.38 576.23C261.257 575.88 261.053 575.604 260.77 575.4C260.486 575.192 260.139 575.088 259.728 575.088C259.316 575.088 258.926 575.192 258.558 575.4C258.189 575.608 257.879 575.887 257.629 576.237C257.383 576.587 257.23 576.974 257.168 577.4C257.111 577.83 257.159 578.22 257.31 578.57C257.461 578.915 257.693 579.191 258.005 579.399C258.317 579.602 258.674 579.704 259.075 579.704ZM270.866 570.31H272.341L270.852 580.945H269.377L269.526 579.903C269.238 580.271 268.891 580.569 268.484 580.796C268.082 581.018 267.631 581.129 267.13 581.129C266.615 581.129 266.144 581.032 265.719 580.838C265.298 580.645 264.941 580.378 264.648 580.037C264.355 579.692 264.143 579.295 264.01 578.846C263.883 578.397 263.854 577.915 263.925 577.4C263.996 576.885 264.159 576.402 264.414 575.953C264.674 575.5 264.998 575.103 265.386 574.762C265.778 574.417 266.213 574.148 266.69 573.954C267.168 573.76 267.664 573.663 268.179 573.663C268.68 573.663 269.101 573.777 269.441 574.004C269.782 574.226 270.044 574.519 270.228 574.883L270.866 570.31ZM267.343 579.704C267.758 579.704 268.137 579.602 268.477 579.399C268.817 579.191 269.099 578.912 269.321 578.563C269.548 578.213 269.689 577.825 269.746 577.4C269.808 576.97 269.774 576.58 269.647 576.23C269.524 575.88 269.321 575.604 269.037 575.4C268.753 575.192 268.406 575.088 267.995 575.088C267.584 575.088 267.194 575.192 266.825 575.4C266.456 575.608 266.147 575.887 265.896 576.237C265.65 576.587 265.497 576.974 265.435 577.4C265.379 577.83 265.426 578.22 265.577 578.57C265.728 578.915 265.96 579.191 266.272 579.399C266.584 579.602 266.941 579.704 267.343 579.704ZM272.856 574.72L273.813 571.019H275.287L273.834 574.72H272.856ZM275.124 574.72L276.082 571.019H277.556L276.103 574.72H275.124Z" fill="black"/>
<path d="M187.543 563.964C186.967 563.964 186.473 563.824 186.061 563.545C185.65 563.266 185.348 562.9 185.154 562.446C184.96 561.988 184.899 561.494 184.97 560.965C185.012 560.662 185.078 560.397 185.168 560.17C185.263 559.944 185.397 559.721 185.572 559.504C185.747 559.287 185.979 559.043 186.267 558.774C186.56 558.504 186.926 558.176 187.366 557.788C187.182 557.566 187.028 557.372 186.905 557.207C186.782 557.041 186.688 556.888 186.622 556.746C186.56 556.599 186.522 556.448 186.508 556.292C186.494 556.136 186.501 555.959 186.529 555.76C186.586 555.344 186.737 554.973 186.983 554.647C187.229 554.316 187.529 554.056 187.884 553.867C188.243 553.674 188.614 553.577 188.997 553.577C189.399 553.577 189.751 553.676 190.053 553.874C190.356 554.068 190.583 554.331 190.734 554.661C190.885 554.988 190.932 555.354 190.876 555.76C190.847 555.964 190.802 556.146 190.741 556.306C190.679 556.462 190.594 556.614 190.486 556.76C190.377 556.907 190.238 557.063 190.067 557.228C189.902 557.389 189.699 557.575 189.458 557.788L191.287 559.929L193.244 558.221L192.953 560.305L192.18 560.979L193.698 562.737L192.513 563.779L191.003 562.028C190.549 562.42 190.169 562.742 189.862 562.992C189.555 563.243 189.283 563.439 189.046 563.581C188.81 563.723 188.576 563.822 188.344 563.879C188.113 563.935 187.846 563.964 187.543 563.964ZM187.749 562.489C187.938 562.489 188.103 562.468 188.245 562.425C188.387 562.378 188.536 562.3 188.692 562.191C188.848 562.078 189.037 561.924 189.259 561.73C189.481 561.532 189.762 561.279 190.103 560.972L188.259 558.83C187.905 559.142 187.614 559.398 187.387 559.596C187.165 559.79 186.99 559.955 186.863 560.092C186.735 560.23 186.64 560.367 186.579 560.504C186.518 560.636 186.475 560.794 186.451 560.979C186.409 561.267 186.44 561.525 186.544 561.752C186.652 561.978 186.813 562.158 187.026 562.29C187.238 562.423 187.479 562.489 187.749 562.489ZM188.529 556.952C188.803 556.71 189.011 556.531 189.153 556.413C189.295 556.29 189.394 556.183 189.451 556.094C189.512 555.999 189.552 555.879 189.571 555.732C189.604 555.472 189.543 555.264 189.387 555.108C189.231 554.947 189.042 554.867 188.82 554.867C188.583 554.867 188.368 554.952 188.174 555.122C187.981 555.292 187.867 555.496 187.834 555.732C187.815 555.879 187.822 556.001 187.855 556.101C187.893 556.195 187.966 556.304 188.075 556.427C188.184 556.55 188.335 556.725 188.529 556.952Z" fill="black"/>
</g>
</g>
<defs>
<filter id="filter0_d_818_4637" x="-325.765" y="446.4" width="1045.53" height="1032.2" filterUnits="userSpaceOnUse" color-interpolation-filters="sRGB">
<feFlood flood-opacity="0" result="BackgroundImageFix"/>
<feColorMatrix in="SourceAlpha" type="matrix" values="0 0 0 0 0 0 0 0 0 0 0 0 0 0 0 0 0 0 127 0" result="hardAlpha"/>
<feMorphology radius="16" operator="dilate" in="SourceAlpha" result="effect1_dropShadow_818_4637"/>
<feOffset dy="16"/>
<feGaussianBlur stdDeviation="7.3"/>
<feComposite in2="hardAlpha" operator="out"/>
<feColorMatrix type="matrix" values="0 0 0 0 0 0 0 0 0 0 0 0 0 0 0 0 0 0 0.43 0"/>
<feBlend mode="normal" in2="BackgroundImageFix" result="effect1_dropShadow_818_4637"/>
<feBlend mode="normal" in="SourceGraphic" in2="effect1_dropShadow_818_4637" result="shape"/>
</filter>
<clipPath id="clip0_818_4637">
<rect width="393" height="852" fill="white"/>
</clipPath>
</defs>
</svg>
