<svg width="232" height="171" viewBox="0 0 232 171" fill="none" xmlns="http://www.w3.org/2000/svg">
    <g opacity="0.64">
        <mask id="mask0_0_1" style="mask-type:luminance" maskUnits="userSpaceOnUse" x="27" y="-12" width="228" height="232">
            <path d="M178.499 184.241C216.831 182.912 256.702 157.588 254.488 129.415C253.092 111.522 234.399 97.5147 236.564 80.1555C237.969 68.9083 240.488 66.2442 244.032 55.7515C247.068 46.7679 249.369 38.3503 247.479 28.1369C244.864 13.9561 235.536 1.10688 223.427 -5.9361C213.004 -11.9997 201.019 -11.4813 190.18 -10.3837C174.78 -8.81691 159.91 -3.53033 147.009 4.47963C129.192 15.5314 114.947 32.643 95.2655 39.9896C85.7129 43.5558 75.2886 44.6349 65.4791 47.5251C46.5754 53.1069 27.4793 67.7196 27.2593 91.0763C27.1692 100.909 30.5582 110.594 36.3697 118.845C42.7787 127.939 50.7783 136.521 54.4242 147.266C58.4707 159.201 56.3061 171.926 59.1511 184.118C64.0105 204.963 85.1669 221.499 104.606 219.647C112.245 218.924 119.276 215.765 125.9 212.146C143.605 202.489 157.875 184.954 178.499 184.241Z" fill="white"/>
        </mask>
        <g mask="url(#mask0_0_1)">
            <path d="M83.0694 268.709L325.688 134.21L223.175 -50.7079L-19.4428 83.7913L83.0694 268.709Z" fill="#AA8FD8"/>
        </g>
        <mask id="mask1_0_1" style="mask-type:luminance" maskUnits="userSpaceOnUse" x="27" y="-12" width="228" height="232">
            <path d="M178.499 184.241C216.831 182.912 256.702 157.588 254.488 129.415C253.092 111.522 234.399 97.5147 236.564 80.1555C237.969 68.9083 240.488 66.2442 244.032 55.7515C247.068 46.7679 249.369 38.3503 247.479 28.1369C244.864 13.9561 235.536 1.10688 223.427 -5.9361C213.004 -11.9997 201.019 -11.4813 190.18 -10.3837C174.78 -8.81691 159.91 -3.53033 147.009 4.47963C129.192 15.5314 114.947 32.643 95.2655 39.9896C85.7129 43.5558 75.2886 44.6349 65.4791 47.5251C46.5754 53.1069 27.4793 67.7196 27.2593 91.0763C27.1692 100.909 30.5582 110.594 36.3697 118.845C42.7787 127.939 50.7783 136.521 54.4242 147.266C58.4707 159.201 56.3061 171.926 59.1511 184.118C64.0105 204.963 85.1669 221.499 104.606 219.647C112.245 218.924 119.276 215.765 125.9 212.146C143.605 202.489 157.875 184.954 178.499 184.241Z" fill="white"/>
        </mask>
        <g mask="url(#mask1_0_1)">
            <path d="M178.221 26.9521C175.688 11.8548 170.162 -5.49165 166.182 -19.1141L16.7432 60.073C20.8183 76.1641 30.4917 96.7822 40.9159 109.908C44.0332 113.83 47.7191 117.331 51.3032 120.586C58.9043 98.1669 75.1256 76.2631 93.6655 62.1568C118.178 43.4063 147.002 28.734 178.221 26.9521Z" fill="#AA8FD8"/>
        </g>
        <mask id="mask2_0_1" style="mask-type:luminance" maskUnits="userSpaceOnUse" x="54" y="-8" width="206" height="215">
            <path d="M193.881 176.015C228.096 176.324 262.708 154.02 259.578 127.306C257.6 110.34 240.316 96.3396 241.543 80.0233C242.34 69.4519 244.483 67.0371 247.223 57.2661C249.571 48.9004 251.284 41.0396 249.178 31.3106C246.261 17.8028 237.397 5.27942 226.284 -1.87059C216.718 -8.02629 206.025 -8.02561 196.38 -7.43086C182.676 -6.57883 169.598 -2.18998 158.391 4.8529C142.914 14.5697 130.878 30.1589 113.582 36.298C105.187 39.2782 95.9118 39.8724 87.2601 42.2032C70.5879 46.7064 54.1124 59.7361 54.8692 81.7995C55.19 91.0874 58.6151 100.379 64.1475 108.413C70.2484 117.269 77.7504 125.705 81.4485 136.008C85.5533 147.452 84.1376 159.389 87.1787 171.027C92.3739 190.924 111.963 207.414 129.266 206.458C136.066 206.086 142.223 203.388 147.996 200.238C163.431 191.835 175.473 175.847 193.881 176.015Z" fill="white"/>
        </mask>
        <g mask="url(#mask2_0_1)">
            <path d="M104.197 74.4941C99.0068 62.7639 95.0665 50.6067 92.4662 38.3143C92.3345 37.6911 91.5205 37.8386 91.6522 38.4618C94.2721 50.8446 98.2499 63.0695 103.488 74.8869C103.745 75.4787 104.461 75.0816 104.197 74.4941Z" fill="#AA8FD8"/>
        </g>
    </g>
    <path d="M149.153 115.566C151.277 118.096 154.79 116.147 155.952 113.727C156.87 111.824 157.112 109.601 157.484 107.548C157.91 105.238 158.301 102.926 158.667 100.614C160.006 92.0913 161.523 83.1882 159.849 74.6006C159.482 72.7423 157.942 64.7028 154.533 66.6128C154.093 66.8628 154.462 67.558 154.903 67.3079C158.02 65.5676 159.576 77.8474 159.684 79.5147C159.962 83.8945 159.593 88.2923 159.045 92.64C158.439 97.3819 157.696 102.11 156.841 106.808C156.468 108.87 156.236 111.084 155.42 113.026C154.565 115.069 151.677 117.344 149.742 115.037C149.404 114.645 148.832 115.174 149.153 115.566Z" fill="#7F60B3"/>
    <path d="M64.016 90.5888C62.2164 86.5722 62.7679 82.1298 64.0465 78.0431C65.2857 74.0841 67.0899 70.2161 69.2434 66.6717C73.4487 59.7602 80.0557 53.7863 88.4322 53.0515C88.9334 53.0107 88.9642 52.2191 88.4626 52.2685C79.792 53.035 72.9497 59.0772 68.5789 66.2582C66.2416 70.097 64.2672 74.3548 63.0398 78.6762C61.883 82.7331 61.5608 87.0379 63.3294 90.9672C63.5271 91.4229 64.2223 91.0449 64.016 90.5888Z" fill="#7F60B3"/>
    <path d="M220.146 103.432C216.869 103.08 213.43 102.663 210.907 102.858C205.455 103.275 200.288 105.427 194.96 106.642C189.485 107.886 183.84 108.149 178.231 108.397C174.14 108.583 170.049 108.769 165.963 108.61C162.221 108.473 158.49 108.061 154.778 107.581C148.889 106.827 142.889 106.034 136.88 105.051C123.294 102.834 109.701 99.6698 97.4415 93.9201C94.4634 92.5205 91.523 91.0361 88.6289 89.4675C74.9939 82.0787 62.3443 72.8324 51.1327 62.0478C46.9138 57.9889 42.9012 53.7227 39.1119 49.2497L39.0954 49.2318C38.3378 48.332 39.3361 47.0265 40.3844 47.5411L46.0909 50.3392C46.9956 50.7794 48.1016 50.6931 48.8681 50.0334C49.7951 49.2335 49.5259 48.1804 49.2086 47.2546C48.1722 44.2155 46.6814 41.3398 45.7234 38.2779C45.1874 36.5509 44.8354 33.8572 44.8572 31.2987C44.87 29.8601 46.8304 29.5139 47.3123 30.8597C48.2218 33.3941 50.7607 38.1201 53.1304 41.435C53.5226 41.9845 54.3525 41.4652 54.0487 40.8588C52.0716 36.9732 49.8892 31.9421 49.8241 29.1821C49.8055 28.3282 50.438 27.5686 51.2841 27.5239C52.3633 27.4624 52.7817 28.6678 53.0543 29.6349C54.0631 33.1641 55.7661 36.5651 58.589 38.8549C57.3276 36.7292 55.9868 33.7644 55.3481 31.3526C54.9874 29.9943 56.7776 29.1504 57.551 30.3093C58.3651 31.5301 59.1135 33.3343 59.6587 34.3809C62.7705 40.3271 66.9822 45.6782 72.0155 50.0617C75.1153 52.7672 78.5139 55.0966 81.8953 57.4253C88.2226 61.7641 95.5849 65.8502 103.112 69.0292C107.401 70.8244 111.736 72.337 115.958 73.4402C121.825 74.9692 127.832 76.0296 133.901 76.7995C143.168 77.9779 152.565 78.4892 161.798 78.9769C174.703 79.6588 187.983 80.2002 200.218 75.9529C202.768 75.0695 207.816 73.5161 212.34 72.6146C213.685 72.3479 214.247 74.3 212.969 74.8106C209.407 76.2493 205.316 77.7881 201.949 78.8466C201.461 78.9999 201.067 79.3897 200.961 79.894C200.717 81.0651 202.567 80.8956 203.758 80.6402L218.343 77.5182C219.881 77.1901 220.812 79.1652 219.601 80.1781C218.907 80.7544 218.053 81.2296 217.256 81.552C214.219 82.7785 209.462 84.1535 205.336 85.4755C204.001 85.9063 204.44 87.9311 205.826 87.735C209.87 87.1768 215.795 85.6834 220.759 84.5317C222.307 84.1696 223.128 86.3041 221.761 87.1214C218.252 89.1998 214.587 90.8499 210.768 92.2356C206.198 93.9023 206.947 97.6799 210.092 98.3449C211.877 98.7244 213.557 98.9534 214.666 99.005C216.274 99.0847 218.733 99.6541 220.868 100.59C222.409 101.279 221.793 103.608 220.146 103.432Z" fill="#E1D8EA"/>
    <path d="M104.989 80.149C106.564 85.7252 112.077 87.5162 116.389 85.8481C120.872 84.2125 124.474 80.1902 127.142 75.8127C122.922 75.1232 118.35 74.6097 114.254 73.3735C111.291 72.4829 108.27 71.3057 105.257 69.9219C104.199 73.1986 104.239 76.8194 104.989 80.149Z" fill="#E1D8EA"/>
    <path d="M137.349 106.749C137.19 106.192 137.031 105.625 136.872 105.05C135.497 100.077 134.222 94.7704 134.057 89.6798C133.881 84.2268 133.847 80.0202 133.894 76.7991C132.805 76.662 128.215 75.9668 127.135 75.8043C124.037 80.165 122.273 83.6727 117.016 85.2697C111.964 86.9091 106.996 85.7338 105.111 80.1455C104.206 76.81 104.132 73.1878 105.361 69.9264C104.606 69.63 103.859 69.3252 103.105 69.0116C98.5051 72.5471 94.8401 77.2995 92.0598 82.3447C90.7812 84.6562 89.6379 87.0333 88.6216 89.4671C84.2932 99.7691 82.1346 110.991 81.257 122.056C80.0401 137.426 80.116 153.224 82.2454 168.499L177.681 168.533C160.089 150.564 144.318 131.398 137.349 106.749Z" fill="#7F60B3"/>
    <path d="M118.386 61.7494C116.638 59.9408 116.885 56.6758 118.884 55.1162C119.977 54.2624 121.438 53.9055 122.432 52.953C124.731 50.7501 123.359 47.043 123.523 43.9213C123.675 40.8939 125.765 38.3123 128.332 36.5592C132.996 33.3536 135.909 35.3367 139.588 34.1955C148.369 31.4772 147.103 26.5938 150.71 23.0973C154.318 19.6094 159.687 18.4563 164.762 18.6447C168.53 18.791 171.988 20.9244 175.76 20.9588C180.16 21.0004 180.705 16.0666 189.119 15.9106C194.973 15.8104 200.511 19.1794 203.034 24.3012C205.566 29.4235 203.833 37.6719 198.946 40.8344C195.385 43.1348 188.318 43.8859 184.114 43.2057C179.714 42.492 177.263 39.0447 173.502 41.3805C169.186 44.0567 168.834 50.4543 164.681 53.3523C161.431 55.6217 157.01 54.9934 153.063 54.3748C149.124 53.7566 144.589 53.3996 141.611 55.9984C139.586 57.7725 138.532 60.7477 135.942 61.5606C132.314 62.6951 128.264 58.7118 124.889 60.4421C123.984 60.9068 123.323 61.7256 122.474 62.2873C121.625 62.8489 120.367 63.093 119.644 62.3929L118.386 61.7494Z" fill="black"/>
    <path d="M119.322 56.4772C121.706 54.7774 122.285 51.8269 122.178 49.0479C122.03 45.0954 121.004 40.902 124.258 37.8486C129.345 33.0824 137.309 34.7704 142.861 30.884C145.907 28.7532 146.99 25.0639 149.57 22.5013C152.223 19.8639 155.86 18.2644 159.604 18.1426C165.823 17.9446 174.338 21.8341 179.233 16.0179C180.751 14.2068 181.717 9.95287 178.487 9.28457C177.487 9.08201 176.25 9.439 175.798 10.4297C175.336 11.4458 176.437 12.1607 177.36 11.9036C177.848 11.7674 177.671 11.0022 177.183 11.1384C176.983 10.9669 176.792 10.7871 176.592 10.6156C176.818 10.3228 177.11 10.1445 177.466 10.0636C177.849 9.95781 178.304 9.99272 178.669 10.1447C179.585 10.525 179.923 11.5808 179.896 12.4932C179.853 14.0341 178.903 15.4363 177.738 16.382C175.425 18.2484 172.223 18.6153 169.363 18.3922C165.825 18.117 162.332 17.1024 158.762 17.4033C156.143 17.6291 153.592 18.5383 151.408 19.996C149.082 21.5516 147.486 23.6009 146.033 25.966C145.159 27.3798 144.269 28.7844 142.962 29.828C141.673 30.8552 140.156 31.5374 138.595 32.0283C133.554 33.625 127.442 33.4911 123.479 37.5081C121.218 39.8073 120.905 42.7854 121.147 45.8712C121.398 49.1641 122.098 53.5517 118.962 55.7739C118.545 56.0679 118.906 56.7627 119.322 56.4772Z" fill="black"/>
    <path d="M131.014 59.7456C133.554 61.1196 136.631 61.0667 139.047 59.4284C140.356 58.5399 141.397 57.2447 142.821 56.5158C144.816 55.4988 147.039 55.947 149.091 56.561C152.336 57.5228 155.415 58.5558 158.855 58.2499C161.769 57.9924 164.382 56.8185 166.428 54.7091C168.582 52.4833 170.107 49.5867 172.733 47.8532C175.916 45.7534 179.976 46.1265 183.5 46.9958C189.671 48.5021 197.175 52.0335 202.623 46.8419C204.09 45.4426 206.495 41.4254 203.878 40.0485C203.025 39.6017 201.87 39.6 201.252 40.4291C200.671 41.2166 200.817 42.3339 201.65 42.8488C202.079 43.1153 202.501 42.4509 202.072 42.1844C200.911 41.4672 202.324 40.3415 203.218 40.6174C203.754 40.7848 204.076 41.1506 204.164 41.7572C204.252 42.3983 204.041 43.1571 203.812 43.7427C203.283 45.1441 202.213 46.309 200.992 47.1491C198.487 48.8702 195.49 49.0554 192.562 48.5799C186.904 47.6536 181.359 44.4653 175.482 45.84C170.309 47.0524 168.563 52.0689 164.791 55.154C162.504 57.0213 159.551 57.6478 156.653 57.5008C153.696 57.3429 151.078 56.1986 148.237 55.5023C145.395 54.806 143.004 55.1355 140.743 57.0211C139.488 58.0581 138.359 59.1862 136.755 59.6669C134.968 60.2007 133.073 59.9634 131.445 59.0816C130.989 58.8398 130.567 59.5042 131.014 59.7456Z" fill="black"/>
    <path d="M88.355 93.2141C85.4559 89.9993 80.408 90.2084 76.1404 90.9561C71.8728 91.7039 67.1406 92.6577 63.4922 90.3272C63.2739 89.2933 64.232 88.3567 65.2201 87.9815C66.2167 87.6065 67.3218 87.546 68.2467 87.0218C71.2687 85.295 70.1794 80.2891 72.669 77.8523C74.6747 75.8964 78.4092 76.231 79.9055 73.859C81.6773 71.0495 78.8455 66.5448 81.3178 64.3313C81.9516 63.7613 82.8053 63.5187 83.5766 63.1781C87.6517 61.3974 89.9173 56.2977 88.522 52.0727C90.348 52.0833 91.9514 53.3864 92.9342 54.924C93.9169 56.4616 94.4248 58.2478 95.1087 59.9375C96.5403 63.4487 100.237 66.5393 103.104 69.0204C103.479 69.3452 102.455 69.7621 102.609 70.2334C102.755 70.6872 102.65 71.1743 102.537 71.6353C101.412 76.4346 100.268 81.2676 98.233 85.7558C96.1979 90.244 93.1674 94.4092 88.9825 97.0215L88.355 93.2141Z" fill="#7F60B3"/>
    <path d="M131.865 78.461C137.933 72.1818 146.299 67.9308 155.216 66.5965C152.092 68.9398 148.669 71.9178 148.988 75.6787C149.083 76.7768 149.506 77.8704 149.334 78.9668C148.818 82.2644 143.354 83.6551 143.578 86.9815C143.725 89.1933 146.497 90.8003 146.256 93.0056C146.017 95.1679 142.94 96.5479 143.278 98.6981C143.493 100.059 145.012 100.877 145.714 102.085C146.748 103.857 145.871 106.029 145.948 108.04C146.047 110.818 148.474 115.092 151.305 115.857C142.787 115.785 134.227 109.265 130.37 102.101C126.505 94.9361 127.256 85.7792 132.238 79.2941L131.865 78.461Z" fill="#7F60B3"/>
    <path d="M138.663 110.583C132.87 106.48 127.22 101.987 125.958 94.5697C124.764 87.5778 127.951 80.5146 133.831 76.6066C134.141 76.3946 133.868 75.8756 133.55 76.0873C127.696 79.9791 124.388 86.8394 125.253 93.853C126.235 101.836 132.171 106.72 138.343 111.079C138.661 111.298 138.974 110.802 138.663 110.583Z" fill="black"/>
    <path d="M87.5582 93.3379C91.0904 84.4613 96.2111 75.9393 103.062 69.2252C103.331 68.9599 102.934 68.5222 102.657 68.7958C95.7335 75.5933 90.5667 84.191 86.9965 93.161C86.8538 93.5087 87.4155 93.6857 87.5582 93.3379Z" fill="black"/>
    <path d="M83.3282 87.5553C83.9661 87.5456 84.5272 87.7397 85.0379 88.1215C85.3392 88.3486 85.66 87.8526 85.3586 87.6255C84.7811 87.1894 84.0838 86.9555 83.3595 86.9705C82.9721 86.9641 82.9491 87.5578 83.3282 87.5553Z" fill="black"/>
    <path d="M85.1942 83.2245C85.8315 83.8956 86.5141 84.5081 87.2418 85.0706C87.5428 85.3063 87.8553 84.8014 87.5626 84.5746C86.8683 84.0392 86.2277 83.4542 85.632 82.8193C85.3582 82.5501 84.9293 82.9471 85.1942 83.2245Z" fill="black"/>
    <path d="M94.4027 71.4313C95.2651 71.8526 96.1364 72.2656 96.9988 72.6868C97.3372 72.8465 97.6579 72.3505 97.3195 72.1909C96.4572 71.7696 95.5859 71.3566 94.7235 70.9354C94.3851 70.7757 94.0643 71.2717 94.4027 71.4313Z" fill="black"/>
    <path d="M97.0005 69.8001C97.2202 70.5756 97.703 71.232 98.3934 71.6466C98.7218 71.8403 99.034 71.344 98.7142 71.1506C98.1588 70.8102 97.7567 70.2948 97.5743 69.6673C97.4765 69.3015 96.9027 69.4344 97.0005 69.8001Z" fill="black"/>
    <path d="M98.4297 66.9173C98.7632 67.8696 99.327 68.6584 100.113 69.2835C100.414 69.5192 100.726 69.0229 100.433 68.7875C99.7818 68.2624 99.2831 67.5709 99.0121 66.7848C98.8795 66.4264 98.2972 66.5589 98.4297 66.9173Z" fill="black"/>
    <path d="M131.177 80.8822C131.984 80.7154 132.792 80.5485 133.6 80.3817C133.973 80.3014 133.84 79.7275 133.467 79.8078C132.659 79.9746 131.851 80.1415 131.044 80.3083C130.671 80.38 130.803 80.9539 131.177 80.8822Z" fill="black"/>
    <path d="M129.892 84.0116C130.783 83.9342 131.64 84.0364 132.49 84.3365C132.847 84.4624 133.024 83.9005 132.667 83.7747C131.775 83.4557 130.857 83.3425 129.915 83.4179C129.544 83.4552 129.512 84.0486 129.892 84.0116Z" fill="black"/>
    <path d="M127.546 96.7259C128.132 97.3863 128.718 98.0467 129.304 98.7158C129.56 99.0015 129.989 98.5959 129.742 98.3191C129.156 97.6587 128.57 96.9982 127.984 96.3292C127.728 96.0349 127.299 96.4405 127.546 96.7259Z" fill="black"/>
    <path d="M127.758 95.2344C128.561 95.412 129.364 95.5897 130.166 95.776C130.533 95.8592 130.719 95.2976 130.343 95.2141C129.54 95.0364 128.737 94.8588 127.935 94.6725C127.567 94.5893 127.382 95.1508 127.758 95.2344Z" fill="black"/>
    <path d="M127.539 92.7016C128.238 93.1165 128.996 93.3528 129.795 93.401C130.173 93.4243 130.196 92.8392 129.818 92.8073C129.113 92.7627 128.458 92.5563 127.852 92.1967C127.523 92.0116 127.211 92.5079 127.539 92.7016Z" fill="black"/>
    <path d="M39.139 47.9151C39.9189 48.4624 40.2081 49.4474 39.8977 50.3402C39.7719 50.6972 40.3336 50.8741 40.4594 50.5171C40.8658 49.3695 40.4408 48.1121 39.4601 47.4105C39.1498 47.1916 38.8287 47.6962 39.139 47.9151Z" fill="black"/>
    <path d="M45.959 30.4626C45.2703 31.7802 46.1104 33.4415 47.574 33.6879C47.9505 33.7542 47.9649 33.1602 47.597 33.0942C46.5956 32.926 45.9896 31.6702 46.4637 30.7752C46.6402 30.446 46.1354 30.1334 45.959 30.4626Z" fill="black"/>
    <path d="M51.2964 28.5496C50.9132 29.5429 51.4548 30.6842 52.4485 31.0502C52.8051 31.1847 52.982 30.6228 52.6254 30.4883C51.9204 30.2283 51.5902 29.4141 51.8581 28.7265C51.9923 28.3784 51.4305 28.2014 51.2964 28.5496Z" fill="black"/>
    <path d="M55.7991 30.1979C56.0604 31.2335 56.733 32.1041 57.6692 32.623C57.998 32.8081 58.3187 32.3122 57.9899 32.127C57.1802 31.682 56.6051 30.9616 56.3814 30.0654C56.2754 29.6907 55.7016 29.8236 55.7991 30.1979Z" fill="black"/>
    <path d="M54.0985 47.8149C54.8232 47.5673 55.5475 47.3283 56.2722 47.0807C56.6302 46.9567 56.4974 46.3828 56.1394 46.5068C55.4147 46.7544 54.6904 46.9934 53.9657 47.241C53.608 47.3564 53.7405 47.9389 54.0985 47.8149Z" fill="#7F60B3"/>
    <path d="M59.5561 45.9073C60.2725 45.6507 60.9975 45.3945 61.7138 45.1379C62.0633 45.0136 61.9394 44.4314 61.5811 44.564C60.8647 44.8206 60.1397 45.0768 59.4233 45.3334C59.0653 45.4573 59.198 46.0312 59.5561 45.9073Z" fill="#7F60B3"/>
    <path d="M64.4107 44.7167C64.8646 44.562 65.319 44.3987 65.7729 44.244C66.131 44.12 65.9982 43.5461 65.6402 43.6701C65.1862 43.8248 64.7318 43.9881 64.2779 44.1428C63.9202 44.2582 64.0526 44.8407 64.4107 44.7167Z" fill="#7F60B3"/>
    <path d="M198.035 92.0519C198.259 92.9568 198.491 93.862 198.714 94.7668C198.803 95.1322 199.386 94.9997 199.288 94.634C199.064 93.7291 198.832 92.8239 198.609 91.919C198.512 91.5447 197.938 91.6776 198.035 92.0519Z" fill="#7F60B3"/>
    <path d="M196.117 85.2818C196.274 85.9169 196.43 86.5434 196.578 87.1782C196.667 87.5436 197.241 87.4108 197.152 87.0454C196.995 86.4103 196.839 85.7837 196.691 85.149C196.602 84.775 196.029 84.9078 196.117 85.2818Z" fill="#7F60B3"/>
    <path d="M194.018 78.5469C194.331 79.3691 194.644 80.1913 194.956 81.0134C195.089 81.3633 195.608 81.0904 195.476 80.732C195.163 79.9098 194.85 79.0876 194.538 78.2655C194.405 77.9156 193.885 78.1971 194.018 78.5469Z" fill="#7F60B3"/>
    <path d="M126.756 44.2584C127.5 41.0731 129.948 38.5915 133.139 37.845C133.635 37.7264 133.458 36.9612 132.962 37.0798C129.519 37.8855 126.813 40.5724 126.007 44.0226C125.893 44.5179 126.642 44.7538 126.756 44.2584Z" fill="white"/>
    <path d="M144.53 36.2711C146.389 35.2058 148.311 34.074 149.461 32.1969C150.104 31.1534 150.553 30.0075 151.273 29.0099C152.074 27.9035 153.049 26.9762 154.14 26.1655C154.548 25.8625 154.01 25.2901 153.603 25.5845C151.793 26.9189 150.436 28.5897 149.419 30.5925C148.216 32.9759 146.425 34.2765 144.152 35.5757C143.72 35.826 144.089 36.5211 144.53 36.2711Z" fill="white"/>
    <path d="M159.117 23.8115C162.44 21.4415 166.562 22.8769 169.992 24.1734C170.468 24.3556 170.704 23.5978 170.228 23.4242C166.458 22.0111 162.168 20.6726 158.579 23.2391C158.163 23.5246 158.71 24.0973 159.117 23.8115Z" fill="white"/>
    <path d="M184.578 21.9215C186.568 20.146 189.302 19.6317 191.808 20.5562C192.283 20.7298 192.519 19.9806 192.043 19.807C189.274 18.7947 186.236 19.392 184.04 21.3491C183.657 21.6789 184.195 22.2599 184.578 21.9215Z" fill="#7F60B3"/>
    <path d="M119.042 76.5413L123.575 52.9937C123.575 52.9937 111.764 54.9825 109.359 63.6789L114.219 64.3156L108.781 72.3514C106.788 75.2987 108.053 79.3462 111.371 80.6298C111.431 80.6493 111.482 80.6772 111.541 80.6967C114.793 81.9346 118.384 79.9541 119.042 76.5413Z" fill="#E1D8EA"/>
    <path d="M125.058 63.8318C123.819 64.4731 122.295 63.9831 121.654 62.7432C121.013 61.5032 121.503 59.9797 122.743 59.3385C123.982 58.6972 125.506 59.1872 126.147 60.4271C126.779 61.6667 126.298 63.1906 125.058 63.8318Z" fill="#E1D8EA"/>
    <path d="M122.784 61.994C123.703 61.8573 124.621 61.7293 125.539 61.6098C125.911 61.5639 125.778 60.99 125.406 61.0359C124.488 61.1554 123.57 61.2834 122.652 61.4201C122.279 61.4746 122.412 62.0485 122.784 61.994Z" fill="black"/>
    <path d="M114.21 64.3159L109.091 71.8987L117.828 64.5339L114.21 64.3159Z" fill="black"/>
    <path d="M112.922 59.2843C112.922 59.2843 116.047 60.2329 118.697 60.5426C118.697 60.5426 113.637 63.0606 111.001 61.9673L112.922 59.2843Z" fill="black"/>
    <path d="M117.743 54.7408C116.165 55.2224 114.556 55.8407 113.104 56.6203C112.919 56.7165 112.881 57.0253 113.084 57.1279C113.658 57.4346 114.224 57.7323 114.798 58.0389C115.135 58.2158 115.448 57.7195 115.118 57.543C114.545 57.2363 113.979 56.9386 113.405 56.6319C113.398 56.804 113.392 56.9675 113.385 57.1396C114.793 56.3842 116.35 55.7897 117.876 55.3147C118.242 55.2083 118.109 54.6344 117.743 54.7408Z" fill="black"/>
    <path d="M118.644 58.1449C119.341 57.7152 120.548 58.3653 120.858 59.0322C121.017 59.3745 121.536 59.1016 121.377 58.7508C120.932 57.8028 119.325 57.0166 118.363 57.6169C118.045 57.82 118.326 58.3479 118.644 58.1449Z" fill="black"/>
</svg>
