<svg width="231" height="249" viewBox="0 0 231 249" fill="none" xmlns="http://www.w3.org/2000/svg">
    <path fill-rule="evenodd" clip-rule="evenodd" d="M213.439 155.303C204.733 166.501 182.02 161.41 162.716 143.932C143.412 126.443 143.829 111.354 152.546 100.145C161.253 88.9471 174.948 85.8763 194.263 103.354C213.557 120.844 222.146 144.105 213.439 155.303Z" fill="#8464C1"/>
    <path d="M207.106 133.355C203.848 133.355 200.717 131.866 198.506 129.199L184.757 112.61C182.856 110.313 181.809 107.358 181.809 104.276V96.2523C181.809 95.3865 182.46 94.6938 183.251 94.6938C184.052 94.6938 184.693 95.398 184.693 96.2523V104.276C184.693 106.584 185.473 108.801 186.904 110.521L200.653 127.11C202.576 129.419 205.418 130.562 208.26 130.146L213.601 129.373C214.392 129.269 215.118 129.857 215.225 130.712C215.332 131.566 214.776 132.351 213.986 132.466L208.644 133.24C208.142 133.309 207.619 133.355 207.106 133.355Z" fill="white"/>
    <path fill-rule="evenodd" clip-rule="evenodd" d="M109.953 200.834C174.382 200.834 188.473 157.14 180.023 111.252C171.573 65.3634 142.376 22.9038 109.953 22.9038C77.5303 22.9038 47.949 62.4658 39.8941 111.252C31.8391 160.049 45.524 200.834 109.953 200.834Z" fill="#AB8FE1"/>
    <path fill-rule="evenodd" clip-rule="evenodd" d="M109.424 47.1289H125.608C142.477 47.1289 156.151 61.9055 156.151 80.1338C156.151 98.362 142.477 113.139 125.608 113.139H109.424C92.5551 113.139 78.8809 98.362 78.8809 80.1338C78.8809 61.8939 92.5551 47.1289 109.424 47.1289Z" fill="#8464C1"/>
    <path fill-rule="evenodd" clip-rule="evenodd" d="M113.217 44.2544H129.401C146.27 44.2544 159.944 59.031 159.944 77.2592C159.944 95.4875 146.27 110.264 129.401 110.264H113.217C96.3481 110.264 82.6738 95.4875 82.6738 77.2592C82.6738 59.031 96.3481 44.2544 113.217 44.2544Z" fill="white"/>
    <path d="M99.6063 200.378C98.805 200.378 98.1641 199.674 98.1641 198.819V181.468C98.1641 174.588 103.345 168.978 109.723 168.978H132.061C136.837 168.978 140.725 164.776 140.725 159.615V154.882C140.725 154.016 141.377 153.324 142.167 153.324C142.969 153.324 143.61 154.028 143.61 154.882V159.615C143.61 166.496 138.428 172.106 132.051 172.106H109.723C104.948 172.106 101.059 176.308 101.059 181.468V198.808C101.059 199.674 100.407 200.378 99.6063 200.378Z" fill="#8464C1"/>
    <path d="M142.167 121.866C141.366 121.866 140.725 121.162 140.725 120.307V119.222C140.725 114.916 143.962 111.418 147.946 111.418H180.038C180.839 111.418 181.48 112.123 181.48 112.977C181.48 113.843 180.829 114.535 180.038 114.535H147.946C145.553 114.535 143.609 116.636 143.609 119.222V120.307C143.609 121.173 142.968 121.866 142.167 121.866Z" fill="#8464C1"/>
    <path fill-rule="evenodd" clip-rule="evenodd" d="M127.902 121.471L147.009 121.594C155.521 121.648 162.582 128.954 162.787 137.914C162.787 137.914 162.787 137.914 162.785 137.925C162.98 146.883 156.247 154.109 147.735 154.055L128.628 153.932C120.117 153.878 113.055 146.573 112.85 137.612C112.85 137.612 112.85 137.612 112.852 137.601C112.659 128.632 119.392 121.406 127.902 121.471Z" fill="#0E101F"/>
    <path fill-rule="evenodd" clip-rule="evenodd" d="M132.443 121.102L151.179 121.227C159.79 121.279 166.944 128.685 167.144 137.749L167.142 137.76C167.34 146.835 160.517 154.145 151.897 154.08L133.161 153.954C124.551 153.902 117.405 146.509 117.195 137.444L117.197 137.433C116.999 128.358 123.822 121.047 132.443 121.102Z" fill="white"/>
    <path d="M133.052 145.897C129.152 145.793 125.916 142.39 125.821 138.239C125.723 134.041 128.875 130.649 132.842 130.675L132.962 130.678C133.006 130.676 133.048 130.685 133.093 130.683C136.993 130.786 140.228 134.189 140.323 138.34C140.422 142.538 137.269 145.93 133.302 145.904L133.182 145.901C133.14 145.892 133.096 145.895 133.052 145.897ZM132.916 133.74C130.545 133.72 128.663 135.748 128.719 138.245C128.774 140.753 130.741 142.794 133.112 142.814L133.232 142.817C135.592 142.835 137.474 140.807 137.418 138.31C137.364 135.801 135.378 133.734 133.025 133.74L132.916 133.74Z" fill="black"/>
    <path d="M144.939 135.508C144.168 135.485 143.521 134.843 143.49 134.034C143.452 133.2 144.065 132.512 144.864 132.496L155.839 132.242C156.638 132.226 157.315 132.885 157.353 133.719C157.392 134.552 156.778 135.24 155.979 135.257L145.004 135.51C144.983 135.506 144.962 135.501 144.939 135.508Z" fill="black"/>
    <path d="M145.356 141.916C144.586 141.892 143.938 141.247 143.907 140.435C143.869 139.599 144.483 138.909 145.282 138.893L151.62 138.755C152.419 138.739 153.096 139.401 153.135 140.238C153.173 141.074 152.559 141.764 151.76 141.78L145.421 141.918C145.399 141.924 145.377 141.92 145.356 141.916Z" fill="black"/>
    <path fill-rule="evenodd" clip-rule="evenodd" d="M120.164 64.3374C122.044 64.3374 123.572 65.9882 123.572 68.02V69.2668C123.572 71.2986 122.044 72.9494 120.164 72.9494C118.284 72.9494 116.756 71.2986 116.756 69.2668V68.02C116.756 65.9882 118.284 64.3374 120.164 64.3374Z" fill="black"/>
    <path fill-rule="evenodd" clip-rule="evenodd" d="M144.328 64.3374C146.208 64.3374 147.736 65.9882 147.736 68.02V69.2668C147.736 71.2986 146.208 72.9494 144.328 72.9494C142.448 72.9494 140.92 71.2986 140.92 69.2668V68.02C140.92 65.9882 142.448 64.3374 144.328 64.3374Z" fill="black"/>
    <path d="M129.469 89.3071C125.58 89.3071 122.418 85.89 122.418 81.688C122.418 80.8221 123.07 80.1295 123.86 80.1295C124.661 80.1295 125.302 80.8337 125.302 81.688C125.302 84.17 127.172 86.1902 129.469 86.1902L135.932 86.1325C138.239 86.1094 140.098 84.1353 140.162 81.6418C140.184 80.776 140.857 80.1064 141.647 80.1295C142.449 80.1526 143.068 80.8683 143.047 81.7341C142.94 85.9131 139.821 89.2148 135.953 89.2609L129.469 89.3071Z" fill="black"/>
    <path fill-rule="evenodd" clip-rule="evenodd" d="M31.7755 170.373C43.4948 177.681 63.1836 164.521 75.7681 140.97C88.3527 117.42 83.1821 103.406 71.4629 96.0866C59.7436 88.7906 45.9198 90.9609 33.3353 114.511C20.7507 138.061 20.0563 163.066 31.7755 170.373Z" fill="#8464C1"/>
    <path d="M59.6686 163.1C59.0917 163.1 58.5362 162.719 58.3226 162.096L54.1669 150.436C53.3229 148.07 53.5152 145.461 54.701 143.267L63.3436 127.186C64.7217 124.635 67.2749 123.042 70.0098 123.042H81.4085C82.2097 123.042 82.8507 123.746 82.8507 124.6C82.8507 125.455 82.199 126.159 81.4085 126.159H69.9991C68.2898 126.159 66.698 127.152 65.8327 128.745L57.1902 144.826C56.453 146.2 56.3355 147.827 56.859 149.305L61.0147 160.988C61.3031 161.796 60.9292 162.696 60.1814 163.008C60.0105 163.066 59.8395 163.1 59.6686 163.1Z" fill="white"/>
    <path d="M168.792 248.668C181.158 248.668 191.184 237.834 191.184 224.471C191.184 211.108 181.158 200.274 168.792 200.274C156.425 200.274 146.4 211.108 146.4 224.471C146.4 237.834 156.425 248.668 168.792 248.668Z" fill="#24153F"/>
    <path fill-rule="evenodd" clip-rule="evenodd" d="M158.577 211.214H178.937C180.063 211.214 180.975 212.197 180.975 213.409V215.965C180.975 217.178 180.063 218.16 178.937 218.16H158.577C157.451 218.16 156.539 217.178 156.539 215.965V213.409C156.539 212.197 157.451 211.214 158.577 211.214Z" fill="#9B83C8"/>
    <path fill-rule="evenodd" clip-rule="evenodd" d="M159.471 218.16H178.295V236.071C178.295 237.284 177.384 238.266 176.258 238.266H161.509C160.383 238.266 159.471 237.284 159.471 236.071V218.16Z" fill="white"/>
    <path fill-rule="evenodd" clip-rule="evenodd" d="M162.989 221.448H175.542C176.1 221.448 176.556 221.939 176.556 222.54V229.486C176.556 230.088 176.1 230.579 175.542 230.579H162.989C162.431 230.579 161.975 230.088 161.975 229.486V222.54C161.975 221.939 162.431 221.448 162.989 221.448Z" fill="white"/>
    <path d="M174.155 226.811H165.864C165.306 226.811 164.85 226.319 164.85 225.718C164.85 225.117 165.306 224.625 165.864 224.625H174.155C174.713 224.625 175.169 225.117 175.169 225.718C175.179 226.319 174.723 226.811 174.155 226.811Z" fill="#9B83C8"/>
    <path d="M47.7498 58.5944C56.4942 49.1451 56.4942 33.8248 47.7498 24.3755C39.0054 14.9263 24.828 14.9263 16.0837 24.3755C7.3393 33.8248 7.3393 49.1451 16.0837 58.5944C24.828 68.0437 39.0054 68.0437 47.7498 58.5944Z" fill="#24153F"/>
    <path d="M34.278 46.0005H30.3359V53.9198H34.278V46.0005Z" fill="#9B83C8"/>
    <path fill-rule="evenodd" clip-rule="evenodd" d="M20.5184 27.5532H44.1064C44.9077 27.5532 45.5486 28.2574 45.5486 29.1117V45.4698C45.5486 46.3356 44.897 47.0283 44.1064 47.0283H20.5184C19.7172 47.0283 19.0762 46.3241 19.0762 45.4698V29.1117C19.0762 28.2574 19.7172 27.5532 20.5184 27.5532Z" fill="white"/>
    <path d="M39.5017 55.6399H25.5711C24.7699 55.6399 24.1289 54.9357 24.1289 54.0814C24.1289 53.2271 24.7806 52.5229 25.5711 52.5229H39.5017C40.303 52.5229 40.9439 53.2271 40.9439 54.0814C40.9439 54.9357 40.303 55.6399 39.5017 55.6399Z" fill="#9B83C8"/>
    <path d="M25.0049 42.7101C24.631 42.7101 24.2678 42.56 23.9793 42.2483C23.4131 41.6365 23.4131 40.6552 23.9793 40.0434L29.3422 34.2482C29.9084 33.6363 30.8165 33.6363 31.3827 34.2482L34.0107 37.0881L38.4762 32.2626C39.0424 31.6508 39.9504 31.6508 40.5166 32.2626C41.0828 32.8744 41.0828 33.8557 40.5166 34.4675L35.0256 40.4012C34.4594 41.0131 33.5513 41.0131 32.9851 40.4012L30.3678 37.5729L26.0305 42.2599C25.7527 42.56 25.3788 42.7101 25.0049 42.7101Z" fill="#9B83C8"/>
    <path d="M224.441 80.4733C233.186 71.024 233.186 55.7037 224.441 46.2544C215.697 36.8052 201.519 36.8052 192.775 46.2544C184.031 55.7037 184.031 71.024 192.775 80.4733C201.519 89.9226 215.697 89.9226 224.441 80.4733Z" fill="#24153F"/>
    <path fill-rule="evenodd" clip-rule="evenodd" d="M202.535 71.3215C199.565 68.1699 198.411 64.4527 199.052 60.1929C200.014 53.7974 206.253 51.0152 210.964 52.6199C215.675 54.2245 217.652 57.1452 218.218 61.5666C218.592 64.5219 217.427 67.7658 214.703 71.3215L213.709 73.1108V76.5163C213.709 79.5294 211.455 81.9652 208.667 81.9652C205.879 81.9652 203.625 79.5294 203.625 76.5163V73.5033L202.535 71.3215Z" fill="white"/>
    <path fill-rule="evenodd" clip-rule="evenodd" d="M207.247 64.661H205.078C204.811 64.661 204.598 64.4301 204.598 64.1415C204.598 64.0376 204.63 63.9337 204.683 63.8529L208.497 57.8268C208.647 57.5844 208.946 57.5267 209.17 57.6883C209.298 57.7806 209.384 57.9423 209.384 58.1154V60.9207C209.384 61.2093 209.597 61.4402 209.864 61.4402H211.68C211.948 61.4402 212.161 61.671 212.161 61.9596C212.161 62.0635 212.14 62.1559 212.086 62.2367L208.625 68.1589C208.486 68.4013 208.187 68.4706 207.963 68.3205C207.824 68.2282 207.738 68.055 207.738 67.8818V65.192C207.728 64.9034 207.514 64.661 207.247 64.661Z" fill="#9B83C8"/>
    <path fill-rule="evenodd" clip-rule="evenodd" d="M220.483 60.1582L222.641 59.7542C223.229 59.6388 223.795 60.0659 223.891 60.7008C223.998 61.3358 223.603 61.9361 223.015 62.0515L220.857 62.4555C220.27 62.571 219.703 62.1439 219.607 61.5089C219.5 60.874 219.896 60.2737 220.483 60.1582Z" fill="#9B83C8"/>
    <path fill-rule="evenodd" clip-rule="evenodd" d="M216.958 51.8124L218.24 49.9307C218.593 49.4112 219.276 49.2842 219.768 49.6651C220.249 50.0461 220.355 50.7734 220.014 51.2929C220.014 51.2929 220.014 51.2929 220.014 51.3044L218.732 53.1861C218.379 53.7056 217.695 53.8326 217.204 53.4516C216.723 53.0707 216.606 52.3434 216.958 51.8124C216.958 51.8239 216.958 51.8239 216.958 51.8124Z" fill="#9B83C8"/>
    <path fill-rule="evenodd" clip-rule="evenodd" d="M207.695 48.8563V46.9862C207.695 46.2012 208.283 45.5547 209.02 45.5547C209.757 45.5547 210.345 46.1896 210.345 46.9862V48.8563C210.345 49.6413 209.757 50.2878 209.02 50.2878C208.283 50.2878 207.695 49.6413 207.695 48.8563Z" fill="#9B83C8"/>
    <path fill-rule="evenodd" clip-rule="evenodd" d="M198.145 52.828L196.607 51.1771C196.18 50.7269 196.18 49.9881 196.596 49.5263C196.596 49.5263 196.596 49.5263 196.607 49.5148C197.034 49.053 197.718 49.053 198.145 49.5148L199.684 51.1656C200.111 51.6158 200.111 52.3547 199.694 52.8164C199.694 52.8164 199.694 52.8164 199.684 52.828C199.256 53.2782 198.573 53.2782 198.145 52.828Z" fill="#9B83C8"/>
    <path fill-rule="evenodd" clip-rule="evenodd" d="M196.05 61.3933L193.86 61.1855C193.262 61.1278 192.824 60.5621 192.877 59.9272C192.931 59.2807 193.454 58.8074 194.053 58.8651L196.243 59.0729C196.841 59.1306 197.279 59.6963 197.225 60.3312C197.172 60.9777 196.649 61.451 196.05 61.3933Z" fill="#9B83C8"/>
    <path d="M212.546 74.7388C212.535 74.7388 212.535 74.7388 212.546 74.7388L204.822 74.6926C204.021 74.6926 203.38 73.9884 203.391 73.1226C203.391 72.2683 204.042 71.5757 204.833 71.5757C204.833 71.5757 204.833 71.5757 204.844 71.5757L212.557 71.6219C213.358 71.6219 213.999 72.3261 213.988 73.1919C213.978 74.0461 213.337 74.7388 212.546 74.7388Z" fill="#9B83C8"/>
    <path d="M210.783 80.3601H206.542C205.741 80.3601 205.1 79.6559 205.1 78.8016C205.1 77.9474 205.751 77.2432 206.542 77.2432H210.783C211.584 77.2432 212.225 77.9474 212.225 78.8016C212.225 79.6559 211.574 80.3601 210.783 80.3601Z" fill="#9B83C8"/>
    <path d="M176.941 19.3683C174.82 20.6995 172.083 20.5016 170.209 18.6859C170.079 18.5578 169.93 18.4413 169.782 18.3504C169.16 17.9531 168.423 17.8514 167.71 18.0499C166.996 18.2484 166.397 18.7299 166.012 19.4048L165.883 19.6297C165.786 19.7959 165.688 19.9622 165.576 20.1244C164.569 21.6102 163.092 22.5895 161.413 22.9089C159.738 23.2125 158.058 22.81 156.703 21.7579L156.023 21.2269C155.899 21.1341 155.771 21.057 155.643 20.9798C154.965 20.6176 154.192 20.5647 153.468 20.8358C152.738 21.097 152.151 21.6492 151.798 22.383C151.649 22.6863 151.481 22.9758 151.302 23.2456C150.388 24.5807 149.055 25.4568 147.546 25.7221C146.036 25.9873 144.535 25.617 143.309 24.6675L141.11 22.964C140.474 22.4705 140.343 21.5029 140.818 20.8108C141.293 20.1188 142.2 19.9566 142.835 20.45L145.035 22.1536C145.636 22.6293 146.382 22.8173 147.126 22.6778C147.876 22.5481 148.536 22.108 148.993 21.4532C149.083 21.3183 149.167 21.1736 149.237 21.0248C149.938 19.5474 151.136 18.4411 152.595 17.9187C154.058 17.3806 155.61 17.4961 156.974 18.2148C157.234 18.3534 157.5 18.5273 157.748 18.7129L158.438 19.2381C159.177 19.8105 160.087 20.0268 161.003 19.8587C161.919 19.6906 162.722 19.1473 163.273 18.3419C163.326 18.2559 163.389 18.164 163.442 18.0779L163.571 17.853C164.358 16.4662 165.589 15.47 167.059 15.0594C168.519 14.6547 170.036 14.87 171.313 15.6825C171.629 15.8782 171.927 16.1111 172.193 16.3772C173.351 17.501 175.164 17.3863 176.239 16.1206C176.343 15.9897 176.447 15.8587 176.541 15.7082L177.931 13.4044C178.367 12.6847 179.266 12.4616 179.928 12.9121C180.59 13.3626 180.788 14.3148 180.343 15.0404L178.952 17.3441C178.775 17.6394 178.577 17.9209 178.355 18.1787C177.912 18.6532 177.443 19.053 176.941 19.3683Z" fill="#381778"/>
    <path d="M7.226 103.609C3.38012 103.609 0.25 100.227 0.25 96.0711C0.25 91.9152 3.38012 88.5327 7.226 88.5327C11.0719 88.5327 14.202 91.9152 14.202 96.0711C14.2127 100.215 11.0719 103.609 7.226 103.609ZM7.226 91.6381C4.97189 91.6381 3.13441 93.6237 3.13441 96.0595C3.13441 98.4954 4.97189 100.481 7.226 100.481C9.48011 100.481 11.3176 98.4954 11.3176 96.0595C11.3176 93.6237 9.48011 91.6381 7.226 91.6381Z" fill="#C2B1FF"/>
    <path d="M22.8243 223.689C22.4077 223.689 22.0017 223.505 21.7133 223.135C21.2005 222.477 21.2753 221.485 21.8949 220.942L44.4894 200.451C45.6005 199.447 46.2735 198.038 46.4017 196.48C46.5299 194.921 46.0812 193.409 45.1518 192.208C44.2224 191.008 42.9191 190.281 41.4768 190.142C40.0346 190.004 38.6352 190.488 37.5241 191.493L14.9296 211.984C14.3207 212.538 13.4126 212.457 12.8998 211.787C12.387 211.129 12.4618 210.137 13.0814 209.594L35.676 189.092C37.3746 187.556 39.5219 186.817 41.7332 187.025C43.9446 187.233 45.9423 188.364 47.3632 190.188C48.784 192.024 49.4677 194.344 49.2754 196.734C49.0831 199.123 48.0362 201.282 46.3376 202.818L23.7431 223.32C23.476 223.574 23.1448 223.689 22.8243 223.689Z" fill="#8464C1"/>
    <path d="M113.191 243.754C108.416 243.754 104.527 239.436 104.527 234.126C104.527 228.816 108.416 224.498 113.191 224.498C113.992 224.498 114.633 225.202 114.633 226.057C114.633 226.922 113.982 227.615 113.191 227.615C110.008 227.615 107.412 230.536 107.412 234.114C107.412 237.705 110.008 240.614 113.191 240.614C113.992 240.614 114.633 241.318 114.633 242.172C114.633 243.026 113.992 243.754 113.191 243.754Z" fill="#381778"/>
</svg>
