<svg width="393" height="660" viewBox="0 0 393 660" fill="none" xmlns="http://www.w3.org/2000/svg">
    <path d="M9.01092 534.704C26.336 532.897 43.7544 531.33 61.4237 530.537C111.126 528.153 158.114 516.849 204.653 497.52C271.726 469.745 334.592 434.603 403.919 414.966L410.888 271.688C337.479 304.061 281.608 362.054 217.639 411.782C102.002 502.129 -43.5326 483.847 -180.876 510.749C-196.591 513.972 -211.702 518.275 -226.427 523.252L9.01092 534.704Z" fill="#CCA992" fill-opacity="0.83"/>
    <path d="M-166.472 352.378C-91.446 328.588 -17.2144 311.935 59.4133 295.548C127.023 280.584 183.959 245.921 245.204 208.548C299.981 175.754 355.184 139.369 419.216 140.907L431.388 31.5732L397.27 27.7751C373.855 57.3891 337.921 74.8781 301.635 84.6287C268.536 92.9938 236.331 100.668 204.203 114.757C195.819 117.831 188.757 123.479 180.193 128.168C137.648 149.14 100.311 166.683 57.7632 187.681C33.1222 199.414 11.057 209.798 -14.2624 213.413C-92.0352 225.638 -156.888 259.419 -227.882 290.091C-258.843 303.414 -290.987 308.643 -323.193 308.274L-329.073 361.092C-274.603 368.949 -219.729 369.626 -166.472 352.378Z" fill="#CCA992" fill-opacity="0.83"/>
    <path d="M-119.864 67.7976C-68.9431 46.7311 -15.0995 54.1725 37.0132 42.917C61.8861 37.1432 92.8981 35.1112 125.951 15.6932C141.553 6.52997 151.485 -6.97706 164.928 -18.5456L-251.819 -70.0104L-274.327 112.252C-268.236 112.529 -262.057 112.526 -255.784 112.191C-205.65 110.329 -164.732 85.5982 -119.864 67.7976Z" fill="#CCA992" fill-opacity="0.83"/>
</svg>
