<svg width="393" height="660" viewBox="0 0 393 660" fill="none" xmlns="http://www.w3.org/2000/svg">
<g clip-path="url(#clip0_766_4563)">
<path d="M219.382 1C200.426 3.9141 181.354 6.56852 161.966 8.38623C107.434 13.6662 56.3656 28.6118 6.22001 52.3574C-66.0554 86.4898 -133.31 128.499 -208.5 153.803V311.741C-129.502 272.213 -71.1623 205.449 -3.47443 147.34C118.86 41.7974 279.886 54.1174 429.486 17.1862C446.595 12.8007 462.983 7.26098 478.91 1L219.382 1Z" fill="#FFF4E0"/>
<path d="M406.634 105.129C327.434 140.3 248.234 167.565 166.38 194.831C94.22 219.442 36.14 264.308 -26.3256 312.664C-82.2705 355.222 -138.244 401.761 -208.5 407.877V529H-170.703C-148.689 493.742 -111.498 470.228 -72.98 455.138C-37.78 441.952 -3.47442 429.632 29.9656 410.301C38.7656 405.915 45.8056 398.875 54.6056 392.701C98.6056 364.57 137.326 340.824 181.326 312.664C206.86 296.824 229.74 282.773 257.006 275.733C340.62 252.882 407.471 208.016 481.42 165.805C513.677 147.455 548.213 137.818 583.5 134.298V75.7857C522.939 73.8237 462.81 79.7673 406.634 105.129Z" fill="#FFF4E0"/>
<path d="M420.714 396.221C367.914 426.112 308.074 425.246 252.649 444.578C226.249 454.243 192.635 460.648 159.138 486.327C143.327 498.445 134.296 514.545 121.168 529H583.5V326.802C576.806 327.321 570.055 328.158 563.245 329.37C508.714 338.17 467.34 370.715 420.714 396.221Z" fill="#FFF4E0"/>
</g>
<defs>
<clipPath id="clip0_766_4563">
<rect width="393" height="660" fill="white"/>
</clipPath>
</defs>
</svg>
