<svg width="227" height="169" viewBox="0 0 227 169" fill="none" xmlns="http://www.w3.org/2000/svg">
    <g clip-path="url(#clip0_530_5439)">
        <g opacity="0.64">
            <mask id="mask0_530_5439" style="mask-type:luminance" maskUnits="userSpaceOnUse" x="14" y="7" width="295" height="185">
                <path d="M181.409 18.7884C140.261 1.63948 83.4816 4.41241 69.3643 29.721C60.3873 45.7904 71.8972 66.7692 59.4809 80.6793C51.4351 89.6913 47.226 90.7823 37.3675 98.1237C28.9244 104.408 21.5863 110.556 17.6131 120.25C12.0879 133.706 14.4097 149.218 23.0515 161.06C30.4888 171.254 43.4142 176.527 55.4704 180.755C72.6049 186.755 91.3535 189.301 109.618 188.562C134.835 187.551 159.829 179.618 184.848 182.687C196.991 184.175 208.601 188.221 220.62 190.414C243.788 194.631 272.433 191.164 286.302 171.163C292.138 162.742 294.223 152.787 292.92 142.911C291.479 132.024 288.065 120.819 290.499 109.829C293.205 97.6237 302.915 87.7025 307.037 75.8494C314.09 55.5865 301.462 31.2553 279.908 23.5729C271.44 20.5499 262.189 19.9135 253.101 19.8681C228.814 19.7317 203.547 28.0164 181.409 18.7884Z" fill="white"/>
            </mask>
            <g mask="url(#mask0_530_5439)">
                <path d="M331.236 -8.38428H-2.82422V199.722H331.236V-8.38428Z" fill="#91BB43"/>
            </g>
            <mask id="mask1_530_5439" style="mask-type:luminance" maskUnits="userSpaceOnUse" x="14" y="7" width="295" height="185">
                <path d="M181.409 18.7884C140.261 1.63948 83.4816 4.41241 69.3643 29.721C60.3873 45.7904 71.8972 66.7692 59.4809 80.6793C51.4351 89.6913 47.226 90.7823 37.3675 98.1237C28.9244 104.408 21.5863 110.556 17.6131 120.25C12.0879 133.706 14.4097 149.218 23.0515 161.06C30.4888 171.254 43.4142 176.527 55.4704 180.755C72.6049 186.755 91.3535 189.301 109.618 188.562C134.835 187.551 159.829 179.618 184.848 182.687C196.991 184.175 208.601 188.221 220.62 190.414C243.788 194.631 272.433 191.164 286.302 171.163C292.138 162.742 294.223 152.787 292.92 142.911C291.479 132.024 288.065 120.819 290.499 109.829C293.205 97.6237 302.915 87.7025 307.037 75.8494C314.09 55.5865 301.462 31.2553 279.908 23.5729C271.44 20.5499 262.189 19.9135 253.101 19.8681C228.814 19.7317 203.547 28.0164 181.409 18.7884Z" fill="white"/>
            </mask>
            <g mask="url(#mask1_530_5439)">
                <path d="M89.8631 154.321C83.7171 168.526 79.4086 186.096 75.6465 199.722L279.274 202.87C284.377 187.073 286.227 164.708 282.912 148.434C281.919 143.57 280.081 138.797 278.206 134.285C257.111 149.957 227.237 161.071 199.474 164.367C162.71 168.81 123.784 167.685 89.8631 154.321Z" fill="#91BB43"/>
            </g>
            <mask id="mask2_530_5439" style="mask-type:luminance" maskUnits="userSpaceOnUse" x="15" y="8" width="257" height="179">
                <path d="M160.404 18.5275C124.549 1.93343 75.0722 4.61663 62.7707 29.1063C54.9484 44.6557 64.9779 64.9556 54.1586 78.4156C47.1477 87.136 43.48 88.1917 34.8895 95.2956C27.5324 101.377 21.1382 107.326 17.676 116.706C12.8615 129.726 14.8847 144.737 22.4149 156.195C28.8956 166.06 40.1585 171.162 50.664 175.253C65.5946 181.059 81.9316 183.522 97.8468 182.808C119.821 181.829 141.6 174.153 163.401 177.122C173.982 178.563 184.098 182.478 194.571 184.6C214.76 188.68 239.72 185.326 251.805 165.972C256.89 157.823 258.708 148.19 257.572 138.634C256.317 128.099 253.341 117.256 255.462 106.622C257.82 94.8117 266.281 85.2116 269.873 73.742C276.018 54.1349 265.015 30.5909 246.233 23.1571C238.854 20.232 230.794 19.6162 222.874 19.5722C201.712 19.4402 179.695 27.4568 160.404 18.5275Z" fill="white"/>
            </mask>
            <g mask="url(#mask2_530_5439)">
                <path d="M195.587 148.721C194.204 161.296 191.256 173.641 186.818 185.464C186.593 186.063 187.536 186.325 187.761 185.726C192.232 173.816 195.18 161.394 196.563 148.721C196.638 148.089 195.652 148.089 195.587 148.721Z" fill="#91BB43"/>
            </g>
        </g>
        <path d="M27.8388 80.5208C33.2713 78.6177 38.6933 73.6052 41.0557 70.1942C45.0728 64.3914 49.7351 55.1047 49.5894 47.8772C49.527 44.7054 48.0908 41.3776 45.2809 39.8904C42.8769 38.6217 39.9317 38.9025 37.3612 39.7553C30.0347 42.1679 24.7479 48.5531 20.7517 55.1463C17.9522 59.7741 15.5274 64.8281 15.2464 70.2254C15.0903 73.1996 15.6835 76.3715 17.6712 78.5969C20.4186 81.6751 24.1339 81.8207 27.8388 80.5208Z" fill="white"/>
        <path d="M80.3001 36.5214L76.9595 38.3413C74.9301 39.8596 75.2007 40.3483 74.7324 42.8442L73.5564 50.2589C73.5147 50.5085 73.1505 50.5085 73.1089 50.2589L71.9537 42.8858C71.4958 40.4003 71.5374 39.8596 69.5289 38.3413L66.3651 36.5214C66.2403 36.4278 66.2403 36.251 66.3651 36.1574L69.9451 34.4519C71.9433 32.9336 71.8288 31.9248 72.2867 29.4498L73.1089 22.4406C73.1505 22.191 73.5147 22.191 73.5564 22.4406L74.5242 29.6994C74.9717 32.1536 75.2215 33.1832 77.2092 34.7015L80.3105 36.147C80.425 36.251 80.425 36.4382 80.3001 36.5214Z" fill="white"/>
        <path d="M93.5587 54.2522L91.2379 55.521C89.8226 56.5713 90.0203 56.9145 89.6873 58.6512L88.8755 63.7989C88.8443 63.9757 88.5945 63.9653 88.5633 63.7989L87.762 58.6824C87.4394 56.9561 87.481 56.5817 86.076 55.521L83.8906 54.2522C83.8073 54.1898 83.8073 54.0651 83.8906 54.0027L86.3778 52.8171C87.762 51.7564 87.6891 51.0596 88.0013 49.3437L88.5737 44.4768C88.6049 44.3 88.8547 44.3 88.8859 44.4768L89.552 49.5205C89.8642 51.226 90.0411 51.9332 91.4148 52.9939L93.5691 54.0027C93.6419 54.0651 93.6419 54.1898 93.5587 54.2522Z" fill="white"/>
        <path d="M49.079 62.4366L44.885 64.7141C42.3353 66.6172 42.6787 67.2307 42.0959 70.3609L40.6286 79.658C40.5661 79.97 40.129 79.97 40.0666 79.658L38.62 70.4233C38.0476 67.3139 38.0997 66.6276 35.5812 64.7245L31.6161 62.447C31.46 62.3326 31.46 62.1038 31.6161 61.9894L36.1015 59.8472C38.6096 57.9441 38.4639 56.6754 39.0363 53.5867L40.0666 44.8097C40.129 44.4977 40.5661 44.4977 40.6286 44.8097L41.8358 53.9091C42.3977 56.9873 42.7099 58.2665 45.1972 60.1799L49.0894 61.9998C49.2351 62.0934 49.2351 62.3222 49.079 62.4366Z" fill="black"/>
        <path d="M126.08 60.8766C119.129 56.4569 116.87 46.4943 121.22 39.3915C125.57 32.2887 135.853 29.1169 143.418 32.5591C146.436 33.9318 149.184 36.2301 152.566 36.2509C155.896 36.2717 158.79 34.0566 161.818 32.6215C167.625 29.8761 175.118 30.1361 179.728 34.2438C181.997 36.2613 183.496 39.0691 186.056 40.7434C189.345 42.8961 193.757 42.7817 197.764 42.0849C201.77 41.3882 205.777 40.1922 209.805 40.473C213.822 40.7538 217.652 42.5633 220.274 45.4335C223.844 49.3333 225.457 55.2089 230.431 57.2992C232.44 58.1416 234.719 58.2144 236.925 58.4639C245.688 59.4415 254.419 63.9652 257.77 71.7128C261.236 79.7203 260.757 94.061 251.922 96.1617C232.18 100.841 250.715 111.636 229.297 119.643C225.072 121.224 218.807 111.314 215.029 109.119C212.646 107.736 211.137 105.334 209.035 103.587C205.975 101.018 201.604 99.9367 197.524 100.727C187.367 102.713 180.728 115.026 170.445 114.621C168.083 114.527 165.408 113.237 165.325 110.97C165.284 109.93 165.804 108.943 166.324 108.017C168.759 103.68 171.58 99.2711 171.84 94.4146C172.09 89.6309 164.399 91.3676 160.267 88.8093C155.98 86.1575 146.208 94.4666 143.013 90.65C141.191 88.4765 138.548 81.2594 137.133 78.8155C134.198 73.7302 138.579 60.0655 132.585 61.5838L126.08 60.8766Z" fill="#161513"/>
        <path d="M120.305 50.9038C118.494 49.6662 115.788 50.4358 113.946 51.2886C111.708 52.3285 110.72 54.2524 111.271 56.6754C111.625 58.2249 112.499 59.7432 112.187 61.3759C111.76 63.6326 109.637 62.9359 108.056 63.6534C107.223 64.0278 106.671 64.7245 106.349 65.5565C106.089 66.2221 105.631 67.9692 105.933 68.5411C105.641 68.0004 104.819 68.4787 105.11 69.0195C105.35 69.4771 105.88 69.7994 106.401 69.5395C107.119 69.1859 106.828 68.1875 106.89 67.5324C106.963 66.7836 107.109 65.9413 107.535 65.3069C108.17 64.371 109.169 64.371 110.168 64.215C111.136 64.059 112.01 63.8094 112.593 62.9775C114.081 60.8352 112.51 58.3601 112.125 56.1763C111.76 54.086 112.936 52.7341 114.768 51.9957C116.267 51.3925 118.4 50.7686 119.826 51.7461C120.336 52.0685 120.815 51.247 120.305 50.9038Z" fill="#161513"/>
        <path d="M119.857 49.8221C117.338 48.8966 114.705 47.2951 111.937 48.231C111.053 48.5326 110.22 49.0942 109.741 49.9053C109.45 50.4045 109.325 50.9661 109.242 51.5276C109.179 51.902 109.231 52.63 109.002 52.9523C108.44 53.2955 107.868 53.6283 107.306 53.9715C107.15 53.8675 106.983 53.8051 106.806 53.7843C104.611 53.7115 103.601 55.2714 103.018 57.2161C102.633 58.516 102.446 59.9407 101.603 61.0431C100.479 62.5094 98.5329 62.9357 96.8366 62.3222C96.5764 62.2286 96.3474 62.4366 96.2538 62.655C96.0352 63.1853 96.0873 63.5493 96.4203 64.0173C96.7741 64.506 97.6067 64.0381 97.2424 63.5389C97.2216 63.3309 97.2008 63.1229 97.18 62.9149C96.9823 63.0293 96.7845 63.1333 96.5972 63.2477C98.6162 63.9653 100.989 63.4037 102.342 61.6878C103.757 59.8887 103.372 55.9786 105.568 54.9698C106.786 54.4083 107.899 55.5834 109.086 54.6058C110.001 53.8467 110.001 52.6716 110.22 51.6108C111.219 46.8271 116.828 49.7389 119.617 50.7581C120.19 50.9453 120.429 50.0301 119.857 49.8221Z" fill="#161513"/>
        <path d="M145.084 108.454C146.26 115.536 153.191 117.356 159.477 117.054C167.439 116.68 175.119 113.986 181.686 109.525C184.829 107.393 187.711 104.897 190.376 102.193C191.25 101.309 197.338 93.1771 197.889 93.2811C189.21 91.6276 180.177 91.378 171.591 91.3884C163.203 91.3988 155.606 91.2844 148.487 91.586C145.511 96.6609 144.085 102.381 145.084 108.454Z" fill="#E3E3E3"/>
        <path d="M213.416 98.2518C208.504 95.8703 203.259 94.3104 197.889 93.2913C197.327 93.1873 190.729 101.871 189.772 102.807C186.743 105.802 183.434 108.516 179.802 110.752C172.725 115.109 162.922 117.397 154.867 116.617C142.951 115.452 143.461 100.165 148.487 91.5962C135.999 92.1266 125.009 93.9464 113.957 100.02C100.698 107.31 90.3016 119.643 82.871 133.443C81.4765 136.043 80.1756 138.882 78.958 141.888C107.973 154.117 141.254 155.147 172.694 151.081C196.442 148.065 217.506 137.894 235.552 123.553C231.379 112.801 224.427 103.576 213.416 98.2518Z" fill="#8C6CC9"/>
        <path d="M178.158 92.6467L136.686 55.001C131.399 57.0913 125.488 55.7913 121.263 52.1724C118.526 62.4053 116.257 79.7203 126.976 92.0748L135.781 81.9874C135.781 81.9874 140.412 93.4267 144.991 104.668C149.279 115.193 162.797 118.125 171.071 110.346C171.175 110.242 171.289 110.138 171.393 110.034C178.241 103.556 185.141 98.9799 178.158 92.6467Z" fill="#E3E3E3"/>
        <path d="M136.686 55.0009L124.156 43.624C124.156 43.624 122.658 46.9934 121.273 52.1723C125.488 55.7913 131.399 57.0912 136.686 55.0009Z" fill="#E3E3E3"/>
        <path d="M151.068 56.6127C150.652 60.398 147.239 63.1331 143.451 62.7171C139.662 62.3011 136.925 58.8901 137.342 55.1047C137.758 51.3194 141.171 48.5843 144.96 49.0003C148.748 49.4163 151.485 52.8273 151.068 56.6127Z" fill="#E3E3E3"/>
        <path d="M143.118 58.9525C144.201 56.6647 145.293 54.3768 146.417 52.1201C146.688 51.569 145.866 51.0906 145.595 51.6418C144.471 53.9088 143.378 56.1967 142.296 58.4741C142.026 59.0253 142.848 59.5037 143.118 58.9525Z" fill="#161513"/>
        <path d="M135.78 81.9975L145.303 105.094L141.743 74.1147L135.78 81.9975Z" fill="#161513"/>
        <path d="M119.639 59.6595C118.359 63.9337 117.349 68.5094 116.933 72.9603C116.902 73.3347 117.36 73.5323 117.651 73.3659C119.202 72.5236 120.753 71.6916 122.303 70.8493C122.844 70.5581 122.366 69.7365 121.824 70.0277C120.274 70.8701 118.723 71.702 117.173 72.5444C117.412 72.6796 117.651 72.8148 117.891 72.9603C118.296 68.603 119.306 64.1001 120.565 59.9195C120.732 59.3268 119.816 59.0668 119.639 59.6595Z" fill="#161513"/>
        <path d="M127.476 63.3307C128.985 61.6044 131.077 60.6997 133.377 60.8037C133.991 60.8349 133.991 59.8781 133.377 59.8573C130.848 59.7429 128.475 60.7621 126.81 62.6652C126.404 63.1123 127.07 63.7883 127.476 63.3307Z" fill="#161513"/>
        <path d="M125.238 76.7668C127.611 78.1915 130.535 75.8101 129.453 73.1998C129.224 72.6383 128.298 72.8879 128.537 73.4494C129.276 75.2485 127.434 76.9748 125.717 75.9349C125.197 75.6229 124.718 76.4444 125.238 76.7668Z" fill="#161513"/>
        <path d="M126.872 60.5543C127.101 61.095 127.33 61.6358 127.57 62.1766C127.674 62.4158 128.017 62.4678 128.225 62.343C128.475 62.2078 128.496 61.927 128.392 61.6878C128.163 61.147 127.934 60.6063 127.695 60.0655C127.591 59.8263 127.247 59.7743 127.039 59.8991C126.789 60.0343 126.768 60.3151 126.872 60.5543Z" fill="#161513"/>
        <path d="M130.837 60.2736C130.629 59.6288 130.41 58.984 130.202 58.3393C130.015 57.7569 129.089 58.0065 129.286 58.5889C129.494 59.2336 129.713 59.8784 129.921 60.5231C130.108 61.1055 131.024 60.8559 130.837 60.2736Z" fill="#161513"/>
        <path d="M133.043 60.1385C132.96 59.7017 133.074 59.2337 133.366 58.8906C133.761 58.4226 133.085 57.7466 132.689 58.2146C132.169 58.8386 131.971 59.5873 132.127 60.3881C132.242 60.9912 133.157 60.7417 133.043 60.1385Z" fill="#161513"/>
        <path d="M126.269 52.141C127.747 51.5691 129.339 51.9538 130.369 53.1602C130.765 53.6281 131.441 52.9522 131.046 52.4842C129.807 51.0491 127.788 50.5291 126.019 51.2155C125.457 51.4443 125.696 52.3594 126.269 52.141Z" fill="#161513"/>
        <path d="M133.626 128.545C128.371 133.142 119.233 138.477 113.145 142.044C115.133 142.2 119.368 143.531 118.463 145.195C117.558 146.858 115.632 147.794 113.842 148.616C110.72 150.041 107.598 151.476 104.476 152.9C103.092 153.535 101.645 154.18 100.105 154.211C98.5649 154.242 96.8998 153.462 96.4939 152.079C96.2337 151.216 99.0436 148.023 98.2735 147.493C97.5346 146.983 93.8818 149.489 93.07 149.905C84.6716 154.284 76.2627 158.672 67.8643 163.05C67.0005 163.497 66.0639 163.965 65.096 163.841C64.0553 163.705 63.2644 162.946 62.5567 162.218C49.8706 149.188 37.1845 136.147 24.5088 123.117C31.4711 117.262 39.6197 112.644 48.3824 109.608C53.6692 107.767 59.2577 106.467 64.0033 103.607L133.626 128.545Z" fill="#ACA9A5"/>
        <path d="M134.552 127.162C125.258 130.521 116.662 135.669 109.44 142.221C111.167 142.044 112.947 142.377 114.477 143.167C111.906 145.08 109.18 146.786 106.318 148.263C104.476 149.219 102.311 150.093 100.344 149.417C98.3771 148.741 97.4613 145.715 99.2929 144.737C88.1991 148.772 77.1157 152.807 66.0218 156.853C65.3558 157.092 64.6377 157.341 63.9404 157.175C63.2431 156.998 62.7332 156.437 62.2753 155.906C49.4018 140.879 37.9437 124.032 20.8555 113.56C23.9359 112.374 27.0268 111.199 30.1073 110.014C25.4554 106.551 34.8841 105.199 29.5869 102.724C43.959 100.852 58.8618 99.2192 74.67 104.461C74.67 104.461 84.8376 84.4625 99.3554 81.6963L134.552 127.162Z" fill="white"/>
        <path d="M93.0176 75.1445C84.0259 81.3634 69.2272 91.7003 63.6699 100.394C48.5901 98.3143 33.0213 98.3663 17.7646 100.571C35.8416 113.497 51.8996 128.504 65.4391 145.101C65.8033 145.548 66.1988 146.016 66.7816 146.245C67.6245 146.578 68.634 146.307 69.5394 146.058C81.3513 142.772 93.7044 141.732 105.943 140.713C114.362 131.644 125.05 124.136 136.998 118.905L93.0176 75.1445Z" fill="white"/>
        <mask id="mask3_530_5439" style="mask-type:luminance" maskUnits="userSpaceOnUse" x="17" y="75" width="120" height="72">
            <path d="M93.0176 75.1445C84.0259 81.3634 69.2272 91.7003 63.6699 100.394C48.5901 98.3143 33.0213 98.3663 17.7646 100.571C35.8416 113.497 51.8996 128.504 65.4391 145.101C65.8033 145.548 66.1988 146.016 66.7816 146.245C67.6245 146.578 68.634 146.307 69.5394 146.058C81.3513 142.772 93.7044 141.732 105.943 140.713C114.362 131.644 125.05 124.136 136.998 118.905L93.0176 75.1445Z" fill="white"/>
        </mask>
        <g mask="url(#mask3_530_5439)">
            <path d="M39.8481 111.792C48.028 108.932 56.645 107.747 65.2932 108.287C65.9072 108.329 65.9072 107.372 65.2932 107.331C56.5721 106.779 47.851 107.986 39.5983 110.866C39.0155 111.074 39.2653 111.99 39.8481 111.792Z" fill="#E3E3E3"/>
        </g>
        <mask id="mask4_530_5439" style="mask-type:luminance" maskUnits="userSpaceOnUse" x="17" y="75" width="120" height="72">
            <path d="M93.0176 75.1445C84.0259 81.3634 69.2272 91.7003 63.6699 100.394C48.5901 98.3143 33.0213 98.3663 17.7646 100.571C35.8416 113.497 51.8996 128.504 65.4391 145.101C65.8033 145.548 66.1988 146.016 66.7816 146.245C67.6245 146.578 68.634 146.307 69.5394 146.058C81.3513 142.772 93.7044 141.732 105.943 140.713C114.362 131.644 125.05 124.136 136.998 118.905L93.0176 75.1445Z" fill="white"/>
        </mask>
        <g mask="url(#mask4_530_5439)">
            <path d="M43.4695 115.39C51.2435 112.374 59.642 111.418 67.9259 111.116C68.5399 111.095 68.5399 110.138 67.9259 110.17C59.5691 110.482 51.0666 111.438 43.2197 114.485C42.6474 114.693 42.8971 115.609 43.4695 115.39Z" fill="#E3E3E3"/>
        </g>
        <mask id="mask5_530_5439" style="mask-type:luminance" maskUnits="userSpaceOnUse" x="17" y="75" width="120" height="72">
            <path d="M93.0176 75.1445C84.0259 81.3634 69.2272 91.7003 63.6699 100.394C48.5901 98.3143 33.0213 98.3663 17.7646 100.571C35.8416 113.497 51.8996 128.504 65.4391 145.101C65.8033 145.548 66.1988 146.016 66.7816 146.245C67.6245 146.578 68.634 146.307 69.5394 146.058C81.3513 142.772 93.7044 141.732 105.943 140.713C114.362 131.644 125.05 124.136 136.998 118.905L93.0176 75.1445Z" fill="white"/>
        </mask>
        <g mask="url(#mask5_530_5439)">
            <path d="M49.1419 118.77C56.5621 115.598 64.6587 114.891 72.6096 114.246C73.2132 114.194 73.2236 113.248 72.6096 113.289C64.4714 113.955 56.2498 114.693 48.6631 117.948C48.1012 118.188 48.5903 119.009 49.1419 118.77Z" fill="#E3E3E3"/>
        </g>
        <mask id="mask6_530_5439" style="mask-type:luminance" maskUnits="userSpaceOnUse" x="17" y="75" width="120" height="72">
            <path d="M93.0176 75.1445C84.0259 81.3634 69.2272 91.7003 63.6699 100.394C48.5901 98.3143 33.0213 98.3663 17.7646 100.571C35.8416 113.497 51.8996 128.504 65.4391 145.101C65.8033 145.548 66.1988 146.016 66.7816 146.245C67.6245 146.578 68.634 146.307 69.5394 146.058C81.3513 142.772 93.7044 141.732 105.943 140.713C114.362 131.644 125.05 124.136 136.998 118.905L93.0176 75.1445Z" fill="white"/>
        </mask>
        <g mask="url(#mask6_530_5439)">
            <path d="M53.9396 123.938C61.5783 121.099 69.5397 119.3 77.6571 118.593C78.2607 118.541 78.2711 117.584 77.6571 117.636C69.4564 118.354 61.4014 120.143 53.6794 123.013C53.1174 123.231 53.3672 124.146 53.9396 123.938Z" fill="#E3E3E3"/>
        </g>
        <mask id="mask7_530_5439" style="mask-type:luminance" maskUnits="userSpaceOnUse" x="17" y="75" width="120" height="72">
            <path d="M93.0176 75.1445C84.0259 81.3634 69.2272 91.7003 63.6699 100.394C48.5901 98.3143 33.0213 98.3663 17.7646 100.571C35.8416 113.497 51.8996 128.504 65.4391 145.101C65.8033 145.548 66.1988 146.016 66.7816 146.245C67.6245 146.578 68.634 146.307 69.5394 146.058C81.3513 142.772 93.7044 141.732 105.943 140.713C114.362 131.644 125.05 124.136 136.998 118.905L93.0176 75.1445Z" fill="white"/>
        </mask>
        <g mask="url(#mask7_530_5439)">
            <path d="M59.3513 128.514C65.991 126.071 72.7347 123.637 79.8947 123.419C80.5088 123.398 80.5088 122.452 79.8947 122.462C72.6515 122.68 65.8245 125.114 59.1016 127.589C58.5292 127.807 58.779 128.733 59.3513 128.514Z" fill="#E3E3E3"/>
        </g>
        <mask id="mask8_530_5439" style="mask-type:luminance" maskUnits="userSpaceOnUse" x="17" y="75" width="120" height="72">
            <path d="M93.0176 75.1445C84.0259 81.3634 69.2272 91.7003 63.6699 100.394C48.5901 98.3143 33.0213 98.3663 17.7646 100.571C35.8416 113.497 51.8996 128.504 65.4391 145.101C65.8033 145.548 66.1988 146.016 66.7816 146.245C67.6245 146.578 68.634 146.307 69.5394 146.058C81.3513 142.772 93.7044 141.732 105.943 140.713C114.362 131.644 125.05 124.136 136.998 118.905L93.0176 75.1445Z" fill="white"/>
        </mask>
        <g mask="url(#mask8_530_5439)">
            <path d="M64.0656 132.965C66.5321 131.072 70.4139 130.896 73.3695 130.282C76.9703 129.533 80.644 128.556 84.328 129.211C84.9316 129.315 85.1814 128.4 84.5778 128.296C80.9041 127.641 77.3137 128.493 73.7233 129.242C71.798 129.637 69.8623 130.033 67.937 130.438C66.3656 130.771 64.8774 131.145 63.5869 132.144C63.1082 132.518 63.5765 133.34 64.0656 132.965Z" fill="#E3E3E3"/>
        </g>
        <mask id="mask9_530_5439" style="mask-type:luminance" maskUnits="userSpaceOnUse" x="17" y="75" width="120" height="72">
            <path d="M93.0176 75.1445C84.0259 81.3634 69.2272 91.7003 63.6699 100.394C48.5901 98.3143 33.0213 98.3663 17.7646 100.571C35.8416 113.497 51.8996 128.504 65.4391 145.101C65.8033 145.548 66.1988 146.016 66.7816 146.245C67.6245 146.578 68.634 146.307 69.5394 146.058C81.3513 142.772 93.7044 141.732 105.943 140.713C114.362 131.644 125.05 124.136 136.998 118.905L93.0176 75.1445Z" fill="white"/>
        </mask>
        <g mask="url(#mask9_530_5439)">
            <path d="M67.635 138.03C74.8262 134.286 82.9124 133.194 90.8426 132.175C91.4462 132.102 91.4462 131.146 90.8426 131.218C82.7251 132.258 74.4932 133.381 67.1458 137.208C66.6151 137.489 67.0938 138.311 67.635 138.03Z" fill="#E3E3E3"/>
        </g>
        <mask id="mask10_530_5439" style="mask-type:luminance" maskUnits="userSpaceOnUse" x="17" y="75" width="120" height="72">
            <path d="M93.0176 75.1445C84.0259 81.3634 69.2272 91.7003 63.6699 100.394C48.5901 98.3143 33.0213 98.3663 17.7646 100.571C35.8416 113.497 51.8996 128.504 65.4391 145.101C65.8033 145.548 66.1988 146.016 66.7816 146.245C67.6245 146.578 68.634 146.307 69.5394 146.058C81.3513 142.772 93.7044 141.732 105.943 140.713C114.362 131.644 125.05 124.136 136.998 118.905L93.0176 75.1445Z" fill="white"/>
        </mask>
        <g mask="url(#mask10_530_5439)">
            <path d="M75.6587 103.098C81.6948 96.6714 88.1159 89.9638 96.7953 87.3327C97.3781 87.1559 97.1283 86.2408 96.5455 86.4176C87.6996 89.1006 81.1432 95.881 74.9823 102.433C74.566 102.869 75.232 103.545 75.6587 103.098Z" fill="#E3E3E3"/>
        </g>
        <mask id="mask11_530_5439" style="mask-type:luminance" maskUnits="userSpaceOnUse" x="17" y="75" width="120" height="72">
            <path d="M93.0176 75.1445C84.0259 81.3634 69.2272 91.7003 63.6699 100.394C48.5901 98.3143 33.0213 98.3663 17.7646 100.571C35.8416 113.497 51.8996 128.504 65.4391 145.101C65.8033 145.548 66.1988 146.016 66.7816 146.245C67.6245 146.578 68.634 146.307 69.5394 146.058C81.3513 142.772 93.7044 141.732 105.943 140.713C114.362 131.644 125.05 124.136 136.998 118.905L93.0176 75.1445Z" fill="white"/>
        </mask>
        <g mask="url(#mask11_530_5439)">
            <path d="M79.9878 106.031C84.7855 99.2193 92.4866 95.4859 99.8131 92.0021C100.365 91.7421 99.886 90.9206 99.3344 91.1806C91.831 94.7476 84.0778 98.5849 79.1657 105.542C78.8118 106.052 79.634 106.53 79.9878 106.031Z" fill="#E3E3E3"/>
        </g>
        <mask id="mask12_530_5439" style="mask-type:luminance" maskUnits="userSpaceOnUse" x="17" y="75" width="120" height="72">
            <path d="M93.0176 75.1445C84.0259 81.3634 69.2272 91.7003 63.6699 100.394C48.5901 98.3143 33.0213 98.3663 17.7646 100.571C35.8416 113.497 51.8996 128.504 65.4391 145.101C65.8033 145.548 66.1988 146.016 66.7816 146.245C67.6245 146.578 68.634 146.307 69.5394 146.058C81.3513 142.772 93.7044 141.732 105.943 140.713C114.362 131.644 125.05 124.136 136.998 118.905L93.0176 75.1445Z" fill="white"/>
        </mask>
        <g mask="url(#mask12_530_5439)">
            <path d="M84.598 109.442C86.6377 106.114 89.7598 103.784 93.0172 101.736C96.4411 99.5935 100 97.6904 103.674 95.9953C104.226 95.7353 103.747 94.9138 103.195 95.1737C99.2198 97.0144 95.338 99.0943 91.6539 101.476C88.5734 103.472 85.7115 105.792 83.7758 108.963C83.4532 109.494 84.2754 109.972 84.598 109.442Z" fill="#E3E3E3"/>
        </g>
        <mask id="mask13_530_5439" style="mask-type:luminance" maskUnits="userSpaceOnUse" x="17" y="75" width="120" height="72">
            <path d="M93.0176 75.1445C84.0259 81.3634 69.2272 91.7003 63.6699 100.394C48.5901 98.3143 33.0213 98.3663 17.7646 100.571C35.8416 113.497 51.8996 128.504 65.4391 145.101C65.8033 145.548 66.1988 146.016 66.7816 146.245C67.6245 146.578 68.634 146.307 69.5394 146.058C81.3513 142.772 93.7044 141.732 105.943 140.713C114.362 131.644 125.05 124.136 136.998 118.905L93.0176 75.1445Z" fill="white"/>
        </mask>
        <g mask="url(#mask13_530_5439)">
            <path d="M88.0736 113.019C94.6092 107.789 101.832 103.494 109.543 100.218C110.105 99.9786 109.616 99.157 109.065 99.3962C101.27 102.703 94.0056 107.061 87.3972 112.343C86.9184 112.728 87.5949 113.404 88.0736 113.019Z" fill="#E3E3E3"/>
        </g>
        <mask id="mask14_530_5439" style="mask-type:luminance" maskUnits="userSpaceOnUse" x="17" y="75" width="120" height="72">
            <path d="M93.0176 75.1445C84.0259 81.3634 69.2272 91.7003 63.6699 100.394C48.5901 98.3143 33.0213 98.3663 17.7646 100.571C35.8416 113.497 51.8996 128.504 65.4391 145.101C65.8033 145.548 66.1988 146.016 66.7816 146.245C67.6245 146.578 68.634 146.307 69.5394 146.058C81.3513 142.772 93.7044 141.732 105.943 140.713C114.362 131.644 125.05 124.136 136.998 118.905L93.0176 75.1445Z" fill="white"/>
        </mask>
        <g mask="url(#mask14_530_5439)">
            <path d="M92.2369 117.408C98.3562 113.05 104.663 108.641 112.114 106.967C112.707 106.832 112.458 105.916 111.865 106.052C104.33 107.747 97.9504 112.187 91.7582 116.586C91.2587 116.94 91.727 117.761 92.2369 117.408Z" fill="#E3E3E3"/>
        </g>
        <mask id="mask15_530_5439" style="mask-type:luminance" maskUnits="userSpaceOnUse" x="17" y="75" width="120" height="72">
            <path d="M93.0176 75.1445C84.0259 81.3634 69.2272 91.7003 63.6699 100.394C48.5901 98.3143 33.0213 98.3663 17.7646 100.571C35.8416 113.497 51.8996 128.504 65.4391 145.101C65.8033 145.548 66.1988 146.016 66.7816 146.245C67.6245 146.578 68.634 146.307 69.5394 146.058C81.3513 142.772 93.7044 141.732 105.943 140.713C114.362 131.644 125.05 124.136 136.998 118.905L93.0176 75.1445Z" fill="white"/>
        </mask>
        <g mask="url(#mask15_530_5439)">
            <path d="M98.5956 121.796C104.767 117.106 111.698 113.57 119.118 111.334C119.701 111.157 119.451 110.242 118.868 110.419C111.365 112.676 104.351 116.232 98.1169 120.974C97.6278 121.338 98.1065 122.17 98.5956 121.796Z" fill="#E3E3E3"/>
        </g>
        <mask id="mask16_530_5439" style="mask-type:luminance" maskUnits="userSpaceOnUse" x="17" y="75" width="120" height="72">
            <path d="M93.0176 75.1445C84.0259 81.3634 69.2272 91.7003 63.6699 100.394C48.5901 98.3143 33.0213 98.3663 17.7646 100.571C35.8416 113.497 51.8996 128.504 65.4391 145.101C65.8033 145.548 66.1988 146.016 66.7816 146.245C67.6245 146.578 68.634 146.307 69.5394 146.058C81.3513 142.772 93.7044 141.732 105.943 140.713C114.362 131.644 125.05 124.136 136.998 118.905L93.0176 75.1445Z" fill="white"/>
        </mask>
        <g mask="url(#mask16_530_5439)">
            <path d="M32.3552 106.145C39.0781 105.168 45.853 104.554 52.6384 104.304C55.7397 104.19 58.8514 104.159 61.9631 104.2C64.263 104.232 67.0417 104.949 68.8317 103.15C70.9131 101.06 72.8071 98.7615 74.8885 96.6713C76.8763 94.6746 78.9264 92.7507 81.0391 90.8788C85.6494 86.8023 90.5407 83.0585 95.6609 79.6371C96.1708 79.2939 95.6921 78.4724 95.1822 78.8155C85.6285 85.2008 76.8659 92.7507 69.1959 101.32C68.7692 101.798 68.3634 102.391 67.8534 102.786C66.9792 103.472 66.0842 103.348 65.0747 103.316C63.6282 103.275 62.1712 103.244 60.7246 103.233C57.4152 103.212 54.0954 103.275 50.786 103.42C44.5314 103.712 38.308 104.315 32.1054 105.22C31.5018 105.313 31.762 106.228 32.3552 106.145Z" fill="#ACA9A5"/>
        </g>
        <path d="M109.086 143.947C107.618 144.373 106.151 144.841 104.673 145.236C104.517 145.278 103.84 145.558 103.695 145.465C103.279 145.163 103.788 144.675 103.955 144.508C104.496 143.947 105.797 143.811 106.536 143.77C106.994 143.739 106.994 143.031 106.536 143.052C105.61 143.104 101.447 144.051 102.477 145.714C102.821 146.276 103.674 146.214 104.226 146.11C105.922 145.766 107.608 145.132 109.273 144.643C109.71 144.508 109.523 143.822 109.086 143.947Z" fill="#161513"/>
        <path d="M93.0903 144.3C84.0362 145.891 75.2631 148.699 66.9687 152.661C67.1561 152.682 67.3538 152.713 67.5411 152.734C55.521 140.109 42.8974 128.077 29.7117 116.68C29.2538 116.284 28.5774 116.95 29.0353 117.355C42.2209 128.753 54.8446 140.785 66.8647 153.41C67.0208 153.576 67.2497 153.576 67.437 153.483C75.6586 149.552 84.3588 146.796 93.3296 145.215C93.954 145.111 93.6939 144.196 93.0903 144.3Z" fill="#161513"/>
        <path d="M102.301 136.823C91.8418 123.46 79.2077 111.927 65.0646 102.557C64.6795 102.308 64.3257 102.921 64.7003 103.171C78.7914 112.509 91.3734 124.011 101.801 137.322C102.072 137.697 102.582 137.187 102.301 136.823Z" fill="#161513"/>
        <path d="M28.9622 110.086C42.4393 121.068 55.4168 132.632 67.8843 144.748C68.3214 145.174 68.9979 144.498 68.5608 144.072C56.1036 131.956 43.1157 120.392 29.6387 109.41C29.1703 109.026 28.4835 109.702 28.9622 110.086Z" fill="#161513"/>
        <path d="M68.8116 144.945C72.6414 144.384 76.4815 143.957 80.3425 143.656C80.9461 143.604 80.9565 142.657 80.3425 142.699C76.3983 143.001 72.4749 143.448 68.5514 144.02C67.9582 144.124 68.208 145.039 68.8116 144.945Z" fill="#161513"/>
        <path d="M122.292 40.91C120.419 38.2062 123.833 34.5664 125.695 32.7881C127.746 30.833 130.212 29.3147 132.855 28.306C137.83 26.4029 143.46 26.2573 148.435 28.254C151.37 29.4291 153.992 30.8746 157.239 30.0115C159.997 29.2731 162.526 27.63 164.94 26.1637C169.967 23.1063 175.097 20.2361 181.165 21.7544C190.531 24.1046 197.181 33.1417 207.13 33.8073C213.27 34.2232 219.993 29.7723 225.759 33.2873C229.953 35.8351 231.847 40.8372 235.729 43.7699C240.068 47.0353 246.968 46.5569 250.361 42.0852C251.641 40.4005 252.473 37.5718 250.579 35.9807C249.216 34.8368 246.906 34.816 246.021 36.5215C245.74 37.0623 246.562 37.551 246.843 36.9999C247.561 35.6167 249.653 35.9807 250.392 37.1766C251.495 38.9341 250.017 41.2844 248.716 42.4595C246.51 44.4666 243.326 45.3194 240.401 44.8098C235.208 43.8946 232.7 38.8613 229.484 35.284C228.1 33.7345 226.477 32.3513 224.499 31.613C221.866 30.6354 219.046 30.9682 216.361 31.509C213.312 32.1226 210.273 33.0585 207.12 32.8401C204.653 32.6737 202.281 31.873 200.064 30.8122C192.248 27.0789 184.932 19.2065 175.555 20.4441C170.092 21.1616 165.69 24.8222 160.986 27.3492C159.549 28.1188 158.051 28.8779 156.438 29.2107C154.367 29.6371 152.483 28.9715 150.61 28.1604C148.362 27.1828 146.156 26.3613 143.7 26.0389C138.402 25.3422 132.876 26.6317 128.37 29.4915C125.258 31.4674 118.504 37.135 121.449 41.3884C121.824 41.8876 122.646 41.4092 122.292 40.91Z" fill="#161513"/>
        <path d="M176.7 86.0122C182.32 88.3313 185.952 93.3334 187.003 99.2194C187.43 101.611 187.825 104.294 189.886 105.885C191.655 107.258 193.976 107.31 196.109 107.341C199.283 107.393 202.166 107.705 204.404 110.232C206.495 112.583 207.12 115.505 207.297 118.552C207.432 120.944 207.588 123.658 209.514 125.363C210.887 126.58 212.823 127.059 214.623 126.83C216.757 126.559 218.786 125.207 219.4 123.065C220.014 120.923 218.526 118.552 216.132 119.134C215.539 119.28 215.789 120.195 216.382 120.049C219.265 119.342 218.703 123.232 217.485 124.48C216.642 125.343 215.456 125.821 214.259 125.915C211.97 126.112 209.805 124.989 208.931 122.826C207.963 120.434 208.421 117.73 207.9 115.245C207.495 113.3 206.641 111.428 205.372 109.889C204.081 108.319 202.353 107.154 200.355 106.707C198.212 106.229 196.005 106.499 193.841 106.291C190.875 105.989 189.126 104.326 188.419 101.466C187.857 99.1986 187.669 96.9212 186.764 94.7581C184.922 90.3592 181.363 86.9066 176.971 85.0867C176.388 84.8579 176.138 85.7731 176.7 86.0122Z" fill="#161513"/>
        <path d="M185.077 148.044C186.597 150.623 187.565 153.369 188.012 156.322C188.106 156.925 189.022 156.665 188.928 156.073C188.47 153.046 187.45 150.207 185.9 147.576C185.587 147.036 184.765 147.514 185.077 148.044Z" fill="#161513"/>
        <path d="M47.6537 98.0232C45.4475 96.0785 46.4674 92.0332 48.9338 90.5461C51.4107 89.0589 54.5744 89.4853 57.3323 90.3901C54.7825 89.0901 54.0645 85.2008 55.7712 82.9025C57.4779 80.6042 60.9955 80.1779 63.4099 81.7378C61.6928 80.729 61.3285 77.9524 62.7231 76.5589C64.0135 75.259 66.0949 75.3526 67.8953 75.6853C73.3174 76.7045 78.4792 79.2419 82.6733 82.9545C83.0375 83.2769 83.4226 83.7137 83.2977 84.1816C83.204 84.5144 82.871 84.712 82.5692 84.8576C78.2503 86.9167 72.9219 86.6255 68.7695 84.1088C71.1839 84.9616 73.5776 85.8663 75.9608 86.8023C77.8132 87.5302 80.0507 89.2045 79.2598 91.0452C78.8331 92.0436 77.6779 92.4283 76.6476 92.6883C71.0487 94.061 65.1895 94.373 59.4553 93.6139C63.847 94.3626 68.1555 95.7353 72.1934 97.7008C72.8491 98.0232 73.5776 98.46 73.7024 99.1879C73.8585 100.103 72.9844 100.821 72.1726 101.205C68.3428 102.994 63.8678 102.277 59.6946 101.517C55.8545 100.821 50.9007 98.8552 47.6537 98.0232Z" fill="#E3E3E3"/>
        <path d="M54.6678 90.5044C56.7284 91.7835 58.8723 92.8962 61.0993 93.853C61.6613 94.0922 62.14 93.2706 61.5781 93.0314C59.351 92.0851 57.2071 90.9619 55.1466 89.6828C54.6262 89.35 54.1475 90.1716 54.6678 90.5044Z" fill="#161513"/>
        <path d="M61.2036 81.0203C66.6048 83.9321 72.3807 86.0224 78.4063 87.2079C79.01 87.3223 79.2597 86.4071 78.6561 86.2927C72.7137 85.1176 67.0211 83.0793 61.6823 80.1987C61.1412 79.9075 60.6624 80.7291 61.2036 81.0203Z" fill="#161513"/>
        <path d="M72.8798 86.3549C73.2752 89.0379 76.0747 90.8162 78.6765 90.1715C79.2697 90.0259 79.0199 89.1107 78.4267 89.2563C76.2828 89.7867 74.1286 88.258 73.806 86.1053C73.7019 85.4917 72.7861 85.7517 72.8798 86.3549Z" fill="#161513"/>
        <path d="M77.095 80.3444C78.094 82.6634 80.5813 84.0777 83.0894 83.745C83.693 83.6618 83.693 82.7154 83.0894 82.7986C80.8727 83.0898 78.8017 81.9251 77.9171 79.866C77.6778 79.294 76.8556 79.7828 77.095 80.3444Z" fill="#161513"/>
        <path d="M66.8339 97.2851C68.4886 99.2298 70.9967 100.062 73.4944 99.573C74.098 99.4586 73.8378 98.533 73.2446 98.6578C71.0591 99.0842 68.9465 98.3042 67.5104 96.6195C67.1045 96.1516 66.4384 96.8275 66.8339 97.2851Z" fill="#161513"/>
        <path d="M189.147 177.932C187.45 175.873 164.035 147.389 162.328 145.32C153.877 135.066 144.001 126.278 133.927 117.616C123.728 108.849 108.794 106.447 96.6493 111.844C96.0977 112.083 94.7969 113.425 94.4846 113.934C93.829 114.995 94.6824 116.472 95.8584 116.898C97.0343 117.325 98.3352 117.013 99.5216 116.649C101.52 116.045 103.518 115.307 105.599 115.338C107.681 115.37 109.918 116.378 110.688 118.313C110.085 120.496 107.025 120.528 104.788 120.132C96.7013 118.687 88.3861 116.909 80.175 116.617C78.2393 116.555 75.7104 118.115 75.8353 120.049C75.9186 121.266 77.157 122.025 78.2601 122.555C84.9206 125.738 92.1223 127.142 99.2719 128.962C93.4856 127.214 87.4807 126.58 81.6945 124.833C80.1334 124.365 78.0832 123.471 76.4806 123.689C74.8675 123.907 73.2648 125.031 73.0254 126.642C72.8173 128.067 73.7435 129.461 74.9507 130.251C76.1579 131.041 78.0416 131.78 79.4465 132.102C85.8781 133.589 92.1847 135.648 98.2624 138.227C93.2462 136.553 88.0635 135.378 82.8184 134.712C81.0908 134.494 79.1031 134.421 77.8959 135.679C76.4701 137.177 77.0842 139.787 78.6036 141.191C80.123 142.595 82.2148 143.125 84.2025 143.697C99.6985 148.148 111.354 149.854 138.798 191.732L189.147 177.932Z" fill="#E3E3E3"/>
        <path d="M73.3277 127.225C75.8462 127.422 78.0525 129.055 78.9579 131.416C79.1764 131.977 80.0923 131.738 79.8737 131.166C78.8018 128.379 76.3041 126.507 73.3277 126.278C72.7137 126.226 72.7241 127.173 73.3277 127.225Z" fill="#161513"/>
        <path d="M76.7203 120.07C79.0202 119.768 81.2473 121.099 81.9758 123.325C82.1631 123.907 83.0894 123.657 82.8916 123.075C82.0383 120.486 79.4469 118.77 76.7203 119.123C76.1167 119.196 76.1167 120.153 76.7203 120.07Z" fill="#161513"/>
        <path d="M77.3759 137.52C79.322 137.676 81.112 138.695 82.2568 140.286C82.7355 140.952 83.1102 141.701 83.3079 142.491C83.4536 143.063 83.3599 143.697 83.7762 144.134C83.9323 144.301 84.1613 144.29 84.3486 144.207C84.5567 144.113 84.6504 143.978 84.692 143.76C84.7336 143.552 84.6608 143.323 84.4735 143.219C84.4527 143.209 84.4214 143.188 84.4006 143.177C83.8595 142.876 83.3807 143.697 83.9219 143.999C83.9427 144.009 83.9739 144.03 83.9948 144.041C83.9219 143.864 83.8491 143.687 83.7762 143.5C83.8074 143.458 83.8387 143.417 83.8699 143.375C84.0572 143.396 84.2549 143.427 84.4423 143.448C84.2757 143.271 84.2757 142.449 84.2133 142.221C84.1092 141.825 83.9739 141.441 83.8074 141.066C83.412 140.182 82.8396 139.382 82.1527 138.716C80.8414 137.437 79.1867 136.699 77.3655 136.553C76.7619 136.522 76.7723 137.479 77.3759 137.52Z" fill="#161513"/>
        <path d="M95.2037 114.163C96.7127 114.163 98.1697 114.08 99.3873 113.082C100.386 112.27 100.938 111.095 100.584 109.837C100.418 109.244 99.5018 109.494 99.6683 110.087C99.9805 111.179 99.2624 112.125 98.3466 112.655C97.3891 113.217 96.286 113.206 95.2037 113.206C94.5897 113.206 94.5897 114.163 95.2037 114.163Z" fill="#161513"/>
        <path d="M88.334 135.846C91.9556 137.083 95.4628 138.581 98.8763 140.307C99.4174 140.588 99.9066 139.766 99.355 139.485C95.8791 137.707 92.2887 136.189 88.5838 134.92C88.0114 134.733 87.7616 135.648 88.334 135.846Z" fill="#161513"/>
        <path d="M85.597 125.8C91.7475 127.454 97.9085 129.107 104.059 130.761C104.652 130.917 104.902 130.001 104.309 129.845C98.1582 128.192 91.9973 126.538 85.8468 124.885C85.2536 124.718 85.0038 125.634 85.597 125.8Z" fill="#161513"/>
        <path d="M102.758 148.315C103.216 147.16 103.861 146.1 104.673 145.164C105.069 144.706 104.402 144.03 103.997 144.488C103.07 145.559 102.352 146.744 101.832 148.055C101.613 148.637 102.54 148.876 102.758 148.315Z" fill="white"/>
        <path d="M107.182 140.172C107.952 138.903 108.555 137.551 109.003 136.137C109.19 135.554 108.264 135.305 108.087 135.887C107.671 137.229 107.088 138.497 106.36 139.693C106.047 140.213 106.87 140.692 107.182 140.172Z" fill="white"/>
        <path d="M110.595 130.73C111.271 129.243 111.948 127.755 112.614 126.268C112.864 125.717 112.041 125.228 111.792 125.79C111.115 127.277 110.439 128.764 109.773 130.241C109.523 130.802 110.335 131.281 110.595 130.73Z" fill="white"/>
        <path d="M119.753 116.347C120.762 115.349 121.522 114.184 122.043 112.874C122.272 112.302 121.345 112.063 121.127 112.624C120.669 113.789 119.972 114.808 119.077 115.682C118.65 116.098 119.316 116.774 119.753 116.347Z" fill="white"/>
        <path d="M125.758 93.5098C125.103 92.6987 123.895 92.5739 123.073 93.229L92.2477 118.188C92.2164 118.208 92.1956 118.24 92.1748 118.26C93.6942 118.749 95.2241 119.123 96.7539 119.446L125.477 96.1929C126.289 95.5377 126.424 94.3314 125.758 93.5098Z" fill="#161513"/>
        <path d="M115.788 106.977C119.274 104.18 122.761 101.372 126.236 98.5744C126.497 98.3664 126.361 97.9816 126.143 97.8256C125.321 97.2432 124.717 96.6193 124.155 95.7873C123.812 95.2882 122.99 95.7561 123.333 96.2657C123.978 97.2121 124.727 97.9816 125.664 98.6472C125.633 98.3976 125.602 98.148 125.57 97.8984C122.084 100.696 118.598 103.504 115.122 106.301C114.633 106.696 115.309 107.362 115.788 106.977Z" fill="#161513"/>
    </g>
    <defs>
        <clipPath id="clip0_530_5439">
            <rect y="-7" width="280" height="198.742" rx="99.3712" fill="white"/>
        </clipPath>
    </defs>
</svg>
