<svg width="230" height="230" viewBox="0 0 230 230" fill="none" xmlns="http://www.w3.org/2000/svg">
<g clip-path="url(#clip0_324_4693)">
<path d="M115 0C178.514 0 230 51.4855 230 115C230 178.514 178.514 230 115 230C51.4855 230 0 178.514 0 115C0 51.4855 51.4855 0 115 0ZM81.489 131.089L80.339 131.134C79.3144 131.254 78.3236 131.575 77.4236 132.079C76.5237 132.584 75.7324 133.261 75.0953 134.072C74.4582 134.884 73.9879 135.813 73.7116 136.807C73.4352 137.801 73.3582 138.839 73.485 139.863C74.7239 149.975 79.6112 159.288 87.2294 166.053C94.8477 172.817 104.673 176.568 114.861 176.602C125.049 176.636 134.899 172.95 142.562 166.237C150.225 159.523 155.174 150.243 156.48 140.139C156.655 138.121 156.042 136.114 154.77 134.538C153.498 132.961 151.666 131.938 149.657 131.683C147.647 131.427 145.617 131.959 143.991 133.166C142.365 134.374 141.269 136.164 140.932 138.161C140.124 144.482 137.034 150.289 132.245 154.492C127.455 158.695 121.295 161.003 114.923 160.984C108.551 160.964 102.406 158.617 97.6422 154.385C92.8787 150.152 89.8253 144.326 89.056 138C88.9364 136.975 88.6152 135.985 88.1111 135.085C87.6069 134.185 86.9296 133.393 86.1183 132.756C85.307 132.119 84.3776 131.649 83.3838 131.373C82.3899 131.096 81.3512 131.019 80.3275 131.146L81.489 131.089ZM66.861 72.2085C62.6063 72.2085 58.5258 73.8987 55.5172 76.9072C52.5087 79.9158 50.8185 83.9963 50.8185 88.251C50.8185 92.5057 52.5087 96.5862 55.5172 99.5948C58.5258 102.603 62.6063 104.294 66.861 104.294C71.1157 104.294 75.1962 102.603 78.2048 99.5948C81.2133 96.5862 82.9035 92.5057 82.9035 88.251C82.9035 83.9963 81.2133 79.9158 78.2048 76.9072C75.1962 73.8987 71.1157 72.2085 66.861 72.2085ZM163.139 72.2085C158.884 72.2085 154.804 73.8987 151.795 76.9072C148.787 79.9158 147.097 83.9963 147.096 88.251C147.097 92.5057 148.787 96.5862 151.795 99.5948C154.804 102.603 158.884 104.294 163.139 104.294C167.394 104.294 171.474 102.603 174.483 99.5948C177.491 96.5862 179.182 92.5057 179.182 88.251C179.182 83.9963 177.491 79.9158 174.483 76.9072C171.474 73.8987 167.394 72.2085 163.139 72.2085Z" fill="#F7CE45"/>
</g>
<defs>
<clipPath id="clip0_324_4693">
<rect width="230" height="230" fill="white"/>
</clipPath>
</defs>
</svg>
