<svg width="393" height="454" viewBox="0 0 393 454" fill="none" xmlns="http://www.w3.org/2000/svg">
<path d="M406.634 30.1286C327.434 65.2998 248.234 92.5653 166.38 119.831C94.22 144.442 36.14 189.308 -26.3256 237.664C-82.2705 280.222 -138.244 326.761 -208.5 332.877V454H-170.703C-148.689 418.742 -111.498 395.228 -72.98 380.138C-37.78 366.952 -3.47443 354.632 29.9656 335.301C38.7656 330.915 45.8056 323.875 54.6056 317.701C98.6056 289.57 137.326 265.824 181.326 237.664C206.86 221.824 229.74 207.773 257.006 200.733C340.62 177.882 407.471 133.016 481.42 90.8053C513.677 72.4552 548.213 62.8184 583.5 59.2984V0.785664C522.939 -1.1763 462.81 4.7673 406.634 30.1286Z" fill="#FFF4E0"/>
</svg>
