<svg width="62" height="61" viewBox="0 0 62 61" fill="none" xmlns="http://www.w3.org/2000/svg">
    <path fill-rule="evenodd" clip-rule="evenodd" d="M26.6863 25.4522C23.8128 24.4309 21.3923 22.4278 19.8514 19.7961C18.3106 17.1645 17.7484 14.0733 18.264 11.0676C18.7796 8.06199 20.3399 5.3349 22.6697 3.36725C24.9996 1.39961 27.9493 0.317771 30.9989 0.312505C34.0528 0.309889 37.0093 1.38767 39.345 3.35514C41.6808 5.3226 43.2452 8.0529 43.7616 11.0629C44.2779 14.0729 43.7129 17.1685 42.1664 19.8019C40.6199 22.4354 38.1917 24.4369 35.3115 25.4522V51.6327C39.4539 50.7841 43.256 48.7379 46.2459 45.7479C49.2359 42.7579 51.2821 38.9559 52.1307 34.8135H48.2494C47.1056 34.8135 46.0087 34.3591 45.1999 33.5503C44.3911 32.7416 43.9368 31.6446 43.9368 30.5009C43.9368 29.3571 44.3911 28.2602 45.1999 27.4514C46.0087 26.6426 47.1056 26.1882 48.2494 26.1882H56.8746C58.0184 26.1882 59.1153 26.6426 59.9241 27.4514C60.7329 28.2602 61.1873 29.3571 61.1873 30.5009C61.1873 47.1735 47.6715 60.6892 30.9989 60.6892C14.3263 60.6892 0.810547 47.1735 0.810547 30.5009C0.810547 29.3571 1.26491 28.2602 2.07368 27.4514C2.88246 26.6426 3.97939 26.1882 5.12317 26.1882H13.7484C14.8922 26.1882 15.9891 26.6426 16.7979 27.4514C17.6067 28.2602 18.061 29.3571 18.061 30.5009C18.061 31.6446 17.6067 32.7416 16.7979 33.5503C15.9891 34.3591 14.8922 34.8135 13.7484 34.8135H9.86705C10.7157 38.9559 12.7619 42.7579 15.7519 45.7479C18.7418 48.7379 22.5439 50.7841 26.6863 51.6327V25.4522ZM30.9989 8.93775C29.8551 8.93775 28.7582 9.39211 27.9494 10.2009C27.1406 11.0097 26.6863 12.1066 26.6863 13.2504C26.6863 14.3941 27.1406 15.4911 27.9494 16.2999C28.7582 17.1086 29.8551 17.563 30.9989 17.563C32.1427 17.563 33.2396 17.1086 34.0484 16.2999C34.8572 15.4911 35.3115 14.3941 35.3115 13.2504C35.3115 12.1066 34.8572 11.0097 34.0484 10.2009C33.2396 9.39211 32.1427 8.93775 30.9989 8.93775Z" fill="white"/>
</svg>
