<svg width="28" height="39" viewBox="0 0 28 39" fill="none" xmlns="http://www.w3.org/2000/svg">
    <path fill-rule="evenodd" clip-rule="evenodd" d="M15.0216 2.19197C14.8423 2.01278 14.5992 1.91211 14.3458 1.91211C14.0923 1.91211 13.8492 2.01278 13.67 2.19197L6.97893 8.88302L5.0672 10.7947C4.97591 10.8829 4.90309 10.9884 4.85299 11.105C4.8029 11.2216 4.77653 11.3471 4.77543 11.474C4.77432 11.6009 4.79851 11.7268 4.84657 11.8442C4.89463 11.9617 4.96561 12.0684 5.05536 12.1582C5.14511 12.2479 5.25183 12.3189 5.3693 12.367C5.48677 12.415 5.61264 12.4392 5.73956 12.4381C5.86648 12.437 5.99191 12.4106 6.10853 12.3605C6.22515 12.3105 6.33062 12.2376 6.4188 12.1463L6.69886 11.8663V18.1616C6.69886 18.9221 7.00098 19.6515 7.53876 20.1893C8.07654 20.7271 8.80592 21.0292 9.56646 21.0292H19.1251C19.8856 21.0292 20.615 20.7271 21.1528 20.1893C21.6906 19.6515 21.9927 18.9221 21.9927 18.1616V11.8663L22.2728 12.1463C22.453 12.3205 22.6945 12.4168 22.9451 12.4146C23.1957 12.4124 23.4355 12.3119 23.6127 12.1347C23.7899 11.9575 23.8905 11.7177 23.8926 11.4671C23.8948 11.2165 23.7985 10.975 23.6243 10.7947L15.0216 2.19197Z" fill="black"/>
    <path d="M4.91309 28.4581H6.37432V35.8701H4.91309V32.63H2.09654V35.8701H0.635314V28.4581H2.09654V31.1688H4.91309V28.4581ZM9.84042 36.0078C9.35334 36.0078 8.90862 35.8825 8.50626 35.6319C8.10742 35.3813 7.788 35.046 7.54799 34.626C7.31151 34.2024 7.19328 33.7348 7.19328 33.223C7.19328 32.8347 7.2621 32.473 7.39975 32.1376C7.5374 31.7988 7.72623 31.5023 7.96624 31.2482C8.20978 30.9906 8.49214 30.7894 8.81333 30.6447C9.13451 30.4999 9.47688 30.4276 9.84042 30.4276C10.3275 30.4276 10.7704 30.5529 11.1693 30.8035C11.5716 31.0541 11.8911 31.3912 12.1275 31.8147C12.3676 32.2382 12.4876 32.7077 12.4876 33.223C12.4876 33.6077 12.4187 33.9677 12.2811 34.303C12.1434 34.6383 11.9528 34.9348 11.7093 35.1924C11.4693 35.4466 11.1887 35.646 10.8675 35.7907C10.5499 35.9354 10.2075 36.0078 9.84042 36.0078ZM9.84042 34.5465C10.0663 34.5465 10.2693 34.4865 10.4493 34.3665C10.6293 34.243 10.7704 34.0806 10.8728 33.8795C10.9752 33.6783 11.0263 33.4595 11.0263 33.223C11.0263 32.9794 10.9716 32.7571 10.8622 32.5559C10.7563 32.3512 10.6134 32.1888 10.4334 32.0688C10.2534 31.9488 10.0557 31.8888 9.84042 31.8888C9.61806 31.8888 9.41687 31.9506 9.23687 32.0741C9.05686 32.1976 8.91392 32.36 8.80803 32.5612C8.70568 32.7624 8.6545 32.983 8.6545 33.223C8.6545 33.4736 8.70744 33.6995 8.81333 33.9006C8.92274 34.0983 9.06745 34.2554 9.24746 34.3718C9.42746 34.4883 9.62512 34.5465 9.84042 34.5465ZM13.2594 35.8701V30.5758H14.7207V30.9676C14.9007 30.7982 15.1089 30.6658 15.3454 30.5705C15.5819 30.4752 15.8325 30.4276 16.0972 30.4276C16.4572 30.4276 16.7872 30.5105 17.0872 30.6764C17.3908 30.8423 17.6343 31.0629 17.8178 31.3382C18.0049 31.0629 18.2484 30.8423 18.5484 30.6764C18.8484 30.5105 19.1767 30.4276 19.5332 30.4276C19.9179 30.4276 20.2655 30.5211 20.5761 30.7082C20.8903 30.8953 21.1409 31.1459 21.3279 31.46C21.515 31.7706 21.6085 32.1182 21.6085 32.503V35.8701H20.1473V32.9053C20.1473 32.7218 20.1014 32.5559 20.0097 32.4077C19.9214 32.2559 19.8032 32.1359 19.6549 32.0476C19.5067 31.9559 19.3408 31.91 19.1573 31.91C18.9737 31.91 18.8061 31.9541 18.6543 32.0424C18.5061 32.1306 18.3861 32.2506 18.2943 32.4024C18.2061 32.5506 18.162 32.7183 18.162 32.9053V35.8701H16.7007V32.9053C16.7007 32.7183 16.6566 32.5506 16.5684 32.4024C16.4801 32.2506 16.3601 32.1306 16.2084 32.0424C16.0601 31.9541 15.8942 31.91 15.7107 31.91C15.5307 31.91 15.3648 31.9559 15.213 32.0476C15.0648 32.1359 14.9448 32.2559 14.853 32.4077C14.7648 32.5559 14.7207 32.7218 14.7207 32.9053V35.8701H13.2594ZM24.8635 36.0078C24.3764 36.0078 23.9317 35.8825 23.5294 35.6319C23.1305 35.3813 22.8111 35.0442 22.5711 34.6207C22.3346 34.1971 22.2164 33.7295 22.2164 33.2177C22.2164 32.833 22.2852 32.473 22.4229 32.1376C22.5605 31.7988 22.7493 31.5023 22.9893 31.2482C23.2329 30.9906 23.5152 30.7894 23.8364 30.6447C24.1576 30.4999 24.5 30.4276 24.8635 30.4276C25.2835 30.4276 25.6665 30.5176 26.0124 30.6976C26.3618 30.8776 26.6565 31.1229 26.8965 31.4335C27.1401 31.7441 27.313 32.0953 27.4154 32.4871C27.5213 32.8788 27.5389 33.2865 27.4683 33.71H23.7941C23.84 33.8653 23.9106 34.0065 24.0058 34.1336C24.1047 34.2571 24.2247 34.356 24.3659 34.4301C24.5106 34.5042 24.6765 34.543 24.8635 34.5465C25.0471 34.5501 25.2165 34.5077 25.3718 34.4195C25.5271 34.3312 25.6594 34.213 25.7688 34.0648L27.2618 34.4089C27.0465 34.8783 26.7253 35.263 26.2983 35.563C25.8712 35.8595 25.393 36.0078 24.8635 36.0078ZM23.7411 32.63H25.9912C25.9453 32.4535 25.8677 32.2947 25.7583 32.1535C25.6488 32.0123 25.5165 31.9012 25.3612 31.82C25.2094 31.7388 25.0435 31.6982 24.8635 31.6982C24.687 31.6982 24.5212 31.7388 24.3659 31.82C24.2141 31.9012 24.0835 32.0123 23.9741 32.1535C23.8682 32.2912 23.7905 32.45 23.7411 32.63Z" fill="black"/>
</svg>
