<svg width="69" height="70" viewBox="0 0 69 70" fill="none" xmlns="http://www.w3.org/2000/svg">
    <path d="M24.5354 47.9072C22.9724 47.9072 21.5416 47.5222 20.243 46.7522C18.9558 45.9822 17.9215 44.9479 17.14 43.6492C16.37 42.3506 15.985 40.9083 15.985 39.3223C15.985 38.5638 16.0769 37.8283 16.2608 37.1157C16.4562 36.3917 16.7492 35.6907 17.14 35.0126L23.8803 23.3247H29.3967L25.0181 30.8925C25.903 30.927 26.7535 31.0937 27.5694 31.3925C28.3854 31.6798 29.1324 32.082 29.8105 32.5992C30.4885 33.1163 31.0746 33.7254 31.5688 34.4265C32.0745 35.116 32.4595 35.8745 32.7238 36.702C32.9996 37.5295 33.1376 38.4029 33.1376 39.3223C33.1376 40.506 32.9134 41.615 32.4652 42.6494C32.017 43.6837 31.3964 44.5974 30.6035 45.3903C29.822 46.1718 28.9083 46.7867 27.8625 47.2349C26.8282 47.6831 25.7191 47.9072 24.5354 47.9072ZM24.5354 43.1493C25.2709 43.1493 25.926 42.9712 26.5006 42.6149C27.0867 42.2471 27.5464 41.7759 27.8797 41.2013C28.213 40.6152 28.3797 40.0003 28.3797 39.3568C28.3797 38.6557 28.213 38.0179 27.8797 37.4433C27.5464 36.8571 27.0867 36.3917 26.5006 36.0469C25.926 35.6907 25.2824 35.5125 24.5699 35.5125C23.8114 35.5125 23.1448 35.6964 22.5702 36.0642C21.9956 36.4319 21.5474 36.9089 21.2256 37.495C20.9038 38.0696 20.7429 38.6902 20.7429 39.3568C20.7429 40.0808 20.921 40.7301 21.2773 41.3047C21.645 41.8679 22.1162 42.3161 22.6909 42.6494C23.2655 42.9827 23.8803 43.1493 24.5354 43.1493ZM38.8344 47.459L43.282 39.805C42.1672 39.7705 41.1214 39.5292 40.1446 39.0809C39.1677 38.6327 38.3115 38.0294 37.576 37.2709C36.8405 36.5009 36.2601 35.6217 35.8349 34.6333C35.4211 33.6335 35.2143 32.5589 35.2143 31.4097C35.2143 30.2375 35.4326 29.1399 35.8694 28.1171C36.3176 27.0828 36.9324 26.1749 37.7139 25.3934C38.5069 24.6004 39.4205 23.9855 40.4549 23.5488C41.4892 23.1006 42.5982 22.8765 43.7819 22.8765C45.3334 22.8765 46.747 23.2615 48.0227 24.0315C49.3098 24.8015 50.3384 25.8358 51.1084 27.1345C51.8899 28.4216 52.2807 29.8467 52.2807 31.4097C52.2807 32.1682 52.1887 32.9037 52.0048 33.6163C51.821 34.3173 51.5279 35.0126 51.1257 35.7021L44.3508 47.459H38.8344ZM43.7475 35.185C44.4945 35.185 45.1496 35.0069 45.7127 34.6506C46.2873 34.2828 46.7298 33.8116 47.0401 33.237C47.3619 32.6624 47.5228 32.0475 47.5228 31.3925C47.5228 30.6684 47.3446 30.0249 46.9884 29.4617C46.6436 28.8871 46.1839 28.4389 45.6093 28.1171C45.0346 27.7953 44.4255 27.6344 43.7819 27.6344C43.0464 27.6344 42.3914 27.8125 41.8167 28.1688C41.2421 28.5251 40.7881 28.9905 40.4549 29.5651C40.1331 30.1398 39.9722 30.7489 39.9722 31.3925C39.9722 32.082 40.1388 32.7141 40.4721 33.2887C40.8054 33.8633 41.2536 34.323 41.8167 34.6678C42.3914 35.0126 43.0349 35.185 43.7475 35.185Z" fill="white"/>
    <path fill-rule="evenodd" clip-rule="evenodd" d="M34.5 69.5C53.5538 69.5 69 54.0538 69 35C69 15.9462 53.5538 0.5 34.5 0.5C15.4462 0.5 0 15.9462 0 35C0 54.0538 15.4462 69.5 34.5 69.5ZM34.5001 63.829C50.4218 63.829 63.329 50.9218 63.329 35.0001C63.329 19.0784 50.4218 6.17123 34.5001 6.17123C18.5784 6.17123 5.67123 19.0784 5.67123 35.0001C5.67123 50.9218 18.5784 63.829 34.5001 63.829Z" fill="white"/>
</svg>
