<svg width="49" height="38" viewBox="0 0 49 38" fill="none" xmlns="http://www.w3.org/2000/svg">
    <path d="M0.646082 34.9932L2.11053 27.4555H3.36501L5.11482 32.0696L6.87001 27.4555H8.12448L9.58893 34.9932H8.07064L7.23612 30.6698L5.6263 34.9178H4.60333L2.9989 30.6698L2.15899 34.9932H0.646082ZM10.6037 29.6091H12.0896V34.9932H10.6037V29.6091ZM11.3574 28.99C11.1421 28.99 10.9608 28.9182 10.8136 28.7746C10.6665 28.6311 10.5929 28.4534 10.5929 28.2416C10.5929 28.0298 10.6665 27.8522 10.8136 27.7086C10.9608 27.565 11.1403 27.4932 11.352 27.4932C11.5638 27.4932 11.7415 27.565 11.885 27.7086C12.0322 27.8522 12.1058 28.0298 12.1058 28.2416C12.1058 28.4534 12.034 28.6311 11.8904 28.7746C11.7504 28.9182 11.5728 28.99 11.3574 28.99ZM18.2967 31.5689V34.9932H16.8107V31.9781C16.8107 31.7879 16.764 31.6174 16.6707 31.4666C16.5809 31.3123 16.4589 31.1903 16.3046 31.1005C16.1538 31.0108 15.9851 30.9659 15.7985 30.9659C15.6118 30.9659 15.4413 31.0108 15.287 31.1005C15.1326 31.1903 15.0106 31.3123 14.9209 31.4666C14.8311 31.6174 14.7863 31.7879 14.7863 31.9781V34.9932H13.3003L13.2949 29.6091H14.7809L14.7863 30.0076C14.9657 29.8353 15.1757 29.7007 15.4162 29.6038C15.6603 29.5069 15.9169 29.4584 16.1861 29.4584C16.5774 29.4584 16.9309 29.5535 17.2468 29.7437C17.5662 29.934 17.8211 30.1888 18.0113 30.5083C18.2015 30.8241 18.2967 31.1777 18.2967 31.5689ZM23.1927 26.9171H24.6787V34.9932H23.1927V34.4225C23.0276 34.6306 22.823 34.8011 22.579 34.9339C22.3349 35.0667 22.0567 35.1331 21.7444 35.1331C21.3532 35.1331 20.9871 35.0596 20.6461 34.9124C20.3051 34.7652 20.0036 34.5624 19.7416 34.304C19.4832 34.042 19.2804 33.7405 19.1332 33.3995C18.986 33.0585 18.9125 32.6924 18.9125 32.3012C18.9125 31.9099 18.986 31.5438 19.1332 31.2028C19.2804 30.8618 19.4832 30.5621 19.7416 30.3037C20.0036 30.0417 20.3051 29.8371 20.6461 29.6899C20.9871 29.5427 21.3532 29.4692 21.7444 29.4692C22.0567 29.4692 22.3349 29.5356 22.579 29.6684C22.823 29.7976 23.0276 29.9681 23.1927 30.1799V26.9171ZM21.766 33.7064C22.0101 33.7064 22.2308 33.6436 22.4282 33.5179C22.6256 33.3923 22.7818 33.2236 22.8966 33.0118C23.0115 32.7965 23.0689 32.5596 23.0689 32.3012C23.0689 32.0391 23.0115 31.8022 22.8966 31.5905C22.7818 31.3787 22.6256 31.21 22.4282 31.0844C22.2308 30.9587 22.0101 30.8959 21.766 30.8959C21.5183 30.8959 21.294 30.9587 21.093 31.0844C20.892 31.21 20.7322 31.3805 20.6138 31.5958C20.4954 31.8076 20.4361 32.0427 20.4361 32.3012C20.4361 32.5596 20.4954 32.7965 20.6138 33.0118C20.7358 33.2236 20.8974 33.3923 21.0984 33.5179C21.2994 33.6436 21.5219 33.7064 21.766 33.7064ZM34.2053 27.4555V28.9415H31.9871V34.9932H30.5011V28.9415H28.2829V27.4555H34.2053ZM36.8078 35.1331C36.3125 35.1331 35.8602 35.0057 35.4511 34.7509C35.0455 34.496 34.7206 34.1533 34.4765 33.7225C34.2361 33.2918 34.1158 32.8162 34.1158 32.2958C34.1158 31.9045 34.1858 31.5384 34.3258 31.1974C34.4658 30.8529 34.6578 30.5514 34.9019 30.2929C35.1496 30.0309 35.4367 29.8263 35.7633 29.6791C36.09 29.532 36.4381 29.4584 36.8078 29.4584C37.235 29.4584 37.6244 29.5499 37.9762 29.733C38.3315 29.916 38.6312 30.1655 38.8753 30.4814C39.123 30.7972 39.2988 31.1544 39.4029 31.5528C39.5106 31.9512 39.5286 32.3658 39.4568 32.7965H35.7203C35.7669 32.9544 35.8387 33.098 35.9356 33.2272C36.0361 33.3528 36.1582 33.4533 36.3017 33.5287C36.4489 33.6041 36.6176 33.6436 36.8078 33.6472C36.9945 33.6507 37.1668 33.6077 37.3247 33.5179C37.4826 33.4282 37.6172 33.308 37.7285 33.1572L39.2468 33.5072C39.0278 33.9846 38.7012 34.3758 38.2669 34.6809C37.8326 34.9824 37.3462 35.1331 36.8078 35.1331ZM35.6664 31.6981H37.9546C37.908 31.5187 37.829 31.3572 37.7177 31.2136C37.6065 31.07 37.4719 30.9569 37.3139 30.8744C37.1596 30.7918 36.9909 30.7506 36.8078 30.7506C36.6284 30.7506 36.4597 30.7918 36.3017 30.8744C36.1474 30.9569 36.0146 31.07 35.9033 31.2136C35.7956 31.3536 35.7167 31.5151 35.6664 31.6981ZM41.8936 35.0901C41.6172 35.0685 41.3516 35.0111 41.0968 34.9178C40.8419 34.8209 40.614 34.6917 40.413 34.5301C40.2156 34.365 40.0613 34.1676 39.95 33.9379L41.1991 33.3995C41.2386 33.4569 41.2978 33.5197 41.3768 33.5879C41.4557 33.6525 41.5508 33.71 41.6621 33.7602C41.777 33.8105 41.9098 33.8356 42.0605 33.8356C42.1718 33.8356 42.2795 33.823 42.3836 33.7979C42.4877 33.7692 42.572 33.7243 42.6366 33.6633C42.7012 33.5987 42.7335 33.5144 42.7335 33.4103C42.7335 33.2954 42.6923 33.2075 42.6097 33.1464C42.5271 33.0854 42.4266 33.0406 42.3082 33.0118C42.1933 32.9795 42.0821 32.9526 41.9744 32.9311C41.6442 32.8737 41.3319 32.7714 41.0376 32.6242C40.7468 32.4734 40.5099 32.2796 40.3269 32.0427C40.1438 31.8058 40.0523 31.5223 40.0523 31.192C40.0523 30.8295 40.1474 30.5173 40.3376 30.2552C40.5279 29.9896 40.7755 29.785 41.0806 29.6415C41.3857 29.4979 41.7159 29.4261 42.0713 29.4261C42.4912 29.4261 42.8807 29.514 43.2396 29.6899C43.5986 29.8658 43.8875 30.1135 44.1065 30.4329L42.9327 31.1274C42.8861 31.0592 42.8251 30.9946 42.7497 30.9336C42.6779 30.869 42.5935 30.8152 42.4966 30.7721C42.4033 30.7254 42.3028 30.6985 42.1951 30.6913C42.0551 30.6806 41.9277 30.6895 41.8129 30.7183C41.698 30.7434 41.6065 30.7918 41.5383 30.8636C41.4737 30.9354 41.4414 31.0323 41.4414 31.1544C41.4414 31.2728 41.4934 31.3607 41.5975 31.4182C41.7016 31.472 41.8218 31.5133 41.9582 31.542C42.0946 31.5671 42.2149 31.5976 42.319 31.6335C42.6312 31.734 42.9238 31.8633 43.1966 32.0212C43.4729 32.1755 43.6955 32.3658 43.8642 32.5919C44.0329 32.818 44.1118 33.0836 44.1011 33.3887C44.1011 33.7441 43.9952 34.0563 43.7834 34.3255C43.5716 34.5912 43.2971 34.794 42.9597 34.9339C42.6258 35.0703 42.2705 35.1224 41.8936 35.0901ZM47.9135 31.0951H46.9443V34.9932H45.4583V31.0951H44.7154V29.6091H45.4583V27.9186H46.9443V29.6091H47.9135V31.0951Z" fill="black"/>
    <g clip-path="url(#clip0_530_5718)">
        <path d="M34.2962 3.06396C31.2155 3.07718 28.9254 3.50139 27.2681 4.23454C26.0315 4.78133 25.5476 5.19507 25.5476 6.59666V21.2902C27.4418 19.5815 29.1227 19.103 35.7543 19.103V3.06396H34.2962ZM15.3409 3.06396C18.4216 3.07718 20.7117 3.50139 22.3689 4.23454C23.6056 4.78133 24.0895 5.19507 24.0895 6.59666V21.2902C22.1953 19.5815 20.5144 19.103 13.8828 19.103V3.06396H15.3409Z" fill="black"/>
    </g>
    <defs>
        <clipPath id="clip0_530_5718">
            <rect width="23.3296" height="23.3296" fill="white" transform="translate(13.1543 0.876953)"/>
        </clipPath>
    </defs>
</svg>
