<svg width="31" height="37" viewBox="0 0 31 37" fill="none" xmlns="http://www.w3.org/2000/svg">
    <path d="M0.633049 33.75V26.3644H3.35516C3.75961 26.3644 4.12361 26.4664 4.44717 26.6704C4.77424 26.8744 5.0345 27.1469 5.22793 27.4881C5.42136 27.8257 5.51808 28.1985 5.51808 28.6065C5.51808 29.0215 5.4196 29.3995 5.22265 29.7407C5.02571 30.0783 4.76194 30.3474 4.43134 30.5478C4.10427 30.7483 3.74554 30.8485 3.35516 30.8485H2.08906V33.75H0.633049ZM2.08906 29.3925H3.19162C3.3534 29.3925 3.49935 29.3538 3.62948 29.2765C3.75961 29.1956 3.86336 29.0883 3.94073 28.9547C4.02162 28.8175 4.06206 28.6663 4.06206 28.501C4.06206 28.3392 4.02162 28.1915 3.94073 28.0578C3.86336 27.9207 3.75961 27.8116 3.62948 27.7308C3.49935 27.6499 3.3534 27.6094 3.19162 27.6094H2.08906V29.3925ZM6.27361 33.75L6.26834 28.4746H7.72435L7.72963 28.865C7.90547 28.6962 8.11122 28.5643 8.34685 28.4693C8.586 28.3744 8.83746 28.3269 9.10123 28.3269C9.29467 28.3269 9.4881 28.355 9.68153 28.4113L9.10651 29.8831C8.9799 29.8304 8.85153 29.804 8.7214 29.804C8.53852 29.804 8.37147 29.848 8.22024 29.9359C8.06901 30.0238 7.94944 30.1434 7.86151 30.2946C7.77359 30.4423 7.72963 30.6094 7.72963 30.7958V33.75H6.27361ZM12.298 33.8872C11.8127 33.8872 11.3696 33.7623 10.9686 33.5126C10.5712 33.2629 10.2529 32.9288 10.0138 32.5103C9.77816 32.0882 9.66034 31.6223 9.66034 31.1123C9.66034 30.7254 9.72892 30.3649 9.86609 30.0308C10.0032 29.6932 10.1914 29.3978 10.4306 29.1446C10.6732 28.8878 10.9546 28.6874 11.2746 28.5432C11.5947 28.399 11.9358 28.3269 12.298 28.3269C12.7834 28.3269 13.2248 28.4517 13.6222 28.7014C14.0231 28.9511 14.3414 29.287 14.577 29.709C14.8162 30.1311 14.9358 30.5988 14.9358 31.1123C14.9358 31.4956 14.8672 31.8544 14.73 32.1885C14.5929 32.5226 14.4029 32.818 14.1603 33.0747C13.9211 33.328 13.6415 33.5267 13.3215 33.6709C13.005 33.8151 12.6638 33.8872 12.298 33.8872ZM12.298 32.4311C12.5231 32.4311 12.7254 32.3714 12.9047 32.2518C13.0841 32.1287 13.2248 31.9669 13.3268 31.7664C13.4287 31.566 13.4797 31.3479 13.4797 31.1123C13.4797 30.8696 13.4252 30.6481 13.3162 30.4476C13.2107 30.2436 13.0683 30.0818 12.8889 29.9623C12.7095 29.8427 12.5126 29.7829 12.298 29.7829C12.0765 29.7829 11.876 29.8444 11.6967 29.9675C11.5173 30.0906 11.3749 30.2524 11.2693 30.4529C11.1674 30.6533 11.1164 30.8731 11.1164 31.1123C11.1164 31.362 11.1691 31.5871 11.2746 31.7875C11.3836 31.9845 11.5278 32.141 11.7072 32.2571C11.8866 32.3731 12.0835 32.4311 12.298 32.4311ZM17.4634 27.4512V28.4746H18.8614V29.9306H17.4634V33.75H16.0074V29.9306H15.4799V28.4746H16.0074V27.4512C16.0074 27.1311 16.0865 26.841 16.2448 26.5807C16.4031 26.3169 16.6141 26.1059 16.8778 25.9477C17.1451 25.7894 17.4388 25.7103 17.7588 25.7103C17.9945 25.7103 18.2266 25.7595 18.4552 25.858C18.6838 25.9529 18.8878 26.1024 19.0671 26.3064L18.0226 27.3351C17.998 27.2788 17.9611 27.2366 17.9118 27.2085C17.8626 27.1804 17.8116 27.1663 17.7588 27.1663C17.6779 27.1663 17.6076 27.1944 17.5478 27.2507C17.4916 27.3035 17.4634 27.3703 17.4634 27.4512ZM19.6607 28.4746H21.1167V33.75H19.6607V28.4746ZM20.3993 27.8679C20.1882 27.8679 20.0106 27.7976 19.8664 27.6569C19.7223 27.5162 19.6502 27.3421 19.6502 27.1346C19.6502 26.9271 19.7223 26.753 19.8664 26.6124C20.0106 26.4717 20.1865 26.4014 20.394 26.4014C20.6015 26.4014 20.7756 26.4717 20.9163 26.6124C21.0604 26.753 21.1325 26.9271 21.1325 27.1346C21.1325 27.3421 21.0622 27.5162 20.9215 27.6569C20.7844 27.7976 20.6103 27.8679 20.3993 27.8679ZM22.3595 33.75V25.8369H23.8155V33.75H22.3595ZM27.2661 33.8872C26.7808 33.8872 26.3376 33.7623 25.9367 33.5126C25.5393 33.2629 25.221 32.927 24.9819 32.505C24.7462 32.083 24.6284 31.617 24.6284 31.107C24.6284 30.7237 24.697 30.3649 24.8341 30.0308C24.9713 29.6932 25.1595 29.3978 25.3986 29.1446C25.6413 28.8878 25.9226 28.6874 26.2427 28.5432C26.5627 28.399 26.9039 28.3269 27.2661 28.3269C27.6846 28.3269 28.0662 28.4166 28.4109 28.5959C28.7591 28.7753 29.0527 29.0197 29.2919 29.3292C29.5345 29.6387 29.7069 29.9886 29.8089 30.379C29.9144 30.7694 29.932 31.1756 29.8616 31.5976H26.2005C26.2462 31.7524 26.3165 31.8931 26.4115 32.0197C26.51 32.1428 26.6295 32.2412 26.7702 32.3151C26.9144 32.3889 27.0797 32.4276 27.2661 32.4311C27.449 32.4347 27.6178 32.3925 27.7726 32.3045C27.9273 32.2166 28.0592 32.0988 28.1682 31.9511L29.6559 32.294C29.4413 32.7617 29.1213 33.1451 28.6957 33.444C28.2702 33.7394 27.7937 33.8872 27.2661 33.8872ZM26.1477 30.5214H28.3898C28.3441 30.3456 28.2667 30.1873 28.1577 30.0467C28.0486 29.906 27.9167 29.7952 27.762 29.7143C27.6108 29.6334 27.4455 29.593 27.2661 29.593C27.0903 29.593 26.925 29.6334 26.7702 29.7143C26.619 29.7952 26.4889 29.906 26.3798 30.0467C26.2743 30.1838 26.197 30.3421 26.1477 30.5214Z" fill="black"/>
    <path fill-rule="evenodd" clip-rule="evenodd" d="M11.8072 6.78736C11.8072 5.77694 12.2086 4.80789 12.9231 4.09341C13.6376 3.37893 14.6066 2.97754 15.617 2.97754C16.6275 2.97754 17.5965 3.37893 18.311 4.09341C19.0255 4.80789 19.4269 5.77694 19.4269 6.78736C19.4269 7.79779 19.0255 8.76684 18.311 9.48132C17.5965 10.1958 16.6275 10.5972 15.617 10.5972C14.6066 10.5972 13.6376 10.1958 12.9231 9.48132C12.2086 8.76684 11.8072 7.79779 11.8072 6.78736ZM11.8072 12.5021C10.5442 12.5021 9.33286 13.0038 8.43976 13.8969C7.54666 14.79 7.04492 16.0013 7.04492 17.2644C7.04492 18.0222 7.34597 18.749 7.88183 19.2848C8.41769 19.8207 9.14447 20.1217 9.90229 20.1217H21.3318C22.0896 20.1217 22.8164 19.8207 23.3522 19.2848C23.8881 18.749 24.1891 18.0222 24.1891 17.2644C24.1891 16.0013 23.6874 14.79 22.7943 13.8969C21.9012 13.0038 20.6899 12.5021 19.4269 12.5021H11.8072Z" fill="black"/>
</svg>
