<svg width="82" height="82" viewBox="0 0 82 82" fill="none" xmlns="http://www.w3.org/2000/svg">
<path d="M9.39453 20.5C9.39453 19.8204 9.12455 19.1686 8.64399 18.688C8.16343 18.2075 7.51165 17.9375 6.83203 17.9375C6.15241 17.9375 5.50063 18.2075 5.02007 18.688C4.53951 19.1686 4.26953 19.8204 4.26953 20.5V61.5C4.26953 62.1796 4.53951 62.8314 5.02007 63.312C5.50063 63.7925 6.15241 64.0625 6.83203 64.0625C7.51165 64.0625 8.16343 63.7925 8.64399 63.312C9.12455 62.8314 9.39453 62.1796 9.39453 61.5V57.2292H72.2339V61.5C72.2339 62.1796 72.5038 62.8314 72.9844 63.312C73.465 63.7925 74.1167 64.0625 74.7964 64.0625C75.476 64.0625 76.1278 63.7925 76.6083 63.312C77.0889 62.8314 77.3589 62.1796 77.3589 61.5V53.4469C77.3589 46.6307 77.3589 43.2243 76.4022 40.4841C75.5546 38.0617 74.172 35.8614 72.3573 34.0467C70.5425 32.2319 68.3423 30.8494 65.9199 30.0018C63.1797 29.0451 59.7699 29.0451 52.957 29.0451H52.9502C50.2237 29.0451 46.6704 29.0451 45.5736 29.4243C44.6049 29.7634 43.7249 30.3164 42.9991 31.0421C42.2734 31.7679 41.7204 32.6478 41.3814 33.6166C40.9987 34.7133 40.9987 36.08 40.9987 38.8031V52.1042H9.39453V20.5Z" fill="white"/>
<path d="M23.9167 46.1253C26.1821 46.1253 28.3547 45.2254 29.9565 43.6235C31.5584 42.0217 32.4583 39.849 32.4583 37.5837C32.4583 35.3183 31.5584 33.1457 29.9565 31.5438C28.3547 29.9419 26.1821 29.042 23.9167 29.042C21.6513 29.042 19.4787 29.9419 17.8768 31.5438C16.2749 33.1457 15.375 35.3183 15.375 37.5837C15.375 39.849 16.2749 42.0217 17.8768 43.6235C19.4787 45.2254 21.6513 46.1253 23.9167 46.1253Z" fill="white"/>
</svg>
